<?xml version="1.0" encoding="UTF-8" standalone="no"?>
<!-- Created with Inkscape (http://www.inkscape.org/) -->

<svg
   version="1.1"
   id="svg2"
   xml:space="preserve"
   width="2666.6667"
   height="2666.6667"
   viewBox="0 0 2666.6667 2666.6667"
   sodipodi:docname="circle-312343.svg"
   inkscape:version="1.1 (c68e22c387, 2021-05-23)"
   xmlns:inkscape="http://www.inkscape.org/namespaces/inkscape"
   xmlns:sodipodi="http://sodipodi.sourceforge.net/DTD/sodipodi-0.dtd"
   xmlns="http://www.w3.org/2000/svg"
   xmlns:svg="http://www.w3.org/2000/svg"><defs
     id="defs6"><linearGradient
       x1="0"
       y1="0"
       x2="1"
       y2="0"
       gradientUnits="userSpaceOnUse"
       gradientTransform="matrix(1e-7,-1611.2168,-1611.2168,-1e-7,1040.8257,1563.1259)"
       spreadMethod="pad"
       id="linearGradient30"><stop
         style="stop-opacity:1;stop-color:#50a6e1"
         offset="0"
         id="stop24" /><stop
         style="stop-opacity:1;stop-color:#3a74be"
         offset="0.539326"
         id="stop26" /><stop
         style="stop-opacity:1;stop-color:#2d3f93"
         offset="1"
         id="stop28" /></linearGradient><radialGradient
       fx="0"
       fy="0"
       cx="0"
       cy="0"
       r="1"
       gradientUnits="userSpaceOnUse"
       gradientTransform="matrix(-723.07233,-1359.1359,-1359.1359,723.07233,1247.9091,1420.1224)"
       spreadMethod="pad"
       id="radialGradient1054"><stop
         style="stop-opacity:1;stop-color:#50a9e2"
         offset="0"
         id="stop1050" /><stop
         style="stop-opacity:1;stop-color:#2c3a91"
         offset="1"
         id="stop1052" /></radialGradient><radialGradient
       fx="0"
       fy="0"
       cx="0"
       cy="0"
       r="1"
       gradientUnits="userSpaceOnUse"
       gradientTransform="matrix(-102.60715,-1298.511,-1298.511,102.60715,909.62708,1494.0146)"
       spreadMethod="pad"
       id="radialGradient1074"><stop
         style="stop-opacity:1;stop-color:#80cb2a"
         offset="0"
         id="stop1070" /><stop
         style="stop-opacity:1;stop-color:#498435"
         offset="1"
         id="stop1072" /></radialGradient><radialGradient
       fx="0"
       fy="0"
       cx="0"
       cy="0"
       r="1"
       gradientUnits="userSpaceOnUse"
       gradientTransform="matrix(-779.83734,-1465.8352,-1465.8352,779.83734,1267.3712,1453.1042)"
       spreadMethod="pad"
       id="radialGradient1094"><stop
         style="stop-opacity:1;stop-color:#50a9e2"
         offset="0"
         id="stop1090" /><stop
         style="stop-opacity:1;stop-color:#2c3a91"
         offset="1"
         id="stop1092" /></radialGradient></defs><sodipodi:namedview
     id="namedview4"
     pagecolor="#505050"
     bordercolor="#ffffff"
     borderopacity="1"
     inkscape:pageshadow="0"
     inkscape:pageopacity="0"
     inkscape:pagecheckerboard="1"
     showgrid="false"
     showguides="true"
     inkscape:guide-bbox="true"
     inkscape:zoom="0.22627417"
     inkscape:cx="519.28154"
     inkscape:cy="846.31843"
     inkscape:window-width="1920"
     inkscape:window-height="1009"
     inkscape:window-x="-8"
     inkscape:window-y="-8"
     inkscape:window-maximized="1"
     inkscape:current-layer="g8"><sodipodi:guide
       position="49.999999,2666.6667"
       orientation="0,1"
       id="guide929"
       inkscape:label=""
       inkscape:locked="false"
       inkscape:color="rgb(0,0,255)" /><sodipodi:guide
       position="0,2666.6667"
       orientation="1,0"
       id="guide931" /></sodipodi:namedview><g
     id="g8"
     inkscape:groupmode="layer"
     inkscape:label="eco-5465492"
     transform="matrix(1.3333333,0,0,-1.3333333,0,2666.6667)"><g
       fill-rule="evenodd"
       stroke-width="0.5"
       id="g1452"
       transform="matrix(1.9997872,0,0,-1.9997872,1.9593751,2000.0001)"><g
         fill="#ffffff"
         stroke="#ffffff"
         id="g1338" /><path
         d="M 533,0.2 V 0 h 76 l -7.8,32 q -7.7,32 -7.2,40.5 0.5,8.5 4.2,18.7 3.8,10.3 11.3,21.3 7.5,11 54,41 46.5,30 47.5,30.5 l 1,0.5 0.2,0.3 0.3,0.2 0.3,0.2 0.2,0.3 0.2,0.3 0.3,0.2 0.3,-0.2 0.2,-0.3 0.5,-0.3 0.5,-0.2 -3.8,14.5 q -3.7,14.5 -4,25 l -0.2,10.5 2.2,10 q 2.3,10 3.3,15.5 1,5.5 5,10.5 4,5 21.7,35.8 17.8,30.7 22.8,36.7 5,6 5.2,6.3 l 0.3,0.2 0.3,0.2 0.2,0.3 0.2,0.3 0.3,0.2 0.3,0.2 0.2,0.3 0.2,0.3 0.3,0.2 0.3,0.5 0.2,0.5 -0.2,0.5 -0.3,0.5 -0.3,0.2 -0.2,0.3 -0.2,0.3 -0.3,0.2 -0.3,0.2 -0.2,0.3 -1,0.5 -1,0.5 v 0.5 l -1,0.2 -1,0.3 -1,0.5 -1,0.5 h -3.5 q -3.5,0 -10,-1.5 -6.5,-1.5 -12,-4.2 L 731,350 730.8,349.5 Q 730.5,349 730.2,349 H 730 l -0.2,-0.5 Q 729.5,348 729.2,348 H 729 l -0.2,-0.5 Q 728.5,347 728.2,347 H 728 l -0.2,-0.5 Q 727.5,346 727.2,346 H 727 l -0.2,-0.5 Q 726.5,345 726.2,345 H 726 l -0.2,-0.5 Q 725.5,344 725.2,344 H 725 l -0.2,-0.5 q -0.3,-0.5 -5,-4.7 -4.8,-4.3 -11,-11.6 -6.3,-7.2 -8,-13.7 -1.8,-6.5 -2.8,-6.7 -1,-0.3 -17.5,-17.6 L 664,272 663.8,271.5 Q 663.5,271 663.2,271 H 663 l -0.2,-0.5 q -0.3,-0.5 -0.6,-0.7 l -0.2,-0.3 -0.2,-0.3 -0.3,-0.2 -0.3,-0.2 -0.2,-0.3 -0.2,-0.3 -0.3,-0.2 -0.3,-0.2 -0.2,-0.3 -0.2,-0.3 -0.3,-0.2 -0.3,-0.2 -0.2,-0.3 -0.2,-0.3 -0.3,-0.2 -0.3,-0.2 -0.2,-0.3 -0.2,-0.3 q -0.3,-0.2 -6,-6 -5.8,-5.7 -9.8,-11.7 -4,-6 -4,-7.7 0,-1.8 -1.8,-3.3 -1.7,-1.5 -5.2,-7.5 -3.5,-6 -4.8,-9.5 -1.2,-3.5 0.3,-3.7 1.5,-0.3 4,-2.8 l 2.5,-2.5 0.2,-0.3 0.3,-0.2 v -1 l -0.3,-1.5 -0.2,-1.5 -1,-0.2 q -1,-0.3 -7,-3.8 -6,-3.5 -6.2,-6.8 -0.3,-3.2 1.2,-5.7 1.5,-2.5 2.5,-6.5 l 1,-4 v -2 l -0.3,-0.2 -0.2,-0.3 h -7 q -7,0 -17,-0.5 -10,-0.5 -11,-1.5 -1,-1 -9.5,-3.3 -8.5,-2.2 -8.7,-3.7 -0.3,-1.5 -2,-2.3 -1.8,-0.7 -4.3,-3.7 -2.5,-3 -9.5,-4 -7,-1 -11.2,-3.3 -4.3,-2.2 -11.6,-6.4 -7.2,-4.3 -13.2,-4.6 l -6,-0.2 -1,-0.2 -1,-0.3 0.2,-0.3 q 0.3,-0.2 0.3,-6.7 0,-6.5 -1.3,-8.7 -1.2,-2.3 -8.7,-2.8 l -7.5,-0.5 -1.5,0.3 -1.5,0.2 v -0.5 l 0.2,-0.3 q 0.3,-0.2 1.6,-0.7 1.2,-0.5 1.2,-2.5 0,-2 -3,-3.2 -3,-1.3 -17.5,-3.8 l -14.5,-2.5 1,-0.5 1,-0.5 0.2,-0.3 0.3,-0.2 0.3,-0.2 0.2,-0.3 -1,-0.5 -1,-0.5 2.5,-1 q 2.5,-1 1,-1.3 -1.5,-0.2 -1,-2 0.5,-1.7 1.5,-2 1,-0.2 1,-1.7 0,-1.5 1,-1.5 1,0 1.2,-1.5 l 0.3,-1.5 v -1 l -0.3,-0.2 Q 466,93.5 462.5,92 l -3.5,-1.5 -0.2,-0.3 -0.3,-0.2 -0.3,-0.2 -0.2,-0.3 1,-0.5 1,-0.5 2,-0.5 2,-0.5 -0.2,-0.3 -0.3,-0.2 -0.3,-0.2 -0.2,-0.3 V 86 l 1,-0.2 1,-0.3 0.5,-0.3 0.5,-0.2 20,2 q 20,2 20,1 0,-1 1,-1 1,0 1.8,-8 0.7,-8 2.2,-13 1.5,-5 2.5,-13 1,-8 1.7,-10 0.8,-2 2,-2.5 Q 518.5,40 523,29 527.5,18 529.2,9.5 531,1 532,0.8 q 1,-0.3 1,-0.6 z"
         fill="#fbbe9d"
         stroke="#fbbe9d"
         id="path1340" /><path
         d="M 826,768.2 V 768 l 7.5,1.2 q 7.5,1.3 13.5,6.3 6,5 14.2,12.3 8.3,7.2 9,8.4 0.8,1.3 5.6,4 4.7,2.8 9.2,9.3 4.5,6.5 9.8,12.7 5.2,6.3 23,18.6 17.7,12.2 21,14.2 3.2,2 5.7,4.8 2.5,2.7 11.3,9 8.7,6.2 9,7.2 0.2,1 7.2,5.2 7,4.3 13.8,7.6 6.7,3.2 7,3.4 l 0.2,0.3 h 3 l 0.2,-0.3 0.3,-0.2 0.3,0.2 0.2,0.3 h 2 l 0.5,-0.3 0.5,-0.2 v 104 l -0.5,0.2 -0.5,0.3 -0.2,0.3 -0.3,0.2 -0.3,-0.2 -0.2,-0.3 -0.2,-0.3 -0.3,-0.2 -0.3,-0.2 -0.2,-0.3 -0.2,-0.3 -0.3,-0.2 -0.3,-0.2 -0.2,-0.3 -0.2,-0.3 -0.3,-0.2 -0.3,-0.2 -0.2,-0.3 -1,-0.5 q -1,-0.5 -54.5,-42 -53.5,-41.5 -83.3,-66.2 -29.7,-24.8 -40,-29 -10.2,-4.3 -26.7,-5 L 773,850 v -0.5 l 1,-0.5 1,-0.5 -1.5,-0.5 -1.5,-0.5 0.2,-0.3 0.3,-0.2 0.3,-0.2 0.2,-0.3 1,-0.5 q 1,-0.5 -0.5,-1.5 -1.5,-1 -1,-2.5 0.5,-1.5 1,-4.8 0.5,-3.2 1.5,-3.2 1,0 1.2,-1 0.3,-1 7,-5.8 6.8,-4.7 13.3,-5.2 6.5,-0.5 9,-2 2.5,-1.5 4.7,-5.2 2.3,-3.8 2.3,-9.3 0,-5.5 -3,-11.5 -3,-6 -3,-10 0,-4 0.5,-6.5 0.5,-2.5 -0.2,-3.3 l -0.8,-0.7 3,-0.5 q 3,-0.5 3,-0.8 V 772 l 8.2,-0.5 q 8.3,-0.5 7,-1.7 -1.2,-1.3 -1.2,-1.6 z"
         fill="#fbc49f"
         stroke="#fbc49f"
         id="path1342" /><path
         d="M 808.5,772.2 812,772 v 0.2 q 0,0.3 -3,0.8 l -3,0.5 0.8,0.7 q 0.7,0.8 0.2,3.3 -0.5,2.5 -0.5,6.5 0,4 3,10 3,6 3,11.5 0,5.5 -2.3,9.3 -2.2,3.7 -4.7,5.2 -2.5,1.5 -9,2 -6.5,0.5 -13.3,5.2 -6.7,4.8 -7,5.8 -0.2,1 -1.2,1 -1,0 -1.5,3.2 -0.5,3.3 -1,4.8 -0.5,1.5 1,2.5 1.5,1 0.5,1.5 l -1,0.5 -0.2,0.3 -0.3,0.2 -0.3,0.2 -0.2,0.3 1.5,0.5 1.5,0.5 -1,0.5 -1,0.5 v 0.7 q 0,0.3 -3.5,0.8 -3.5,0.5 -70,34.5 -66.5,34 -73.5,35 -7,1 -25,-2.5 -18,-3.5 -42,-3.5 -24,0 -25,2.3 l -1,2.2 -0.2,-2.5 q -0.3,-2.5 -16,-4.5 L 501,910 v -0.5 l -5.5,-0.5 q -5.5,-0.5 -6.5,-0.5 -1,0 -4,2.5 l -3,2.5 -0.2,-0.3 q -0.3,-0.2 -1.8,-3.2 -1.5,-3 -10.2,-6.2 -8.8,-3.3 -16.3,-1.8 -7.5,1.5 -15,2 -7.5,0.5 -11,-1 -3.5,-1.5 -4.5,-3 -1,-1.5 -7,-3.2 -6,-1.8 -5.8,-2.8 0.3,-1 -1.2,-2.5 -1.5,-1.5 -8.8,-1.5 H 393 l -0.2,-0.5 Q 392.5,889 392.2,889 H 392 l -0.2,-0.5 q -0.3,-0.5 -4,-5.3 -3.8,-4.7 -45.6,-32 -41.7,-27.2 -50,-32.2 l -8.2,-5 0.2,-1 q 0.3,-1 1.3,-4 1,-3 3.7,-16.5 l 2.8,-13.5 0.5,-0.2 0.5,-0.3 0.2,-0.3 0.3,-0.2 0.3,-0.2 0.2,-0.3 0.2,-0.3 0.3,-0.2 0.3,0.2 0.2,0.3 1.5,0.5 1.5,0.5 0.2,0.3 0.3,0.2 0.3,0.2 0.2,0.3 0.2,0.3 0.3,0.2 0.3,1.5 q 0.2,1.5 3,2 2.7,0.5 4,4 1.2,3.5 2.2,3.5 1,0 4,3.2 3,3.3 5,5.3 2,2 1.5,3.3 -0.5,1.2 2.3,2.7 2.7,1.5 13.2,10 10.5,8.5 13.8,12.5 3.2,4 6.4,5.5 3.3,1.5 3.6,2.5 0.2,1 1.7,1.2 l 1.5,0.3 0.2,0.3 0.3,0.2 0.3,0.2 0.2,0.3 0.2,0.3 0.3,0.2 0.3,0.2 0.2,0.3 1,0.5 1,0.5 h 4 l -0.2,-0.3 -0.3,-0.2 -0.3,-0.2 -0.2,-0.3 -0.2,-0.3 -0.3,-0.2 -0.3,-0.2 -0.2,-0.3 -0.2,-0.3 -0.3,-0.2 -0.3,-0.2 -0.2,-0.3 -0.2,-0.3 q -0.3,-0.2 -1.3,-3.2 -1,-3 1.7,-5.2 2.8,-2.3 2.8,-3.6 V 824 l 1,0.2 1,0.3 1.5,0.5 1.5,0.5 h 1 l 13.5,-1.5 q 13.5,-1.5 20,0.5 6.5,2 7.3,1.3 0.7,-0.8 0.4,-1.8 -0.2,-1 5.3,0.2 5.5,1.3 6.5,1.8 l 1,0.5 1,0.3 1,0.2 v 0.2 q 0,0.3 0.5,0.6 l 0.5,0.2 v 0.2 q 0,0.3 0.5,0.6 l 0.5,0.2 6,2.2 q 6,2.3 10,3 4,0.8 4.5,-0.4 0.5,-1.3 6,2.7 5.5,4 14.5,8 9,4 9.5,4.3 l 0.5,0.2 v 0.2 q 0,0.3 0.5,0.6 l 0.5,0.2 -0.2,0.5 q -0.3,0.5 -0.3,1.5 v 1 l 0.3,1 q 0.2,1 1.4,1.5 1.3,0.5 2.3,9 1,8.5 4.3,9.7 3.2,1.3 15.4,0.6 12.3,-0.8 13.6,-0.3 1.2,0.5 1.2,-0.5 0,-1 13,-1.2 13,-0.3 20.5,-1 7.5,-0.8 7.5,0.2 0,1 3.5,1.8 3.5,0.7 9.5,1.2 6,0.5 6.5,-0.2 0.5,-0.8 6.5,0 6,0.7 9.5,-0.8 3.5,-1.5 8.5,-1.8 5,-0.2 5.5,-3 0.5,-2.7 8.5,-5.2 8,-2.5 21,-2.5 13,0 16,1 3,1 17.5,1 14.5,0 21.5,-2 7,-2 14.5,-3 7.5,-1 15.5,-5 8,-4 8.5,-5.3 0.5,-1.2 7.5,-5.2 7,-4 7,-5 0,-1 8.8,-7 8.7,-6 12.2,-10.5 3.5,-4.5 5.8,-9.3 2.2,-4.7 4.7,-5 2.5,-0.2 2.5,-1.2 0,-1 1,-1.2 l 1,-0.3 0.2,-0.3 0.3,-0.2 v -4 l -0.3,-0.2 -0.2,-0.3 -1.5,-0.5 q -1.5,-0.5 -3,-1 -1.5,-0.5 -8,-6 l -6.5,-5.5 -0.2,-0.3 -0.3,-0.2 H 768 l -0.2,-0.5 -0.3,-0.5 H 767 l -0.2,-0.5 -0.3,-0.5 -0.3,-0.2 -0.2,-0.3 -1,-0.5 -1,-0.5 1,-0.5 1,-0.5 -0.2,-0.3 -0.3,-0.2 -0.3,-0.2 -0.2,-0.3 1.5,-0.5 1.5,-0.5 h 4 l 4.5,1.5 q 4.5,1.5 11,1 6.5,-0.5 9,-1.2 2.5,-0.8 2.5,-1.8 0,-1 1.2,-1.5 1.3,-0.5 1.6,-1.5 0.2,-1 1.7,-1.8 1.5,-0.7 5,-1 z"
         fill="#fcc19b"
         stroke="#fcc19b"
         id="path1344" /><path
         d="M 0.8,5.5 1,3 17.8,15.5 q 16.7,12.5 68,52.7 51.2,40.3 72.2,57.3 21,17 29,19.5 8,2.5 26,2.5 18,0 87,-34.5 69,-34.5 74.5,-35 5.5,-0.5 9.5,0 4,0.5 6,1 l 2,0.5 1.5,0.3 1.5,0.2 v 0.5 l 0.5,0.3 0.5,0.2 v 0.5 l 0.2,0.3 0.3,0.2 0.3,0.2 0.2,0.3 0.2,0.3 0.3,0.2 v 1 l -0.3,0.2 -0.2,0.3 -1.5,0.5 -1.5,0.5 h -5 q -5,0 -14.5,0.5 -9.5,0.5 -8,1 1.5,0.5 -1,3.8 -2.5,3.2 -3.5,3.4 -1,0.3 -1.5,1.6 -0.5,1.2 -1.5,1.2 -1,0 -1.2,1 -0.3,1 -1.6,1.5 -1.2,0.5 -1.2,1.5 0,1 -1,1.2 l -1,0.3 -0.2,0.3 -0.3,0.2 -0.3,0.2 -0.2,0.3 0.2,0.3 0.3,0.2 0.5,1 0.5,1 1.3,0.8 q 1.2,0.7 2.7,1.2 1.5,0.5 3,0.8 l 1.5,0.2 v 2 h -3 v 2 h -5 l -1,-0.2 -1,-0.3 h -1 q -1,0 -1,0.3 v 0.2 l -2,0.2 q -2,0.3 -5,0.8 -3,0.5 -15,6.5 -12,6 -12.5,7.7 -0.5,1.8 -7,3 -6.5,1.3 -17,2.8 -10.5,1.5 -20.5,6 -10,4.5 -17,9 -7,4.5 -9,6 -2,1.5 -7,5.2 -5,3.8 -5,4.8 0,1 -1,1.2 -1,0.3 -10.2,7 -9.3,6.8 -17.6,8.6 -8.2,1.7 -10,7.4 -1.7,5.8 -1.7,9.3 0,3.5 1.7,11.5 1.8,8 0.8,8 -1,0 -1,1 0,1 -1.5,1.2 -1.5,0.3 -1.3,1.6 0.3,1.2 -0.4,2 -0.8,0.7 -9.8,1.7 l -9,1 v 0.5 l -0.5,-0.2 q -0.5,-0.3 -7.5,-2.6 -7,-2.2 -7.2,-3.2 -0.3,-1 -3,-2.8 -2.8,-1.7 -10.8,-6.7 -8,-5 -10.8,-7.7 -2.7,-2.8 -6.4,-4.6 -3.8,-1.7 -8.6,-7 -4.7,-5.2 -8.4,-8.7 -3.8,-3.5 -4,-4.5 -0.3,-1 -6.6,-6.8 -6.2,-5.7 -14.7,-7.7 -8.5,-2 -11,-4 -2.5,-2 -12.3,-6.7 Q 50.5,149 45.8,147 L 41,145 40.8,144.5 Q 40.5,144 40.2,144 H 40 l -0.2,-0.5 Q 39.5,143 39.2,143 H 39 l -0.2,-0.5 Q 38.5,142 38.2,142 H 38 l -0.2,-0.5 Q 37.5,141 37.2,141 H 37 l -0.2,-0.5 Q 36.5,140 36.2,140 H 36 l -0.5,-0.2 Q 35,139.5 28.5,134.5 22,129.5 15.8,124.2 9.5,119 6,117 2.5,115 1.2,115 H 0 V 8 H 0.2 Q 0.5,8 0.8,5.5 Z"
         fill="#fcd0b1"
         stroke="#fcd0b1"
         id="path1346" /><path
         d="m 162,802.2 -1,-2.2 2,0.2 2,0.3 2.8,1.7 q 2.7,1.8 3,3.6 0.2,1.7 2.7,4.2 2.5,2.5 4.5,3.2 2,0.8 2,1.8 0,1 8,2.2 8,1.3 9.5,1 1.5,-0.2 1.5,-1.2 0,-1 6.5,-0.2 6.5,0.7 9.3,2 2.7,1.2 3.7,4.7 1,3.5 0.7,3.7 l -0.2,0.3 0.2,0.3 0.3,0.2 0.3,0.2 0.2,0.3 0.2,0.3 0.3,0.2 0.3,0.2 0.2,0.3 h 1 l 1,-0.5 1,-0.5 0.2,-0.3 0.3,-0.2 0.5,-1.5 0.5,-1.5 0.3,-0.2 0.2,-0.3 0.2,-0.3 q 0.3,-0.2 2,-3 1.8,-2.7 2.8,-6 l 1,-3.2 h 2 l 0.2,-1.5 0.3,-1.5 h 0.5 l -0.8,11.5 q -0.7,11.5 -5.4,19.3 -4.8,7.7 -10.3,14.7 -5.5,7 -6.5,7.3 -1,0.2 -2,2 -1,1.7 -2,2 -1,0.2 -1,1.2 0,1 -1,1 -1,0 -1,1 0,1 -1,1 -1,0 -5.2,6 -4.3,6 -9.8,9.5 -5.5,3.5 -5.8,4.5 -0.2,1 -4,3.5 -3.7,2.5 -7.2,6 -3.5,3.5 -12,16.5 -8.5,13 -20.2,28.2 -11.8,15.3 -19.3,23.3 -7.5,8 -7.5,9 0,1 -4.8,8.3 -4.7,7.2 -5,7.4 l -0.2,0.3 -0.2,0.3 -0.3,0.2 -0.3,0.2 -0.2,0.3 -0.2,0.3 -0.3,0.2 -0.5,1.5 -0.5,1.5 -0.3,0.2 -0.2,0.3 0.2,0.3 0.3,0.2 0.3,0.2 0.2,0.3 5.5,0.3 5.5,0.2 v 1 H 16 v -0.5 L 9,999 2,998.5 2.2,998.2 2.5,998 3,997 3.5,996 3.8,995.8 4,995.5 4.2,995.2 4.5,995 4.8,994.8 5,994.5 5.2,994.2 5.5,994 6,993 q 0.5,-1 40.5,-52.5 40,-51.5 65.3,-81.7 25.2,-30.3 29.2,-37.6 l 4,-7.2 1,-0.2 1,-0.3 0.2,-0.3 0.3,-0.2 0.3,-0.2 0.2,-0.3 1,-0.5 1,-0.5 1,-0.5 1,-0.5 0.2,-0.3 0.3,-0.2 0.5,-1 q 0.5,-1 2.8,-3.2 2.2,-2.3 4.7,-1.8 2.5,0.5 1.5,-1.8 z"
         fill="#e8a67e"
         stroke="#e8a67e"
         id="path1348" /><path
         d="m 350.5,112.5 h 1.5 l 1,0.3 1,0.2 v 0.2 q 0,0.3 -6,1.3 l -6,1 -0.2,0.3 -0.3,0.2 -0.3,0.2 -0.2,0.3 2,0.5 q 2,0.5 -0.5,1 l -2.5,0.5 2.5,0.5 q 2.5,0.5 1.5,1 -1,0.5 -2,1 l -1,0.5 3.5,0.3 q 3.5,0.2 4,1.4 0.5,1.3 3,0.8 2.5,-0.5 5,-0.5 h 2.5 l -0.2,0.3 -0.3,0.2 -0.5,1 -0.5,1 -0.3,0.2 -0.2,0.3 -0.2,0.3 -0.3,0.2 -0.5,1.5 -0.5,1.5 -0.3,0.2 -0.2,0.3 2,0.5 2,0.5 -1,0.5 q -1,0.5 -5,0.8 -4,0.2 -5.2,2.2 -1.3,2 -8.8,4 l -7.5,2 -0.3,0.2 -0.2,0.3 -1.5,0.5 -1.5,0.5 h -4 l -0.2,0.3 -0.3,0.2 -0.3,0.2 -0.2,0.3 h 19.5 q 19.5,0 47.5,-6 28,-6 61.5,-9.5 33.5,-3.5 36,-3.8 l 2.5,-0.2 1.5,-0.2 1.5,-0.3 7.5,0.5 q 7.5,0.5 8.7,2.8 1.3,2.2 1.3,8.7 0,6.5 -0.3,6.7 l -0.2,0.3 1,0.3 1,0.2 h 0.2 q 0.3,0 0.8,1.5 l 0.5,1.5 v 2 l -0.3,0.2 -0.2,0.3 v 0.5 l -0.5,-0.2 -0.5,-0.3 -1,-0.5 q -1,-0.5 -2.5,-0.5 -1.5,0 -5.5,4 -4,4 -17,9 l -13,5 -0.2,0.3 -0.3,0.2 H 472 l -0.5,0.2 q -0.5,0.3 -0.5,0.6 v 0.2 l -1.5,0.2 q -1.5,0.3 -3,0.8 -1.5,0.5 -12,1 -10.5,0.5 -15.5,-0.5 -5,-1 -27.5,4 -22.5,5 -25,6.5 -2.5,1.5 -7,4.2 l -4.5,2.8 -1,0.2 -1,0.3 h -2 l 0.2,-0.3 0.3,-0.2 0.3,-0.2 0.2,-0.3 -2,-0.5 -2,-0.5 -0.2,-0.3 -0.3,-0.2 -0.3,0.2 q -0.2,0.3 -0.7,0.3 -0.5,0 -2,0.5 -1.5,0.5 -5,1.2 -3.5,0.8 -3.7,-0.2 -0.3,-1 -14,-1.8 -13.8,-0.7 -16,-1.4 -2.3,-0.8 -8.6,-2 -6.2,-1.3 -11.7,-0.6 l -5.5,0.8 0.2,-3 q 0.3,-3 0.8,-5.5 0.5,-2.5 -0.8,-4.7 -1.2,-2.3 -2.2,-3.8 -1,-1.5 -11.5,-2 -10.5,-0.5 -14,1 -3.5,1.5 -6.7,4.8 -3.3,3.2 -5.8,6.2 l -2.5,3 -0.3,0.2 -0.2,0.3 0.2,0.3 0.3,0.2 0.3,2 0.2,2 h 1 q 1,0 3,2.2 2,2.3 7.5,4.8 5.5,2.5 7,2.8 l 1.5,0.2 0.2,2 0.3,2 v 3 l -0.3,0.2 q -0.2,0.3 -1.4,2 -1.3,1.8 -8.6,9.6 -7.2,7.7 -15.7,12.7 -8.5,5 -18,5.3 -9.5,0.2 -9.5,-0.8 0,-1 -8,-0.5 -8,0.5 -8.2,1.5 -0.3,1 -8,2 l -7.8,1 -2,-0.2 q -2,-0.3 -6,-1.3 l -4,-1 -2,-0.5 -2,-0.5 -1,-0.5 -1,-0.5 -1.5,-0.3 -1.5,-0.2 v -0.5 l 9,-1 q 9,-1 9.8,-1.7 0.7,-0.8 0.4,-2 -0.2,-1.3 1.3,-1.6 1.5,-0.2 1.5,-1.2 0,-1 1,-1 1,0 -0.8,-8 -1.7,-8 -1.7,-11.5 0,-3.5 1.7,-9.3 1.8,-5.7 10,-7.4 8.3,-1.8 17.6,-8.6 9.2,-6.7 10.2,-7 1,-0.2 1,-1.2 0,-1 5,-4.8 5,-3.7 7,-5.2 2,-1.5 9,-6 7,-4.5 17,-9 10,-4.5 20.5,-6 10.5,-1.5 17,-2.8 6.5,-1.2 7,-3 0.5,-1.7 12.5,-7.7 12,-6 16.5,-7 4.5,-1 6,-1 z"
         fill="#f9c6a9"
         stroke="#f9c6a9"
         id="path1350" /><path
         d="M 900,0.2 V 0 h 97 l -0.2,0.5 Q 996.5,1 954,56 q -42.5,55 -68.8,86.8 -26.2,31.7 -30,43 -3.7,11.2 -4,28.7 L 851,232 v 3 h -2 l -0.2,-1 q -0.3,-1 -1,0.2 -0.8,1.3 -2.8,0.3 -2,-1 -5,-1.3 l -3,-0.2 0.2,1.5 0.3,1.5 -0.7,0.5 q -0.8,0.5 -1,2.5 -0.3,2 0.7,3.5 1,1.5 1,2 0,0.5 0.5,1.5 l 0.5,1 0.3,2.5 0.2,2.5 h -0.5 l -0.5,-1.5 -0.5,-1.5 -0.5,1.5 -0.5,1.5 -0.3,-0.2 -0.2,-0.3 -0.2,-0.3 -0.3,-0.2 -0.5,-1.5 -0.5,-1.5 -0.3,-0.2 -0.2,-0.3 -0.2,-0.3 q -0.3,-0.2 -1.8,-3.2 -1.5,-3 -5.8,-6.8 -4.2,-3.7 -8.7,-5.7 -4.5,-2 -10,-2 -5.5,0 -5.3,1.7 l 0.3,1.8 -0.5,1 -0.5,1 -0.3,-0.2 -0.2,-0.3 -0.2,-0.3 -0.3,-0.2 -0.3,-0.2 -0.2,-0.3 -0.2,-0.3 -0.3,-0.2 -0.3,-0.2 -0.2,-0.3 1,-0.3 1,-0.2 -0.2,-1 -0.3,-1 -0.3,0.2 -0.2,0.3 -1,0.5 -1,0.5 -0.2,0.3 -0.3,0.2 -0.3,0.2 -0.2,0.3 h -2 l 0.2,-0.3 0.3,-0.2 0.5,-1 0.5,-1 1.3,-2.5 q 1.2,-2.5 2.4,-2 1.3,0.5 1.3,-0.5 v -1 l -0.3,-0.2 -0.2,-0.3 -0.2,-0.3 q -0.3,-0.2 -2.6,-1.2 -2.2,-1 -2,-2 0.3,-1 -4.7,-3.5 -5,-2.5 -5.7,-3.3 -0.8,-0.7 -2.8,-0.2 -2,0.5 -2.8,2.8 -0.7,2.2 -5,3.7 -4.2,1.5 -4.2,2.5 0,1 -1,1 -1,0 -1.2,1.5 -0.3,1.5 -3.3,5 l -3,3.5 -0.3,0.2 -0.2,0.3 -0.2,0.3 -0.3,0.2 -0.3,0.2 -0.2,0.3 -0.2,0.3 -0.3,0.2 -0.3,0.2 -0.2,0.3 -0.2,0.3 -0.3,0.2 -0.5,1 -0.5,1 H 758 l -0.2,-0.5 -0.3,-0.5 v -2 l 0.5,-1 0.5,-1 0.5,-2.5 q 0.5,-2.5 1.2,-8.5 l 0.8,-6 1.8,-10 q 1.7,-10 4.2,-15 2.5,-5 4,-10.5 1.5,-5.5 4,-10.5 2.5,-5 3.2,-7.5 0.8,-2.5 4,-4.5 3.3,-2 5.3,-5.5 2,-3.5 3.3,-8.5 1.2,-5 5.4,-8.5 4.3,-3.5 5.3,-5 1,-1.5 2,-5.5 1,-4 2.3,-5.2 1.2,-1.3 5.2,-2.3 4,-1 5,0 1,1 4.5,0.5 3.5,-0.5 5.5,0.2 2,0.8 3,-1 1,-1.7 2,-2 1,-0.2 1.2,-4.2 0.3,-4 0.6,-5 0.2,-1 1.2,-1.2 1,-0.3 0,-0.6 -1,-0.2 -0.2,-3.7 0.7,-3.5 1.4,-5 0.8,-1.5 2.6,-3 1.7,-1.5 4.4,-7.5 2.8,-6 7.8,-9.8 5,-3.7 9.5,-7.4 4.5,-3.8 13.3,-17.8 8.7,-14 12.7,-22 4,-8 8.3,-14.2 4.2,-6.3 5.4,-9.6 1.3,-3.2 1,-3.4 Q 900,0.5 900,0.2 Z"
         fill="#885233"
         stroke="#885233"
         id="path1352" /><path
         d="M 397.8,900.5 392,889 h 1 q 1,0 1.5,0.8 0.5,0.7 6.5,0.2 6,-0.5 7.8,1.2 1.7,1.8 1.4,2.8 -0.2,1 5.8,2.8 6,1.7 7,3.2 1,1.5 4.5,3 3.5,1.5 11,1 7.5,-0.5 15,-2 7.5,-1.5 16.3,1.8 8.7,3.2 10.2,6.2 1.5,3 1.8,3.2 l 0.2,0.3 3,-2.5 q 3,-2.5 4,-2.5 1,0 6.5,0.5 l 5.5,0.5 v 0.5 l -2,0.2 -2,0.3 -2.5,18 q -2.5,18 -9.7,40.3 -7.3,22.2 -7.8,24.7 -0.5,2.5 -0.8,2.7 l -0.2,0.3 -0.2,0.3 -0.3,0.2 -0.3,0.2 -0.2,0.3 0.2,0.3 0.3,0.2 0.3,0.2 0.2,0.3 -1.5,0.5 -1.5,0.5 v 0.5 h -82 l 0.2,-3.5 q 0.3,-3.5 7.8,-33.5 7.5,-30 6,-40.5 -1.5,-10.5 -7.2,-22 z"
         fill="#fcce9f"
         stroke="#fcce9f"
         id="path1354" /><path
         d="m 275,835.5 v 1.5 l -9,18.8 q -9,18.7 -24.8,46 -15.7,27.2 -34.7,61.7 -19,34.5 -19.3,34.7 -0.2,0.3 -32.2,0.6 l -32,0.2 -0.2,-0.5 -0.3,-0.5 -0.3,-1 -0.2,-1 2,-0.2 2,-0.3 -0.2,-0.3 -0.3,-0.2 -0.3,-0.2 -0.2,-0.3 0.2,-0.3 0.3,-0.2 0.3,-0.2 0.2,-0.3 0.2,-0.3 0.3,-0.2 0.5,-1 q 0.5,-1 2.2,-3.5 1.8,-2.5 4.3,-3.3 2.5,-0.7 8.3,-7 5.7,-6.2 12,-11.7 6.2,-5.5 6.4,-6.5 0.3,-1 5.6,-7.2 5.2,-6.3 9.4,-12 4.3,-5.8 9.6,-12.6 5.2,-6.7 5.2,-7.7 0,-1 8.8,-10.7 8.7,-9.8 17.4,-19.6 8.8,-9.7 13,-17.4 4.3,-7.8 11.6,-17.8 l 7.2,-10 v 0.5 h 1 l 0.2,-0.3 0.3,-0.2 0.3,-0.2 0.2,-0.3 0.2,-0.3 0.3,-0.2 0.3,-0.2 0.2,-0.3 1,-0.5 1,-0.5 0.2,-0.3 0.3,-0.2 0.3,-0.2 0.2,-0.3 0.2,-0.3 0.3,-0.2 0.3,-0.2 0.2,-0.3 2.5,-2.5 q 2.5,-2.5 4,-2.8 1.5,-0.2 1.5,-1.2 0,-1 4,0.2 4,1.3 6,0.6 2,-0.8 2,0.7 z"
         fill="#6a3c22"
         stroke="#6a3c22"
         id="path1356" /><path
         d="m 800.8,223.2 0.2,0.3 0.2,0.3 0.3,0.2 -0.3,1.2 q -0.2,1.3 -2.2,2.3 -2,1 0.8,1.7 2.7,0.8 5.4,0 2.8,-0.7 5.3,-0.2 2.5,0.5 7,2.5 4.5,2 8.7,5.7 4.3,3.8 5.8,6.8 1.5,3 1.8,3.2 l 0.2,0.3 0.2,0.3 0.3,0.2 0.5,1.5 0.5,1.5 0.3,0.2 0.2,0.3 0.2,0.3 0.3,0.2 0.5,-1.5 0.5,-1.5 0.5,1.5 0.5,1.5 h 0.5 l 3,4.8 q 3,4.7 4,5 1,0.2 2.5,4.4 1.5,4.3 2.5,4.6 1,0.2 3,4.4 2,4.3 3.8,5.6 1.7,1.2 1.2,6.2 -0.5,5 0.2,6.5 0.8,1.5 1.8,1.5 1,0 1.8,5 0.7,5 1.2,6 0.5,1 0.5,3.5 v 2.5 l -0.3,-0.2 q -0.2,-0.3 -1.2,-0.3 -1,0 -1.2,2.3 l -0.3,2.2 -0.3,0.2 q -0.2,0.3 -1.7,-2 l -1.5,-2.2 -1,0.2 -1,0.3 -0.2,0.3 -0.3,0.2 0.5,24 q 0.5,24 1,28.5 0.5,4.5 5.8,28.3 5.2,23.7 5.4,24 0.3,0.2 0.6,9.7 l 0.2,9.5 1.2,12 q 1.3,12 1.3,20.5 v 8.5 l -0.3,-0.2 -0.2,-0.3 -0.2,-0.3 -0.3,-0.2 -0.5,-1.5 -0.5,-1.5 -0.3,-0.2 -0.2,-0.3 -0.2,-0.3 -0.3,-0.2 -0.3,-0.2 -0.2,-0.3 -0.2,-0.3 -0.3,-0.2 -0.5,-3 q -0.5,-3 -2.2,-4.2 l -1.8,-1.3 -0.2,-0.3 -0.3,-0.2 -0.3,-0.2 -0.2,-0.3 h -8 l -1,0.5 -1,0.5 -0.2,0.3 -0.3,0.2 v 4 q 0,4 0.3,4.2 l 0.2,0.3 1,0.3 1,0.2 v 2 h -2 l -0.5,-0.2 -0.5,-0.3 -0.2,-0.3 -0.3,-0.2 -0.3,-0.2 -0.2,-0.3 -1,-0.5 -1,-0.5 -0.2,-0.3 -0.3,-0.2 -0.3,-0.2 -0.2,-0.3 -0.2,-0.3 -0.3,-0.2 -0.3,-0.2 -0.2,-0.3 -0.2,-0.3 -0.3,-0.2 -0.3,-0.2 -0.2,-0.3 -0.2,-0.3 -0.3,-0.2 -0.3,-0.2 q -0.2,-0.3 -0.4,-1.6 -0.3,-1.2 1.4,-3.4 1.8,-2.3 1,-9 -0.7,-6.8 1.3,-11.8 2,-5 3.7,-6.2 l 1.8,-1.3 -0.2,-0.3 -0.3,-0.2 -0.3,-0.2 -0.2,-0.3 -2.5,-0.5 q -2.5,-0.5 -2.7,-0.8 -0.3,-0.2 -1.8,-3.2 l -1.5,-3 v -2 l 0.3,-0.2 0.2,-0.3 0.8,0.3 q 0.7,0.2 2.4,-1.6 1.8,-1.7 2.8,-2.2 l 1,-0.5 0.2,-0.3 0.3,-0.2 0.3,-0.2 0.2,-0.3 1,-0.5 1,-0.5 0.2,-0.3 0.3,-0.2 0.3,-0.2 0.2,-0.3 0.2,-0.3 0.3,-0.2 0.3,-0.2 0.2,-0.3 h -2 l -1,0.5 -1,0.5 -1.5,0.5 -1.5,0.5 -3,0.5 q -3,0.5 -5.5,0.5 -2.5,0 -3,-1.3 -0.5,-1.2 -1.5,-1.2 -1,0 -1.2,-2.5 -0.3,-2.5 -1.6,-5.3 -1.2,-2.7 -2.7,-8 -1.5,-5.2 -2.5,-5.2 -1,0 -0.8,-4 0.3,-4 -1.2,-7 -1.5,-3 -2.8,-3.5 -1.2,-0.5 -3.4,-4 -2.3,-3.5 -3.8,-6.5 -1.5,-3 -1.8,-7.2 -0.2,-4.3 0.3,-6.6 0.5,-2.2 -0.5,-2.2 -1,0 -0.2,-6 0.7,-6 -0.6,-9.2 -1.2,-3.3 -1.2,-4.3 0,-1 -0.8,-5.7 -0.7,-4.8 -5.4,-12.6 -4.8,-7.7 -5.3,-7 -0.5,0.8 -1.5,0.6 -1,-0.3 -3.5,-3.6 -2.5,-3.2 -7.5,-3.2 -5,0 -4.5,-3.5 0.5,-3.5 -0.5,-3.5 -1,0 -2.2,2 l -1.3,2 -0.5,-1 -0.5,-1 v -2.5 q 0,-2.5 -0.7,-8 -0.8,-5.5 -1.8,-5.7 -1,-0.3 -1.5,-1.6 -0.5,-1.2 -4,-2.7 -3.5,-1.5 -3.7,-0.5 -0.3,1 -0.8,-3.5 -0.5,-4.5 -4,-10.5 -3.5,-6 -3.8,-16 L 758,238 h 0.5 l 0.5,-1 0.5,-1 0.3,-0.2 0.2,-0.3 0.2,-0.3 0.3,-0.2 0.3,-0.2 0.2,-0.3 0.2,-0.3 0.3,-0.2 0.3,-0.2 0.2,-0.3 0.2,-0.3 0.3,-0.2 3,-3.5 q 3,-3.5 3.3,-5 0.2,-1.5 1.2,-1.5 1,0 1,-1 0,-1 4.2,-2.5 4.3,-1.5 5,-3.7 0.8,-2.3 2.8,-2.8 2,-0.5 2.8,0.2 0.7,0.8 2.4,2 1.8,1.3 3.6,1 1.7,-0.2 4.4,-0.2 2.8,0 2.8,1 0,1 -1.2,1.5 -1.3,0.5 -1.6,1.5 -0.2,1 2,2 2.3,1 2.6,1.2 z m 1,11.6 -0.3,0.2 -0.3,-0.2 -0.2,-0.3 -1,-0.3 q -1,-0.2 -1,-1.2 0,-1 2,-1 2,0 1.5,1.2 -0.5,1.3 -0.7,1.6 z"
         fill="#945536"
         stroke="#945536"
         id="path1358" /><path
         d="m 176.8,614 0.2,-1 3.8,3.5 q 3.7,3.5 9.2,13 5.5,9.5 7,19.5 1.5,10 2.2,17 0.8,7 2.6,8 1.7,1 2,2 0.2,1 3.2,0.8 3,-0.3 4.5,1.7 1.5,2 4,1.3 2.5,-0.8 2.5,0.2 0,1 1,1 1,0 1,5.5 0,5.5 1.2,6 1.3,0.5 3.6,5.3 2.2,4.7 4.7,5.4 2.5,0.8 4.5,3.6 2,2.7 3.5,2.2 1.5,-0.5 3.3,2.8 1.7,3.2 4.7,25.2 3,22 0.5,33 -2.5,11 -2.8,13 l -0.2,2 -3.8,11 q -3.7,11 -4,12 l -0.2,1 h -0.5 l -0.3,1.5 -0.2,1.5 h -2 l -1,3.2 q -1,3.3 -2.8,6 -1.7,2.8 -2,3 l -0.2,0.3 -0.2,0.3 -0.3,0.2 -0.5,1.5 -0.5,1.5 -0.3,0.2 -0.2,0.3 -1,0.5 -1,0.5 h -1 l -0.2,-0.3 -0.3,-0.2 -0.3,-0.2 -0.2,-0.3 -1,-0.3 -1,-0.2 0.2,-1 q 0.3,-1 -0.2,-4 -0.5,-3 -3.2,-4.2 -2.8,-1.3 -9.3,-2 -6.5,-0.8 -6.5,0.2 0,1 -1.5,1.2 -1.5,0.3 -9.5,-1 -8,-1.2 -8,-2.2 0,-1 -2,-1.8 -2,-0.7 -4.5,-3.2 -2.5,-2.5 -2.7,-4.2 -0.3,-1.8 -3,-3.6 l -2.8,-1.7 -2,-0.3 -2,-0.2 1,2.2 q 1,2.3 -1.5,1.8 -2.5,-0.5 -4.7,1.8 -2.3,2.2 -2.8,3.2 l -0.5,1 -0.3,0.2 -0.2,0.3 -1,0.5 -1,0.5 -1,0.5 -1,0.5 -0.2,0.3 -0.3,0.2 -0.3,0.2 -0.2,0.3 -1,0.3 -1,0.2 0.2,-1.5 0.3,-1.5 0.5,-1 0.5,-1 0.5,-2 q 0.5,-2 0.5,-21.5 0,-19.5 -17.5,-54 l -17.5,-34.5 -0.3,-1 -0.2,-1 h 0.5 l 0.5,-1 0.5,-1 0.3,0.2 0.2,0.3 0.2,0.3 0.3,0.2 0.3,0.2 0.2,0.3 1,0.5 q 1,0.5 1.8,-0.2 0.7,-0.8 2.4,-0.3 1.8,0.5 1.8,-0.5 0,-1 1,-1.2 1,-0.3 1.8,-2 0.7,-1.8 1.2,-0.3 0.5,1.5 0.8,-0.5 0.2,-2 1.2,-2 h 1 v -3 h 0.5 v -2 l -0.3,-3 q -0.2,-3 1.6,-1.5 1.7,1.5 1.7,-2 V 673 l 0.5,1 0.5,1 0.3,0.2 0.2,0.3 0.2,0.3 0.3,0.2 0.5,-2 0.5,-2 0.5,1.5 0.5,1.5 0.3,-0.2 0.2,-0.3 0.2,-0.3 0.3,-0.2 1,2 q 1,2 1.3,4.5 l 0.2,2.5 h 2 l 0.2,1 0.3,1 0.3,0.2 0.2,0.3 0.2,0.3 0.3,0.2 0.5,-6.5 q 0.5,-6.5 0.8,-20.5 l 0.2,-14 h 0.5 l 0.3,0.2 0.2,0.3 h 2 l 0.2,-0.3 0.3,-0.2 0.3,-0.2 0.2,-0.3 0.2,-0.3 0.3,-0.2 0.3,0.2 0.2,0.3 0.2,0.3 0.3,0.2 0.5,-1 0.5,-1 0.3,-1.5 q 0.2,-1.5 1.2,-1.7 1,-0.3 0.2,-2.6 -0.7,-2.2 1,-1.4 1.8,0.7 2.6,-0.6 0.7,-1.2 1,-4.2 0.2,-3 1.4,-3.5 1.3,-0.5 0.6,-1 -0.8,-0.5 -0.8,-2 0,-1.5 1.5,-1.7 1.5,-0.3 1.5,-1.8 v -1.5 l 3,-1.3 q 3,-1.2 3,1 0,2.3 2,1.8 2,-0.5 3.5,-0.5 h 1.5 l -0.2,-0.3 -0.3,-0.2 v -1 q 0,-1 1.3,-1.5 l 1.2,-0.5 -0.2,-1 q -0.3,-1 0,-2 z"
         fill="#e19774"
         stroke="#e19774"
         id="path1360" /><path
         d="m 766.8,784 h 0.7 l 0.3,0.5 0.2,0.5 h 0.5 l 0.3,0.2 0.2,0.3 6.5,5.5 q 6.5,5.5 8,6 1.5,0.5 3,1 l 1.5,0.5 0.2,0.3 0.3,0.2 v 4 l -0.3,0.2 -0.2,0.3 -1,0.3 q -1,0.2 -1,1.2 0,1 -2.5,1.2 -2.5,0.3 -4.7,5 -2.3,4.8 -5.8,9.3 -3.5,4.5 -12.2,10.5 -8.8,6 -8.8,7 0,1 -7,5 -7,4 -7.5,5.2 -0.5,1.3 -8.5,5.3 -8,4 -15.5,5 -7.5,1 -14.5,3 -7,2 -21.5,2 -14.5,0 -17.5,-1 -3,-1 -16,-1 -13,0 -21,2.5 -8,2.5 -8.5,5.2 -0.5,2.8 -5.5,3 -5,0.3 -8.5,1.8 -3.5,1.5 -9.5,0.8 -6,-0.8 -6.5,0 -0.5,0.7 -6.5,0.2 -6,-0.5 -9.5,-1.2 -3.5,-0.8 -3.5,-1.8 0,-1 -21.8,0.5 -21.7,1.5 -34,2.3 -12.2,0.7 -15.4,-0.6 -3.3,-1.2 -4.3,-9.7 -1,-8.5 -2.3,-9 -1.2,-0.5 -1.4,-1.5 l -0.3,-1 -0.3,-2 -0.2,-2 h 2 v 2 l 3.5,-0.2 q 3.5,-0.3 7,-4.3 3.5,-4 13.5,-8 10,-4 18.5,-7.5 8.5,-3.5 11,-4 l 2.5,-0.5 1,-0.5 1,-0.5 V 825 l 14.5,-0.2 q 14.5,-0.3 26,-2.3 11.5,-2 18.7,-3.3 7.3,-1.2 12.6,-4.4 5.2,-3.3 6.2,-3.6 l 1,-0.2 0.5,-0.2 q 0.5,-0.3 0.5,-0.6 V 810 l 12.5,0.2 q 12.5,0.3 18.5,2.8 6,2.5 10,3 4,0.5 5,0.8 1,0.2 0.5,1.4 -0.5,1.3 3.5,2.6 4,1.2 4,2.2 0,1 3,1.5 3,0.5 3,1.5 0,1 1.2,2 1.3,1 2,4 0.8,3 1.8,3 1,0 2,2.8 1,2.7 2.5,3 1.5,0.2 2.5,2.4 1,2.3 8.5,3.3 7.5,1 13,0.5 5.5,-0.5 10.5,-2.2 5,-1.8 5,-2.8 0,-1 3.5,-3 3.5,-2 6.5,-5.2 3,-3.3 8.8,-6.6 5.7,-3.2 7.4,-4.2 1.8,-1 6,-7 4.3,-6 4.3,-15 0,-9 -1.3,-12 -1.2,-3 -2.2,-3 -1,0 -0.8,-1 0.3,-1 0.6,-1 z"
         fill="#fab895"
         stroke="#fab895"
         id="path1362" /><path
         d="m 182.2,277.8 -1.2,-1.3 h 3 l 5,1.3 q 5,1.2 6.5,3 1.5,1.7 2.7,3 1.3,1.2 7.8,4.7 6.5,3.5 6.2,5.5 -0.2,2 2,3 2.3,1 2.6,2.8 0.2,1.7 6.2,0.2 6,-1.5 9,-3.5 3,-2 8.5,-3 5.5,-1 8,-1.7 2.5,-0.8 4,1.4 1.5,2.3 2,2.6 l 0.5,0.2 -7,6.8 q -7,6.7 -11,7.4 -4,0.8 -4,1.8 0,1 -3,1.2 -3,0.3 -5.5,1.6 -2.5,1.2 -2.5,2.2 0,1 -1,1 -1,0 -1,2 0,2 -5,3.2 -5,1.3 -9,2 -4,0.8 -4,1.8 0,1 -9,3.8 -9,2.7 -11.8,7 -2.7,4.2 -3.4,7.2 -0.8,3 -6.6,5 -5.7,2 -6.2,4 l -0.5,2 -0.5,1 -0.5,1 -0.3,0.2 -0.2,0.3 0.2,0.3 0.3,0.2 0.7,0.2 q 0.8,0.3 1.8,0 l 1,-0.2 v 1 q 0,1 1.5,1.2 l 1.5,0.3 0.2,0.3 0.3,0.2 0.3,0.5 0.2,0.5 -1,-0.2 -1,-0.3 h -2 l -0.2,0.3 q -0.3,0.2 -0.6,0.7 l -0.2,0.5 -1,-1.2 q -1,-1.3 -7.2,8.4 -6.3,9.8 -13.8,23.8 -7.5,14 -11.5,22 -4,8 -6.3,10.8 -2.2,2.7 -2.4,3 l -0.3,0.2 -0.3,0.5 -0.2,0.5 h -0.5 l -0.3,0.2 -0.2,0.3 -0.2,0.3 -0.3,0.2 -0.3,0.5 -0.2,0.5 h -0.5 v -1.5 q 0,-1.5 0,-2.5 v -1 l -0.3,-0.2 -0.2,-0.3 -1,-0.3 -1,-0.2 0.2,1 0.3,1 v 0.5 q 0,0.5 -0.5,1.5 l -0.5,1 -0.3,0.2 -0.2,0.3 -1,0.3 -1,0.2 v -2 l 1,-0.2 q 1,-0.3 0.2,-2.6 l -0.7,-2.2 -0.3,-0.2 -0.2,-0.3 -0.2,-0.3 -0.3,-0.2 -0.5,1 -0.5,1 -0.3,0.2 -0.2,0.3 -0.2,0.3 q -0.3,0.2 -0.3,2.2 v 2 l 0.3,0.2 0.2,0.3 h -3 l -0.2,-0.3 -0.3,-0.2 -0.3,-1 -0.2,-1 -1,-0.2 -1,-0.3 0.2,-0.3 0.3,-0.2 0.3,-0.2 0.2,-0.3 0.2,-0.3 0.3,-0.2 0.3,0.2 0.2,0.3 0.2,0.3 0.3,0.2 v -2 q 0,-2 -0.5,-3 -0.5,-1 0.2,-3 0.8,-2 2.3,-2 1.5,0 2.7,-3 1.3,-3 1,-5 -0.2,-2 0.8,-2 1,0 1.2,1.5 0.3,1.5 0.3,-5.5 0,-7 -1.7,-7 -1.8,0 -1.8,-2.5 0,-2.5 -1,-2.7 l -1,-0.3 0.2,-0.3 q 0.3,-0.2 1.6,-1.7 l 1.2,-1.5 0.5,-0.2 q 0.5,-0.3 0.5,-0.6 V 389 l 0.5,-0.2 q 0.5,-0.3 0.5,-0.6 V 388 l 0.5,-0.2 q 0.5,-0.3 1.7,-1 1.3,-0.8 33.6,-50 l 32.2,-49.3 0.2,-0.3 0.3,-0.2 0.3,-1.5 0.2,-1.5 -1,-0.2 -1,-0.3 -1,-0.5 q -1,-0.5 -1,-0.8 V 282 h 2 l -0.2,-1.5 q -0.3,-1.5 -1.6,-2.7 z m 58,18.4 q 0.3,-0.2 0.6,0 0.2,0.3 -0.3,0.3 -0.5,0 -0.3,-0.3 z m -79,65 q 0.3,-0.2 0.6,0 0.2,0.3 -0.3,0.3 -0.5,0 -0.3,-0.3 z M 116.5,425 q -0.5,-0.5 0.5,-0.8 1,-0.2 0.5,0.6 -0.5,0.7 -1,0.2 z"
         fill="#a16446"
         stroke="#a16446"
         id="path1364" /><path
         d="m 821,720 v -1 h 4 l 18.5,7.8 q 18.5,7.7 51.5,26.7 33,19 58.2,32.7 25.3,13.8 33,18 7.8,4.3 8.8,4.8 l 1,0.5 1,0.5 1,0.5 0.2,0.3 0.3,0.2 0.3,0.2 0.2,0.3 0.5,0.3 0.5,0.2 v 53 l -0.5,0.2 -0.5,0.3 -0.2,0.3 -0.3,0.2 -0.3,0.2 -0.2,0.3 -0.2,0.3 -0.3,0.2 -0.3,-0.2 -0.2,-0.3 -1.5,-0.5 -1.5,-0.5 -0.2,-0.3 -0.3,-0.2 -0.3,-0.2 -0.2,-0.3 -0.2,-0.3 -0.3,-0.2 -0.3,0.2 -0.2,0.3 -0.2,0.3 -0.3,0.2 -0.3,-0.2 -0.2,-0.3 -0.2,-0.3 -0.3,-0.2 -0.3,-0.2 q -0.2,-0.3 -1,-1 -0.7,-0.8 0,-1.6 0.8,-0.7 -8.7,-11 Q 971,840 970,839.8 q -1,-0.3 -1.5,-1.6 -0.5,-1.2 -1.5,-1.4 -1,-0.3 -9,-6.3 -8,-6 -16,-12 -8,-6 -18.5,-11.3 -10.5,-5.2 -10.7,-6.2 -0.3,-1 -6.6,-6 -6.2,-5 -9.7,-10 -3.5,-5 -4.5,-5 -1,0 -1.2,-1 -0.3,-1 -8.6,-6.2 -8.2,-5.3 -21,-13 -12.7,-7.8 -19.4,-12.3 L 835,743 834.8,742.5 Q 834.5,742 834.2,742 H 834 l -0.2,-0.5 q -0.3,-0.5 -2.3,-3 -2,-2.5 -3.7,-4.7 -1.8,-2.3 1.2,-3 3,-0.8 3,-2.8 v -2 l -1,-0.2 q -1,-0.3 -3,-1 -2,-0.8 -2,-1.8 0,-1 -2.5,-1.5 Q 821,721 821,720 Z"
         fill="#7c4b2d"
         stroke="#7c4b2d"
         id="path1366" /><path
         d="m 921.5,514.5 h 7.5 l 2,0.3 2,0.2 v 0.2 q 0,0.3 0.5,0.6 l 0.5,0.2 v 0.2 q 0,0.3 0.5,0.6 l 0.5,0.2 10.2,2 q 10.3,2 18.6,6.5 8.2,4.5 8.2,5.5 0,1 12,3.2 12,2.3 13,2 1,-0.2 1.5,0.6 0.5,0.7 1,0.4 l 0.5,-0.2 v 72 l -2.5,-0.2 q -2.5,-0.3 -29.5,-7.3 -27,-7 -35,-7.5 -8,-0.5 -15,1 -7,1.5 -23,10.2 -16,8.8 -47.8,57.8 l -31.7,49 -0.3,0.2 -0.2,0.3 -0.2,0.3 -0.3,0.2 -0.3,0.2 -0.2,0.3 0.2,0.3 0.3,0.2 0.3,0.5 0.2,0.5 -1,-0.2 q -1,-0.3 -12.8,-3.6 -11.7,-3.2 -16.4,-4.4 l -4.8,-1.3 1,-0.5 1,-0.5 1,-0.5 q 1,-0.5 1.8,-1.2 0.7,-0.8 1.4,-5.3 0.8,-4.5 -0.2,-4.7 -1,-0.3 -0.5,-2.3 0.5,-2 2,-6.7 l 1.5,-4.8 2.5,-0.2 2.5,-0.3 0.2,-0.3 0.3,-0.2 0.3,-0.2 0.2,-0.3 0.2,-0.3 0.3,-0.2 0.3,-0.2 0.2,-0.3 10.2,-5.3 q 10.3,-5.2 13,-11 2.8,-5.7 6,-8.4 3.3,-2.8 8.3,-8.3 5,-5.5 5.5,-6.5 0.5,-1 1,-2.5 l 0.5,-1.5 0.5,-1.5 0.5,-1.5 0.3,-0.2 0.2,-0.3 0.2,-0.3 0.3,-0.2 0.3,-1.5 0.2,-1.5 9.8,-17.5 q 9.7,-17.5 14.7,-27 5,-9.5 16.5,-25.5 11.5,-16 16,-22 4.5,-6 6.2,-12 1.8,-6 4.8,-6.8 3,-0.7 10.5,-0.7 z"
         fill="#cd8e65"
         stroke="#cd8e65"
         id="path1368" /><path
         d="m 795.5,758 2.5,0.5 1,0.5 1,0.5 1.5,0.3 1.5,0.2 v 0.2 q 0,0.3 0.5,0.6 l 0.5,0.2 10.5,3.2 q 10.5,3.3 11,3.6 l 0.5,0.2 v 0.2 q 0,0.3 1.2,1.6 1.3,1.2 -7,1.7 l -8.2,0.5 -3.5,0.2 q -3.5,0.3 -5,1 -1.5,0.8 -1.7,1.8 -0.3,1 -1.6,1.5 -1.2,0.5 -1.2,1.5 0,1 -2.5,1.8 -2.5,0.7 -9,1.2 -6.5,0.5 -11,-1 l -4.5,-1.5 h -4 l -1.5,0.5 -1.5,0.5 0.2,0.3 0.3,0.2 0.3,0.2 0.2,0.3 -1,0.5 -1,0.5 1,0.5 1,0.5 1,0.3 q 1,0.2 1,1.2 v 1 h -0.2 q -0.3,0 1.2,3.5 1.5,3.5 1.5,12.5 0,9 -4.3,15 -4.2,6 -6,7 -1.7,1 -7.4,4.2 -5.8,3.3 -8.8,6.6 -3,3.2 -6.5,5.2 -3.5,2 -3.5,3 0,1 -5,2.8 -5,1.7 -10.5,2.2 -5.5,0.5 -13,-0.5 -7.5,-1 -8.5,-3.3 -1,-2.2 -2.5,-2.4 -1.5,-0.3 -2.5,-3 -1,-2.8 -2,-2.8 -1,0 -1.8,-3 -0.7,-3 -2,-4 -1.2,-1 -1.2,-2 0,-1 -3,-1.5 -3,-0.5 -3,-1.5 0,-1 -4,-2.2 -4,-1.3 -3.5,-2.6 0.5,-1.2 -0.5,-1.4 -1,-0.3 -5,-0.8 -4,-0.5 -10,-3 -6,-2.5 -18,-2.5 h -12 l -1,0.3 -1,0.2 v -2 l 1,-0.2 1,-0.3 1,-0.5 1,-0.5 0.2,-0.3 0.3,-0.2 0.3,-0.2 0.2,-0.3 0.2,-0.3 0.3,-0.2 0.3,-0.2 0.2,-0.3 0.2,-0.3 0.3,-0.2 0.3,-0.2 0.2,-0.3 6.5,-3 q 6.5,-3 16.5,-4 10,-1 11,-1.5 l 1,-0.5 1,-0.3 1,-0.2 0.2,-1 0.3,-1 0.3,-0.2 0.2,-0.3 0.2,-0.3 0.3,-0.2 0.3,-0.2 0.2,-0.3 -0.2,-0.3 q -0.3,-0.2 -1.3,-2.7 -1,-2.5 -2.5,-4.5 l -1.5,-2 v -3 l 0.3,-0.2 0.2,-0.3 13.5,-0.3 q 13.5,-0.2 14,-1.4 0.5,-1.3 4.5,-3.3 4,-2 5,-5 1,-3 3.2,-6.3 2.3,-3.2 5,-6 2.8,-2.7 11.3,-3.7 8.5,-1 19,-3 10.5,-2 18,-1.5 7.5,0.5 12,3 4.5,2.5 13.5,4.5 9,2 11.5,2.5 z"
         fill="#f1af8a"
         stroke="#f1af8a"
         id="path1370" /><path
         d="M 811.8,0.5 812,0 h 88 v 0.2 q 0,0.3 0.2,0.6 0.3,0.2 -1,3.4 -1.2,3.3 -5.4,9.6 -4.3,6.2 -8.3,14.2 -4,8 -12.7,22 -8.8,14 -13.3,17.8 -4.5,3.7 -9.5,7.4 -5,3.8 -7.8,9.8 -2.7,6 -4.4,7.5 -1.8,1.5 -2.6,3 -0.7,1.5 -1.4,5 -0.8,3.5 0.2,3.7 1,0.3 0,0.6 -1,0.2 -1.2,1.2 -0.3,1 -0.6,5 -0.2,4 -1.2,4.2 -1,0.3 -2,2 -1,1.8 -3,1 -2,-0.7 -5.5,-0.2 -3.5,0.5 -4.5,-0.5 -1,-1 -5,0 -4,1 -5.2,2.3 -1.3,1.2 -2.3,5.2 -1,4 -2,5.5 -1,1.5 -5.3,5 -4.2,3.5 -5.4,8.5 -1.3,5 -3.3,8.5 -2,3.5 -5.3,5.5 -3.2,2 -4,4.5 -0.7,2.5 -3.2,7.5 -2.5,5 -4,10.5 -1.5,5.5 -4,10.5 -2.5,5 -4.2,15 l -1.8,10 h -0.2 q -0.3,0 -3.3,6 l -3,6 -0.3,0.2 -0.2,0.3 -1,0.5 -1,0.5 -0.2,0.3 -0.3,0.2 -0.3,0.2 -0.2,0.3 -0.2,0.3 -0.3,0.2 -0.3,0.2 -0.2,0.3 -0.2,0.3 -0.3,0.2 -0.3,0.2 -0.2,0.3 -0.2,0.3 -0.3,0.2 -0.3,-0.2 -0.2,-0.3 -1.5,-0.3 -1.5,-0.2 v -7 q 0,-7 -1,-7.2 -1,-0.3 -1.8,-8.6 Q 741.5,201 740,195 l -1.5,-6 -0.3,-0.2 -0.2,-0.3 -0.2,-0.3 -0.3,-0.2 -0.3,-0.2 -0.2,-0.3 -0.2,-0.3 -0.3,-0.2 -0.5,-1 -0.5,-1 v -2 l 0.3,-0.2 0.2,-0.3 h -3 l -0.2,0.3 -0.3,0.2 -0.5,1 -0.5,1 0.5,3 q 0.5,3 0.5,7.5 v 4.5 l -0.3,-0.2 -0.2,-0.3 -0.2,-0.3 -0.3,-0.2 -0.3,-0.2 -0.2,-0.3 -0.2,-0.3 -0.3,-0.2 -0.3,-1 q -0.2,-1 -1.2,-1 -1,0 -1.2,1.5 -0.3,1.5 -1.8,-1 -1.5,-2.5 -2.2,-1 -0.8,1.5 -4.3,3.3 -3.5,1.7 -5.3,19.4 l -1.7,17.8 -0.3,0.2 -0.2,0.3 -0.2,0.3 -0.3,0.2 -0.3,-0.2 -0.2,-0.3 -1.5,-0.5 -1.5,-0.5 -0.2,-0.3 -0.3,-0.2 H 707 l 0.2,-10.5 q 0.3,-10.5 4,-25 L 715,185 v -0.5 l 0.2,-0.3 0.3,-0.2 8,-19.5 q 8,-19.5 14.7,-32.3 6.8,-12.7 21,-37.4 14.3,-24.8 33.3,-59.3 19,-34.5 19.3,-35 z"
         fill="#4a2312"
         stroke="#4a2312"
         id="path1372" /><path
         d="M 321.5,224.2 322,224 h 1 q 1,0 0.8,4 -0.3,4 -1.8,7 -1.5,3 -3,5 -1.5,2 -1.2,2.2 0.2,0.3 -0.8,0.8 l -1,0.5 1.8,-0.3 q 1.7,-0.2 1.2,1.8 -0.5,2 2,3.5 2.5,1.5 2.2,3 -0.2,1.5 -3.4,4.5 -3.3,3 -3.6,4.5 L 316,262 h 2 l 0.2,2.5 0.3,2.5 0.3,0.2 0.2,0.3 1,0.5 1,0.5 h 2 l 0.2,-0.3 0.3,-0.2 0.7,-2.8 q 0.8,-2.7 1.8,-3 1,-0.2 1.2,1.3 0.3,1.5 0.6,1.5 h 0.2 v 5 l 0.2,1 q 0.3,1 1,2.5 0.8,1.5 -2.7,1.7 -3.5,0.3 -4,2 -0.5,1.8 0.5,2 1,0.3 -1,3 -2,2.8 -5.5,3.6 -3.5,0.7 -7.5,0.7 -4,0 -5,1 -1,1 -2.5,-1 l -1.5,-2 -0.2,-0.3 -0.3,-0.2 -0.3,-0.2 -0.2,-0.3 -0.2,-0.3 -0.3,-0.2 v 2 l -0.5,3.5 q -0.5,3.5 -1,4 -0.5,0.5 -0.8,2 l -0.2,1.5 -1.5,0.2 -1.5,0.3 h -1 l -0.2,-0.3 q -0.3,-0.2 -2.6,-2 l -2.2,-1.7 h -4 l 0.2,0.3 0.3,0.2 0.3,0.2 0.2,0.3 0.2,0.3 0.3,0.2 0.3,0.2 0.2,0.3 0.2,0.3 0.3,0.2 0.3,0.2 0.2,0.3 1.8,2.3 q 1.7,2.2 1.7,3.7 v 1.5 l -0.3,0.2 -0.2,0.3 -1,0.5 -1,0.5 v 0.5 l -1,0.2 -1,0.3 0.2,0.3 0.3,0.2 0.3,0.2 0.2,0.3 -0.2,0.3 -0.3,0.2 -0.3,0.2 -0.2,0.3 h -3 l 0.2,-0.3 0.3,-0.2 0.3,-0.2 0.2,-0.3 -0.2,-0.3 -0.3,-0.2 -0.3,-0.2 -0.2,-0.3 -2.5,-0.5 q -2.5,-0.5 -8.3,-6.8 -5.7,-6.2 -6,-5.2 -0.2,1 -1,0.5 -0.7,-0.5 -2,-0.7 -1.2,-0.3 -4.2,1.4 l -3,1.8 -0.5,-0.2 q -0.5,-0.3 -2,-2.6 -1.5,-2.2 -3,-2 -1.5,0.3 -5.5,3 -4,2.8 -3.5,1.6 0.5,-1.3 -2.5,-1.3 -3,0 -6,2 -3,2 -9,3.5 -6,1.5 -6.2,-0.2 -0.3,-1.8 -2.6,-2.8 -2.2,-1 -2,-3 0.3,-2 -6.2,-5.5 -6.5,-3.5 -7.8,-4.7 -1.2,-1.3 -2.7,-3 -1.5,-1.8 -6.5,-3 l -5,-1.3 h -3 l 1.2,1.3 q 1.3,1.2 1.6,2.7 l 0.2,1.5 h -2 l -1.5,-0.2 -1.5,-0.3 -1.5,-0.5 q -1.5,-0.5 -3,-1.2 L 173,279 h 1 q 1,0 0.5,-1.2 l -0.5,-1.3 -1,-0.5 q -1,-0.5 -3,-2 l -2,-1.5 -1,-0.3 -1,-0.2 0.2,-1 0.3,-1 0.3,-1 q 0.2,-1 2.7,-1 2.5,0 -0.5,-4.8 l -3,-4.7 -0.2,-0.3 -0.3,-0.2 -0.3,-0.2 -0.2,-0.3 -0.2,-0.3 -0.3,-0.2 -0.3,-0.2 -0.2,-0.3 -1,-0.5 -1,-0.5 -0.2,-0.3 -0.3,-0.2 -0.3,-1 -0.2,-1 1,0.2 1,0.3 0.2,0.3 0.3,0.2 0.3,0.2 0.2,0.3 1,0.5 1,0.5 1,0.5 1,0.5 7,4.5 q 7,4.5 10.5,4.8 3.5,0.2 3.5,-0.8 0,-1 6,-2.2 6,-1.3 20,-1.8 14,-0.5 26,-2 12,-1.5 14.5,-2 l 2.5,-0.5 1.5,-0.5 1.5,-0.5 0.2,-0.3 0.3,-0.2 0.3,-0.2 0.2,-0.3 0.2,-0.3 0.3,-0.2 0.3,-0.2 0.2,-0.3 0.2,-0.3 0.3,-0.2 0.3,-0.2 0.2,-0.3 0.2,-0.3 0.3,-0.2 0.3,-0.5 0.2,-0.5 8,-1.2 q 8,-1.3 13,-1.8 5,-0.5 11.5,-2.8 6.5,-2.2 7,-4 0.5,-1.7 4.5,-3 4,-1.2 7.5,-5 3.5,-3.7 3,-5.7 -0.5,-2 0.5,-2.5 1,-0.5 1.5,-0.8 z m -144.3,54 0.3,-0.2 0.3,0.2 0.2,0.3 h -0.5 q -0.5,0 -0.3,-0.3 z M 280,290 l -1,-0.5 1.5,-0.3 q 1.5,-0.2 1.3,0.8 l -0.3,1 -0.3,-0.2 -0.2,-0.3 z"
         fill="#95644a"
         stroke="#95644a"
         id="path1374" /><path
         d="m 826,480.2 1,-0.2 h 1 l -0.2,0.5 -0.3,0.5 v 16 q 0,16 -2.7,23.2 -2.8,7.3 -4.6,11 -1.7,3.8 -2,9.8 l -0.2,6 h -3.2 q -3.3,0 -7.8,7 -4.5,7 -6,9 -1.5,2 -1.5,5.5 0,3.5 -1.7,6.7 -1.8,3.3 -2.8,3.6 -1,0.2 -3.5,3 -2.5,2.7 -5,4.2 -2.5,1.5 -2.7,3.2 -0.3,1.8 -1,3.3 -0.8,1.5 0.2,1.5 1,0 -0.2,7 -1.3,7 -4.6,11.5 -3.2,4.5 -1.4,3.5 1.7,-1 1.7,0.5 0,1.5 -0.5,2.5 l -0.5,1 -0.3,1 q -0.2,1 -3.2,2.2 -3,1.3 -6.2,4 -3.3,2.8 -11,7.6 -7.8,4.7 -13.8,12.7 -6,8 -8.2,13.7 -2.3,5.8 -5,8.6 -2.8,2.7 -7.3,7.2 -4.5,4.5 -6.5,8.2 -2,3.8 -4,4.3 -2,0.5 -2.2,1.5 -0.3,1 -2.6,2.5 -2.2,1.5 -2.2,3.5 0,2 -1.5,2.2 -1.5,0.3 -3.7,3.6 l -2.3,3.2 -0.3,0.2 -0.2,0.3 -0.2,0.3 -0.3,0.2 -0.3,0.2 -0.2,0.3 -1.5,0.5 q -1.5,0.5 -1.5,0.8 v 0.2 h -0.2 q -0.3,0 -0.6,0.5 L 692,710 h -0.2 q -0.3,0 -0.6,0.5 l -0.2,0.5 -0.5,-0.2 q -0.5,-0.3 -4.5,0.7 -4,1 -7.5,4.5 -3.5,3.5 -7,4 -3.5,0.5 -6.7,3.2 l -3.3,2.8 -0.3,0.2 -0.2,0.3 -0.2,0.3 -0.3,0.2 -0.3,0.2 -0.2,0.3 -0.2,0.3 -0.3,0.2 -0.3,0.2 -0.2,0.3 -0.2,0.3 -0.3,0.2 -0.3,0.2 -0.2,0.3 -0.2,0.3 -0.3,0.2 -0.3,0.2 -0.2,0.3 -0.2,0.3 -0.3,0.2 -0.3,0.2 -0.2,0.3 -0.2,0.3 -0.3,0.2 -0.3,0.2 -0.2,0.3 h 2 l 1,-0.5 1,-0.5 1.5,-1 q 1.5,-1 4.5,-1 h 3 l 0.2,0.3 0.3,0.2 v 5 l -0.3,0.2 -0.2,0.3 -0.2,0.3 -0.3,0.2 -0.3,0.2 -0.2,0.3 -0.2,0.3 -0.3,0.2 -8.5,9.5 q -8.5,9.5 -8.8,9.7 l -0.2,0.3 h -1 l -0.2,-0.3 -0.3,-0.2 -0.3,-0.2 -0.2,-0.3 -0.2,-0.3 Q 646.5,755 646,757 l -0.5,2 H 645 l -0.2,-0.5 -0.3,-0.5 -0.3,-0.2 -0.2,-0.3 -0.2,-0.3 q -0.3,-0.2 -2.3,-5.2 -2,-5 -12.3,-5.8 -10.2,-0.7 -8.7,-1.7 1.5,-1 -10,-1.5 L 599,742.5 h -2 l -0.2,-0.3 -0.3,-0.2 -0.3,-0.2 -0.2,-0.3 0.2,-0.3 0.3,-0.2 0.3,-0.2 0.2,-0.3 0.2,-0.3 0.3,-0.2 0.3,-0.2 0.2,-0.3 V 739 l 0.5,-0.2 0.5,-0.3 1.5,-0.5 1.5,-0.5 15.5,-4.5 q 15.5,-4.5 25,-10 9.5,-5.5 11.7,-6.8 2.3,-1.2 12,-13 9.8,-11.7 20,-20 10.3,-8.2 21.3,-19.2 11,-11 16.5,-20 5.5,-9 7.5,-24 2,-15 7.7,-29.2 5.8,-14.3 16.8,-32.8 11,-18.5 20.8,-34.2 9.7,-15.8 18,-24 8.2,-8.3 19.2,-13.8 11,-5.5 12,-5.8 z"
         fill="#633421"
         stroke="#633421"
         id="path1376" /><path
         d="m 511,148 1,0.5 0.5,0.3 0.5,0.2 0.5,0.2 q 0.5,0.3 1.5,0.8 l 1,0.5 11.2,5.3 q 11.3,5.2 18,7 6.8,1.7 6,2.4 -0.7,0.8 3.3,3.8 4,3 4.7,4.2 0.8,1.3 1.8,1.8 l 1,0.5 1,0.5 1,0.5 1.5,0.5 1.5,0.5 0.2,0.3 0.3,0.2 0.3,0.2 0.2,0.3 h -12.5 q -7.5,0 -8,0.5 -0.5,0.5 -11,0.5 H 526 l -0.2,0.3 -0.3,0.2 v 2 l 0.3,0.2 0.2,0.3 0.2,0.3 0.3,0.2 0.3,0.2 0.2,0.3 0.2,0.3 0.3,0.2 0.3,0.2 0.2,0.3 0.2,0.3 0.3,0.2 0.3,0.2 0.2,0.3 0.2,0.3 0.3,0.2 0.3,0.2 0.2,0.3 10,9.3 q 10,9.2 12,13.2 2,4 6.5,6.8 4.5,2.7 11.5,4.2 7,1.5 8,1 1,-0.5 2.5,0 1.5,0.5 6.7,4.2 5.3,3.8 7.6,7.8 2.2,4 3.2,4 1,0 1.2,1 l 0.3,1 0.3,0.2 0.2,0.3 0.2,0.3 0.3,0.2 0.3,0.2 0.2,0.3 0.2,0.3 0.3,0.2 0.3,-0.2 0.2,-0.3 1,-0.3 1,-0.2 v -2.5 q 0,-2.5 1,-2.5 1,0 1,-1 0,-1 5.8,0 5.7,1 10,6.8 4.2,5.7 5.2,6 1,0.2 1,1.2 0,1 3.8,4 3.7,3 7,5.8 3.2,2.7 9.7,6.2 6.5,3.5 7.5,4 l 1,0.5 1,0.5 1,0.5 1,0.5 1,0.5 1,0.3 1,0.2 v 0.2 q 0,0.3 0.5,0.6 l 0.5,0.2 16.5,17.2 q 16.5,17.3 17.5,17.6 1,0.2 2.8,6.7 1.7,6.5 8,13.7 6.2,7.3 11,11.6 4.7,4.2 5,4.7 l 0.2,0.5 v 0.2 q 0,0.3 0.5,0.6 l 0.5,0.2 v 0.2 q 0,0.3 0.5,0.6 l 0.5,0.2 v 0.2 q 0,0.3 0.5,0.6 l 0.5,0.2 v 0.2 q 0,0.3 0.5,0.6 l 0.5,0.2 v 0.2 q 0,0.3 0.5,0.6 l 0.5,0.2 v 0.2 q 0,0.3 0.5,0.6 l 0.5,0.2 v 0.2 q 0,0.3 0.2,0.6 l 0.3,0.2 0.3,0.2 0.2,0.3 0.2,0.3 0.3,0.2 0.3,0.2 0.2,0.3 0.2,0.3 0.3,0.2 0.3,0.2 0.2,0.3 0.2,0.3 0.3,0.2 0.3,0.2 0.2,0.3 0.2,0.3 0.3,0.2 0.3,0.2 0.2,0.3 0.2,0.3 0.3,0.2 0.3,1 0.2,1 -1,-0.2 -1,-0.3 -1.5,-0.5 -1.5,-0.5 -1,-0.5 -1,-0.5 -1,-0.5 -1,-0.5 h -2 l 0.2,0.3 0.3,0.2 1.7,1.5 q 1.8,1.5 1.6,2.5 l -0.3,1 -0.3,0.2 -0.2,0.3 -0.2,0.3 -0.3,0.2 -0.3,-0.2 -0.2,-0.3 h -3 v 0.5 l -0.5,-0.2 -0.5,-0.3 -0.2,-0.3 -0.3,-0.2 -0.5,-1 -0.5,-1 -0.5,-1 q -0.5,-1 -3,-6 -2.5,-5 -11.8,-12.8 -9.2,-7.7 -17.4,-17.4 -8.3,-9.8 -21.3,-23.3 -13,-13.5 -22.7,-19.7 -9.8,-6.3 -17.3,-7.3 -7.5,-1 -17.5,-3 -10,-2 -23,-7.5 -13,-5.5 -46.5,-25.5 Q 508,214.5 500.2,206.8 492.5,199 486,186 479.5,173 475.8,173 H 472 v -0.5 l 0.2,-0.3 0.3,-0.2 0.3,-0.2 0.2,-0.3 0.2,-0.3 0.3,-0.2 v -1 l -0.3,-0.2 -0.2,-0.3 -1.5,-0.5 -1.5,-0.5 0.2,-0.3 0.3,-0.2 0.3,-0.5 0.2,-0.5 h 0.5 l 0.3,-0.5 0.2,-0.5 h 0.5 l 0.3,-0.2 0.2,-0.3 13,-5 q 13,-5 17,-9 4,-4 5.5,-4 1.5,0 2.5,0.5 z"
         fill="#915b3e"
         stroke="#915b3e"
         id="path1378" /><path
         d="m 732.8,182.8 0.2,-0.3 h 3 l -0.2,0.3 -0.3,0.2 v 2 l 0.5,1 0.5,1 0.3,0.2 0.2,0.3 0.2,0.3 0.3,0.2 0.3,0.2 0.2,0.3 0.2,0.3 0.3,0.2 1.5,6 q 1.5,6 2.2,14.2 0.8,8.3 1.8,8.6 1,0.2 1,7.2 v 7 l 1.5,0.2 1.5,0.3 0.2,0.3 0.3,0.2 0.3,-0.2 0.2,-0.3 0.2,-0.3 0.3,-0.2 0.3,-0.2 0.2,-0.3 0.2,-0.3 0.3,-0.2 0.3,-0.2 0.2,-0.3 0.2,-0.3 0.3,-0.2 0.3,-0.2 0.2,-0.3 1,-0.5 1,-0.5 0.2,-0.3 0.3,-0.2 3,-6 q 3,-6 3.3,-6 h 0.2 l -0.8,6 q -0.7,6 -1.2,8.5 l -0.5,2.5 -0.5,1 -0.5,1 v 2 l 0.3,0.5 0.2,0.5 0.2,10 q 0.3,10 3.8,16 3.5,6 4,10.5 0.5,4.5 0.8,3.5 0.2,-1 3.7,0.5 3.5,1.5 4,2.7 0.5,1.3 1.5,1.6 1,0.2 1.8,5.7 0.7,5.5 0.7,8 v 2.5 l 0.5,1 0.5,1 1.3,-2 q 1.2,-2 2.2,-2 1,0 0.5,3.5 -0.5,3.5 4.5,3.5 5,0 7.5,3.2 2.5,3.3 3.5,3.6 1,0.2 1.5,-0.6 0.5,-0.7 5.3,7 4.7,7.8 6.2,13.3 1.5,5.5 1.5,11 0,5.5 -0.3,9.5 -0.2,4 0.8,4 1,0 0.5,2.2 -0.5,2.3 -0.3,6.6 0.3,4.2 1.8,7.2 1.5,3 3.8,6.5 2.2,3.5 3.4,4 1.3,0.5 2.8,3.5 1.5,3 1.2,7 -0.2,4 0.8,4 1,0 2.5,5.2 1.5,5.3 2.7,8 1.3,2.8 1.6,5.3 0.2,2.5 1.2,2.5 1,0 1.5,1.2 0.5,1.3 3,1.3 2.5,0 5.5,-0.5 l 3,-0.5 1.5,-0.5 1.5,-0.5 1,-0.5 1,-0.5 h 2 l -0.2,0.3 -0.3,0.2 -0.3,0.2 -0.2,0.3 -0.2,0.3 -0.3,0.2 -0.3,0.2 -0.2,0.3 -1,0.5 -1,0.5 -0.2,0.3 -0.3,0.2 -0.3,0.2 -0.2,0.3 -1,0.5 q -1,0.5 -2.8,2.2 -1.7,1.8 -2.4,1.6 l -0.8,-0.3 -0.2,0.3 -0.3,0.2 v 2 l 1.5,3 q 1.5,3 1.8,3.2 0.2,0.3 2.7,0.8 l 2.5,0.5 0.2,0.3 0.3,0.2 0.3,0.2 0.2,0.3 -1.8,1.3 q -1.7,1.2 -3.7,6.2 -2,5 -1.3,11.8 0.8,6.7 -1,9 -1.7,2.2 -1.4,3.4 0.2,1.3 0.4,1.6 l 0.3,0.2 0.3,0.2 0.2,0.3 0.2,0.3 0.3,0.2 0.3,0.2 0.2,0.3 0.2,0.3 0.3,0.2 0.3,0.2 0.2,0.3 0.2,0.3 0.3,0.2 0.3,0.2 0.2,0.3 1,0.5 1,0.5 0.2,0.3 0.3,0.2 0.3,0.2 0.2,0.3 0.5,0.3 0.5,0.2 -0.8,1 q -0.7,1 -1.2,3 l -0.5,2 -0.3,1.5 -0.2,1.5 h -2 l -0.2,1.5 -0.3,1.5 -0.5,-1 -0.5,-1 -0.5,1 -0.5,1 -0.5,-1.5 q -0.5,-1.5 -2,-4 l -1.5,-2.5 -0.3,-0.2 -0.2,-0.3 -0.2,-0.3 -0.3,-0.2 -0.5,-1 -0.5,-1 -0.3,0.2 -0.2,0.3 -0.2,0.3 -0.3,0.2 -0.3,0.2 -0.2,0.3 -0.2,0.3 -0.3,0.2 -0.5,4 -0.5,4 -0.3,0.2 -0.2,0.3 -1,0.3 -1,0.2 -0.2,-1 -0.3,-1 -0.5,-1 -0.5,-1 -0.3,-0.2 -0.2,-0.3 -0.2,-0.3 -0.3,-0.2 -0.3,-0.2 -0.2,-0.3 -0.2,-0.3 -0.3,-0.2 -0.3,-0.2 -0.2,-0.3 -0.2,-0.3 -0.3,-0.2 H 827 l -0.2,-3.5 q -0.3,-3.5 -3.8,-12 -3.5,-8.5 -6,-22.5 -2.5,-14 -6,-28.5 l -3.5,-14.5 -0.3,-1.5 -0.2,-1.5 -0.2,-0.5 Q 806.5,395 806.2,395 H 806 l -0.2,-1.5 Q 805.5,392 801,383 q -4.5,-9 -8.2,-12.8 -3.8,-3.7 -13.3,-10.4 l -9.5,-6.8 -0.2,-0.5 -0.3,-0.5 -0.3,-0.2 -0.2,-0.3 -0.2,-0.3 -0.3,-0.2 -0.3,-0.2 -0.2,-0.3 -0.2,-0.3 -0.3,-0.2 -0.3,-0.2 q -0.2,-0.3 -5.2,-6.3 -5,-6 -22.8,-36.7 -17.7,-30.8 -21.7,-35.8 -4,-5 -5,-10.5 -1,-5.5 -3.3,-15.5 L 707,235 h 0.5 l 0.3,0.2 0.2,0.3 1.5,0.5 1.5,0.5 0.2,0.3 0.3,0.2 0.3,-0.2 0.2,-0.3 0.2,-0.3 0.3,-0.2 0.5,-9 q 0.5,-9 2,-20 l 1.5,-11 1.3,1.2 q 1.2,1.3 3.2,0.6 2,-0.8 2.8,-2.3 0.7,-1.5 2.2,1 1.5,2.5 1.8,1 0.2,-1.5 1.2,-1.5 1,0 1.2,1 l 0.3,1 0.3,0.2 0.2,0.3 0.2,0.3 0.3,0.2 0.3,0.2 0.2,0.3 0.2,0.3 0.3,0.2 v -4.5 q 0,-4.5 -0.5,-7.5 l -0.5,-3 0.5,-1 0.5,-1 z"
         fill="#5c2b19"
         stroke="#5c2b19"
         id="path1380" /><path
         d="m 98.2,514.2 0.3,-0.2 0.3,0.2 0.2,0.3 0.2,0.3 0.3,0.2 0.5,1 0.5,1 0.3,0.2 0.2,0.3 0.2,0.3 q 0.3,0.2 0.6,-0.8 l 0.2,-1 1,-0.2 1,-0.3 0.2,-0.3 0.3,-0.2 0.3,-0.2 0.2,-0.3 0.2,-0.3 0.3,-0.2 1.5,4 q 1.5,4 2.2,8.8 0.8,4.7 1.6,4 0.7,-0.8 2.7,4.2 2,5 3.3,13.8 1.2,8.7 1.4,9 0.3,0.2 0.8,1.2 l 0.5,1 0.3,3.5 0.2,3.5 -1.2,2 q -1.3,2 -2,16.5 -0.8,14.5 -1.8,14.5 -1,0 -2,2.8 -1,2.7 -1.5,6.7 -0.5,4 2.5,6.7 3,2.8 3.5,9.8 0.5,7 -0.5,7.2 -1,0.3 0.5,0.6 1.5,0.2 1,1.4 -0.5,1.3 -2,1.6 -1.5,0.2 -2.3,6.2 -0.7,6 0.8,12 1.5,6 2.5,7 1,1 1.3,3 0.2,2 1.2,2 1,0 0.5,1.2 -0.5,1.3 0.5,1.6 1,0.2 0.8,1.7 -0.3,1.5 0.4,2.7 0.8,1.3 1.8,3.6 1,2.2 2,2.2 h 1 l 0.2,1.5 0.3,1.5 0.3,0.2 0.2,0.3 0.2,0.3 0.3,0.2 0.3,0.5 0.2,0.5 v 3 h -1 q -1,0 -1.2,2 -0.3,2 -0.8,0.5 -0.5,-1.5 -1.2,0.3 -0.8,1.7 -1.8,2 -1,0.2 -1,1.2 0,1 -1.8,0.5 -1.7,-0.5 -2.4,0.3 -0.8,0.7 -1.8,0.2 l -1,-0.5 -0.2,-0.3 -0.3,-0.2 -0.3,-0.2 -0.2,-0.3 -0.2,-0.3 -0.3,-0.2 -0.5,1 -0.5,1 H 112 l -0.5,-0.2 Q 111,694.5 94.8,661.8 78.5,629 78,623 q -0.5,-6 3,-23.5 3.5,-17.5 3.5,-41 0,-23.5 -2.3,-24.5 l -2.2,-1 2.5,-0.2 q 2.5,-0.3 3.3,-7.6 L 86.5,518 H 87 l 0.2,4.5 0.3,4.5 0.5,2 0.5,2 0.3,-0.2 0.2,-0.3 0.2,-0.3 0.3,-0.2 0.5,-1.5 0.5,-1.5 0.5,-1.5 q 0.5,-1.5 3.5,-6 l 3,-4.5 0.3,-0.2 0.2,-0.3 z"
         fill="#ecab8a"
         stroke="#ecab8a"
         id="path1382" /><path
         d="m 269.5,649.8 0.5,0.2 v 0.2 q 0,0.3 0.5,0.6 l 0.5,0.2 v 0.2 q 0,0.3 0.5,0.6 l 0.5,0.2 h 0.5 l 12,12 q 12,12 15,17 3,5 3.3,6.8 0.2,1.7 1.7,4 1.5,2.2 7.3,7.2 5.7,5 6,5.5 l 0.2,0.5 2.2,3.5 q 2.3,3.5 2.6,3.7 l 0.2,0.3 3.8,4.7 q 3.7,4.8 4.2,5.8 l 0.5,1 0.3,0.2 0.2,0.3 0.2,0.3 0.3,0.2 0.3,0.2 0.2,0.3 0.2,0.3 0.3,0.2 v 2 l -0.3,-0.2 -0.2,-0.3 -0.2,-0.3 q -0.3,-0.2 -1.6,-1.4 l -1.2,-1.3 -0.2,-0.3 -0.3,-0.2 v 2 l 0.5,1 0.5,1 0.3,0.2 0.2,0.3 3,3 q 3,3 5.2,4.3 2.3,1.2 4.6,4 2.2,2.7 5.4,7.4 3.3,4.8 3.6,6.6 0.2,1.7 2.2,3.2 2,1.5 1.2,2.2 -0.7,0.8 0.6,1.3 1.2,0.5 2.2,2.7 1,2.3 2.2,3 1.3,0.8 4.3,7.3 3,6.5 3.3,7.7 0.2,1.3 -2,3 -2.3,1.8 -3.6,3.6 -1.2,1.7 -1.4,2 l -0.3,0.2 -0.3,0.2 -0.2,0.3 -0.2,0.3 -0.3,0.2 -0.3,1.5 -0.2,1.5 1,0.2 1,0.3 7.2,3.3 q 7.3,3.2 8.3,6.7 1,3.5 -0.7,5 -1.8,1.5 -2,5.5 -0.3,4 -0.8,4.5 -0.5,0.5 -0.8,0.7 l -0.2,0.3 -0.2,0.3 -0.3,0.2 -0.3,0.2 -0.2,0.3 -0.2,0.3 -0.3,0.2 -0.3,0.2 -0.2,0.3 -0.2,0.3 -0.3,0.2 -0.3,0.5 -0.2,0.5 v 1.2 q 0,1.3 -2.8,3.6 -2.7,2.2 -1.7,5.2 1,3 1.3,3.2 l 0.2,0.3 0.2,0.3 0.3,0.2 0.3,0.2 0.2,0.3 0.2,0.3 0.3,0.2 0.3,0.2 0.2,0.3 0.2,0.3 0.3,0.2 0.3,0.2 0.2,0.3 h -4 l -1,-0.5 -1,-0.5 -0.2,-0.3 -0.3,-0.2 -0.3,-0.2 -0.2,-0.3 -0.2,-0.3 -0.3,-0.2 -0.3,-0.2 -0.2,-0.3 -1.5,-0.5 q -1.5,-0.5 -3,-2.2 -1.5,-1.8 -3.5,-2.3 -2,-0.5 -5.2,-4.5 -3.3,-4 -13.8,-12.5 -10.5,-8.5 -13.2,-10 -2.8,-1.5 -2.3,-2.7 0.5,-1.3 -1.5,-3.3 -2,-2 -5,-5.3 -3,-3.2 -4,-3.2 -1,0 -2.2,-3.5 -1.3,-3.5 -4,-4 -2.8,-0.5 -3,-2 l -0.3,-1.5 -0.3,-0.2 -0.2,-0.3 -0.2,-0.3 -0.3,-0.2 -0.3,-0.2 -0.2,-0.3 -1.5,-0.5 -1.5,-0.5 -0.2,-0.3 -0.3,-0.2 -0.3,0.2 -0.2,0.3 -0.2,0.3 -0.3,0.2 -0.3,0.2 -0.2,0.3 -0.5,0.3 -0.5,0.2 0.2,-1.5 q 0.3,-1.5 0,-13 Q 292,753 293,753 q 1,0 1,-1 0,-1 1.8,-2 1.7,-1 1.2,-3 -0.5,-2 -6.8,-8.8 -6.2,-6.7 -13,-17 Q 270.5,711 258,688.5 245.5,666 239,658 l -6.5,-8 -0.3,-0.2 -0.2,-0.3 -0.2,-0.3 -0.3,-0.2 -0.3,-0.2 -0.2,-0.3 V 648 l -0.2,-0.5 -0.3,-0.5 H 230 l 0.2,-0.5 q 0.3,-0.5 0.8,-1 l 0.5,-0.5 0.3,-0.2 0.2,-0.3 0.2,-0.3 0.3,-0.2 0.3,-0.2 0.2,-0.3 V 643 l 6,-0.8 q 6,-0.7 14,1.3 8,2 12,4 4,2 4.5,2.3 z"
         fill="#f8bc93"
         stroke="#f8bc93"
         id="path1384" /><path
         d="M 167.2,531 163,518 h 1 q 1,0 2.2,2 1.3,2 1.8,3 l 0.5,1 0.3,-0.2 q 0.2,-0.3 0.7,-0.3 0.5,0 1.5,-0.7 l 1,-0.8 5.2,15.5 q 5.3,15.5 9.3,36.5 4,21 4.5,23 l 0.5,2 0.5,1.5 0.5,1.5 0.3,0.5 0.2,0.5 5,10.8 q 5,10.7 9,14.7 4,4 11.5,9.5 7.5,5.5 8.5,6 l 1,0.5 0.2,0.3 0.3,0.2 0.5,1 q 0.5,1 0.8,1 h 0.2 v 0.2 q 0,0.3 0.5,0.6 l 0.5,0.2 v 0.5 l 0.2,0.3 0.3,0.2 0.3,0.2 0.2,0.3 0.2,0.3 0.3,0.2 6.5,8 q 6.5,8 19,30.5 12.5,22.5 19.2,32.7 6.8,10.3 13,17 6.3,6.8 6.8,8.8 0.5,2 -1.2,3 -1.8,1 -1.8,2 0,1 -1,1 -1,0 -0.8,11.5 0.3,11.5 0,13 l -0.2,1.5 -2.8,13.5 q -2.7,13.5 -3.7,16.5 -1,3 -1.3,4 l -0.2,1 -4.2,11.5 Q 275.5,837 275.2,837 H 275 v -1.5 q 0,-1.5 -2,-0.7 -2,0.7 -6,-0.6 -4,-1.2 -4,-0.2 0,1 -1.5,1.2 -1.5,0.3 -4,2.8 l -2.5,2.5 -0.2,0.3 -0.3,0.2 -0.3,0.2 -0.2,0.3 -0.2,0.3 -0.3,0.2 -0.3,0.2 -0.2,0.3 -1,0.5 -1,0.5 -0.2,0.3 -0.3,0.2 -0.3,0.2 -0.2,0.3 -0.2,0.3 -0.3,0.2 -0.3,0.2 -0.2,0.3 h -1 V 845 l 0.2,-0.5 0.3,-0.5 0.3,-0.2 0.2,-0.3 0.2,-0.3 0.3,-0.2 0.5,-1 0.5,-1 0.3,-0.2 0.2,-0.3 0.2,-0.3 0.3,-0.2 0.3,-0.2 0.2,-0.3 0.2,-0.3 0.3,-0.2 0.3,-0.2 q 0.2,-0.3 0.4,-0.6 0.3,-0.2 0.8,-7.7 0.5,-7.5 -1,-17.5 -1.5,-10 -2,-9 -0.5,1 -1,-3 -0.5,-4 -2.2,-2.5 -1.8,1.5 -2.3,-3.3 -0.5,-4.7 -1.5,-7.4 l -1,-2.8 0.2,-2 q 0.3,-2 2.8,-13 2.5,-11 -0.5,-33 -3,-22 -4.7,-25.2 -1.8,-3.3 -3.3,-2.8 -1.5,0.5 -3.5,-2.2 -2,-2.8 -4.5,-3.6 -2.5,-0.7 -4.7,-5.4 -2.3,-4.8 -3.6,-5.3 -1.2,-0.5 -1.2,-5 0,-4.5 -1,-4.5 -1,0 -1,-2 0,-2 -2.5,-1.2 -2.5,0.7 -4,-1.3 -1.5,-2 -4.5,-1.7 -3,0.2 -3.2,-0.8 -0.3,-1 -2,-2 -1.8,-1 -2.6,-8 -0.7,-7 -2.2,-17 -1.5,-10 -7,-19.5 -5.5,-9.5 -9.2,-13 l -3.8,-3.5 -0.2,-0.5 q -0.3,-0.5 -1.3,-7.5 -1,-7 -4,-24.5 -3,-17.5 -2,-21 1,-3.5 1.5,-9.5 0.5,-6 -3.8,-19 z"
         fill="#894e32"
         stroke="#894e32"
         id="path1386" /><path
         d="M 35.5,139.8 36,140 v 0.2 q 0,0.3 0.5,0.6 L 37,141 v 0.2 q 0,0.3 0.5,0.6 L 38,142 v 0.2 q 0,0.3 0.5,0.6 L 39,143 v 0.2 q 0,0.3 0.5,0.6 L 40,144 v 0.2 q 0,0.3 0.5,0.6 l 0.5,0.2 0.2,0.5 q 0.3,0.5 0.6,0.7 l 0.2,0.3 9,9.5 q 9,9.5 10,9.8 1,0.2 4.5,4 3.5,3.7 16.7,17 13.3,13.2 22,22.4 8.8,9.3 10.6,9.6 1.7,0.2 7,4.4 5.2,4.3 13,9 7.7,4.8 16.4,12.6 8.8,7.7 9.3,8 l 0.5,0.2 v 0.2 q 0,0.3 0.5,0.6 l 0.5,0.2 v 0.2 q 0,0.3 0.5,0.6 l 0.5,0.2 0.2,0.5 q 0.3,0.5 0.6,0.7 l 0.2,0.3 0.2,0.3 0.3,0.2 0.3,0.2 0.2,0.3 0.2,0.3 0.3,0.2 0.3,0.2 0.2,0.3 3,4.7 q 3,4.8 0.5,4.8 -2.5,0 -2.7,1 l -0.3,1 -0.3,1 -0.2,1 1,0.2 1,0.3 2,1.5 q 2,1.5 3,2 l 1,0.5 1.5,0.5 1.5,0.5 0.2,0.3 0.3,0.2 0.3,0.2 0.2,0.3 -2.5,0.3 -2.5,0.2 -1.5,-0.2 -1.5,-0.3 -1,-0.5 q -1,-0.5 -15,-6.5 -14,-6 -29.8,-15.3 Q 108.5,247 86.2,234.8 64,222.5 32,204.8 L 0,187 v -72 h 1.2 q 1.3,0 4.8,2 3.5,2 9.8,7.2 6.2,5.3 12.7,10.3 6.5,5 7,5.3 z"
         fill="#8b5c40"
         stroke="#8b5c40"
         id="path1388" /><path
         d="m 790,670 1,-0.5 h 2 l 0.2,0.3 0.3,0.2 v 1 l -0.3,0.2 -0.2,0.3 0.2,0.3 0.3,0.2 v 2 l -0.3,0.2 q -0.2,0.3 -1.7,1.3 l -1.5,1 -0.2,0.3 -0.3,0.2 -0.3,0.2 -0.2,0.3 -0.2,0.3 -0.3,0.2 -0.3,0.2 -0.2,0.3 0.5,0.3 0.5,0.2 -1.5,4.8 q -1.5,4.7 -2,6.7 -0.5,2 0.5,2.3 1,0.2 0.2,4.7 -0.7,4.5 -1.4,5.3 -0.8,0.7 -1.8,1.2 l -1,0.5 -1,0.5 -1,0.5 4.8,1.3 q 4.7,1.2 16.4,4.4 11.8,3.3 12.8,3.6 l 1,0.2 h 0.5 l 0.3,0.2 0.2,0.3 4.5,1.5 q 4.5,1.5 4.5,1.8 v 0.2 h -1 q -1,0 -0.5,1.2 0.5,1.3 1.5,1.6 1,0.2 1,1.2 0,1 2,1.8 2,0.7 3,1 l 1,0.2 v 2 q 0,2 -3,2.8 -3,0.7 -1.2,3 1.7,2.2 4.4,4.7 2.8,2.5 2.8,3.5 v 1 l -2.5,-0.2 q -2.5,-0.3 -5.7,0.4 -3.3,0.8 -7,1.3 -3.8,0.5 -3.8,1.5 0,1 -4,1.2 -4,0.3 -8.5,1.8 l -4.5,1.5 0.2,0.3 0.3,0.2 0.3,0.2 0.2,0.3 -1,0.3 -1,0.2 0.2,1.5 0.3,1.5 0.3,0.2 0.2,0.3 0.2,0.3 0.3,0.2 0.3,0.2 0.2,0.3 0.2,0.3 0.3,0.2 0.3,0.2 0.2,0.3 0.2,0.3 0.3,0.2 0.3,0.2 0.2,0.3 1,0.3 q 1,0.2 1,1.2 v 1 l -1,-0.2 q -1,-0.3 -2,-0.8 l -1,-0.5 -1,-0.5 -1,-0.5 -2.5,-0.5 q -2.5,-0.5 -11.5,-2.5 -9,-2 -13.5,-4.5 -4.5,-2.5 -12,-3 -7.5,-0.5 -18,1.5 -10.5,2 -19,3 -8.5,1 -11.3,3.7 -2.7,2.8 -5,6 -2.2,3.3 -3.2,6.3 -1,3 -5,5 -4,2 -4.5,3.3 -0.5,1.2 -14,1.4 l -13.5,0.3 -0.2,0.3 -0.3,0.2 v 3 l 1.5,2 q 1.5,2 2.5,4.5 1,2.5 1.3,2.7 l 0.2,0.3 -0.2,0.3 -0.3,0.2 -0.3,0.2 -0.2,0.3 -0.2,0.3 -0.3,0.2 -0.3,1 -0.2,1 -1,0.2 -1,0.3 -1,0.5 q -1,0.5 -11,1.5 -10,1 -16.5,4 l -6.5,3 -0.2,0.3 -0.3,0.2 -0.3,0.2 -0.2,0.3 -0.2,0.3 -0.3,0.2 -0.3,0.2 -0.2,0.3 -0.2,0.3 -0.3,0.2 -0.3,0.2 -0.2,0.3 -1,0.5 -1,0.5 -0.2,0.3 q -0.3,0.2 -0.6,0.7 L 625,810 h -0.2 q -0.3,0 -0.6,0.5 l -0.2,0.5 -1,0.2 q -1,0.3 -6.2,3.6 -5.3,3.2 -12.6,4.4 -7.2,1.3 -18.7,3.3 -11.5,2 -26,2.3 l -14.5,0.2 -3.5,-0.2 -3.5,-0.3 1,-0.5 1,-0.5 -0.2,-0.3 -0.3,-0.2 -0.3,-0.2 -0.2,-0.3 0.2,-0.3 0.3,-0.2 0.3,-0.2 0.2,-0.3 V 821 l 0.5,-0.2 0.5,-0.3 V 820 l 0.5,-0.2 0.5,-0.3 1.5,-0.5 1.5,-0.5 24.5,-5 q 24.5,-5 26.5,-5.5 l 2,-0.5 2,-0.5 2,-0.5 1.5,-0.5 1.5,-0.5 0.2,-0.3 0.3,-0.2 0.3,-0.2 0.2,-0.3 -3,-0.5 -3,-0.5 -5,-0.5 q -5,-0.5 -13,0 -8,0.5 -35,0.5 H 520 V 803 l 4,-0.2 4,-0.3 2.5,-0.3 q 2.5,-0.2 3,-1.4 0.5,-1.3 4.5,-2.8 4,-1.5 15.2,-3.8 11.3,-2.2 20.6,-5.4 9.2,-3.3 14.2,-3.6 5,-0.2 5.8,-3.2 0.7,-3 2,-4.2 1.2,-1.3 15.7,-4.8 14.5,-3.5 22,-4 7.5,-0.5 10.5,-1 l 3,-0.5 0.2,-0.3 0.3,-0.2 v -1 q 0,-1 -1.3,-4 l -1.2,-3 h 0.5 l 0.5,-2 q 0.5,-2 0.8,-1.8 l 0.2,0.3 0.2,0.3 0.3,0.2 0.3,0.2 0.2,0.3 h 1 l 0.2,-0.3 q 0.3,-0.2 8.8,-9.7 l 8.5,-9.5 0.3,-0.2 0.2,-0.3 0.2,-0.3 0.3,-0.2 0.3,-0.2 0.2,-0.3 0.2,-0.3 0.3,-0.2 v -5 l -0.3,-0.2 -0.2,-0.3 h -3 q -3,0 -4.5,1 l -1.5,1 -1,0.5 -1,0.5 h -2 l 0.2,-0.3 0.3,-0.2 0.3,-0.2 0.2,-0.3 0.2,-0.3 0.3,-0.2 0.3,-0.2 0.2,-0.3 0.2,-0.3 0.3,-0.2 0.3,-0.2 0.2,-0.3 0.2,-0.3 0.3,-0.2 0.3,-0.2 0.2,-0.3 0.2,-0.3 0.3,-0.2 0.3,-0.2 0.2,-0.3 0.2,-0.3 0.3,-0.2 0.3,-0.2 0.2,-0.3 0.2,-0.3 0.3,-0.2 3.3,-2.8 q 3.2,-2.7 6.7,-3.2 3.5,-0.5 7,-4 3.5,-3.5 7.5,-4.5 4,-1 4.5,-0.7 l 0.5,0.2 0.5,-0.2 q 0.5,-0.3 0.5,-0.6 V 710 l 0.5,-0.2 q 0.5,-0.3 0.5,-0.6 V 709 l 0.5,0.2 q 0.5,0.3 2,0.3 h 1.5 l 0.2,-0.3 0.3,-0.2 0.3,0.2 0.2,0.3 1.2,-0.3 q 1.3,-0.2 3,-3.4 1.8,-3.3 2.8,-3.3 h 1 l 1.5,0.5 1.5,0.5 0.2,0.3 0.3,0.2 0.3,0.2 0.2,0.3 0.2,0.3 0.3,0.2 0.3,0.2 0.2,0.3 0.2,0.3 q 0.3,0.2 0.6,0.4 l 0.2,0.3 0.2,0.3 0.3,0.2 0.5,1.5 q 0.5,1.5 0.5,5.5 0,4 0,4.5 0,0.5 0.3,0.7 l 0.2,0.3 1,0.3 q 1,0.2 1,1.2 v 1 l 2,-0.2 2,-0.3 0.2,-0.3 0.3,-0.2 0.3,-0.2 0.2,-0.3 1,-0.5 q 1,-0.5 5,-1.8 4,-1.2 6,-4 2,-2.7 6,-5.7 4,-3 21,-17 17,-14 20,-16 3,-2 4.5,-2.5 l 1.5,-0.5 0.2,-0.3 0.3,-0.2 0.3,-0.2 0.2,-0.3 1,-0.5 1,-0.5 z"
         fill="#ae6949"
         stroke="#ae6949"
         id="path1390" /><path
         d="m 848.8,234 0.2,1 h 2 v -3 l 34.8,68 q 34.7,68 34.7,78.5 0,10.5 -3.5,29 -3.5,18.5 -3.5,24 0,5.5 0.3,20 l 0.2,14.5 1.5,0.2 1.5,0.3 v 0.5 h -3 l -0.5,0.2 -0.5,0.3 v 0.5 h -2 l -0.2,-1 -0.3,-1 -0.5,-1.5 -0.5,-1.5 -0.3,0.2 -0.2,0.3 -0.2,0.3 -0.3,0.2 -0.3,0.2 q -0.2,0.3 -1,1 l -0.7,0.8 v -3 q 0,-3 -0.5,-9.5 l -0.5,-6.5 -0.3,-1 -0.2,-1 -1,0.2 -1,0.3 -0.2,0.3 -0.3,0.2 -0.3,0.2 q -0.2,0.3 -0.7,1.6 -0.5,1.2 -2,1.2 -1.5,0 -1.7,1 -0.3,1 -1.3,-1 -1,-2 -2.7,-3 -1.8,-1 -2,0 l -0.3,1 v -3 q 0,-3 -0.5,-11 l -0.5,-8 -0.5,2 q -0.5,2 -2.8,3 -2.2,1 -2.2,-0.5 0,-1.5 -2.2,-2 -2.3,-0.5 -7.6,0 l -5.2,0.5 -0.2,4.5 -0.3,4.5 H 869 l -0.2,-9.5 q -0.3,-9.5 -0.6,-9.7 -0.2,-0.3 -5.4,-24 Q 857.5,370 857,365.5 856.5,361 856,337 l -0.5,-24 0.3,-0.2 0.2,-0.3 1,-0.3 1,-0.2 1.5,2.2 q 1.5,2.3 1.7,2 l 0.3,-0.2 0.3,-2.2 q 0.2,-2.3 1.2,-2.3 1,0 1.2,0.3 l 0.3,0.2 v -2.5 q 0,-2.5 -0.5,-3.5 -0.5,-1 -1.2,-6 -0.8,-5 -1.8,-5 -1,0 -1.8,-1.5 -0.7,-1.5 -0.2,-6.5 0.5,-5 -1.2,-6.2 -1.8,-1.3 -3.8,-5.6 -2,-4.2 -3,-4.4 -1,-0.3 -2.5,-4.6 -1.5,-4.2 -2.5,-4.4 -1,-0.3 -4,-5 l -3,-4.8 -0.2,-2.5 -0.3,-2.5 -0.5,-1 q -0.5,-1 -0.5,-1.5 0,-0.5 -1,-2 -1,-1.5 -0.7,-3.5 0.2,-2 1,-2.5 l 0.7,-0.5 -0.3,-1.5 -0.2,-1.5 3,0.2 q 3,0.3 5,1.3 2,1 2.8,-0.3 0.7,-1.2 1,-0.2 z"
         fill="#9d6141"
         stroke="#9d6141"
         id="path1392" /><path
         d="m 353,269 1,-0.5 0.2,-0.3 0.3,-0.2 v 2 l -0.5,1 -0.5,1 -0.3,0.2 -0.2,0.3 -1.2,1.7 q -1.3,1.8 -1.8,2.8 l -0.5,1 -0.3,1 -0.2,1 h 4 l -4.5,2 q -4.5,2 -13.3,13 -8.7,11 -21.7,22 -13,11 -22,20 -9,9 -15,19 -6,10 -8,25 -2,15 -7,27.5 -5,12.5 -16.3,31.7 -11.2,19.3 -22.2,36.8 -11,17.5 -18.5,24.5 -7.5,7 -19.7,13.3 -12.3,6.2 -12.6,6.7 l -0.2,0.5 -1,0.8 q -1,0.7 -1.5,0.7 -0.5,0 -0.7,0.3 l -0.3,0.2 -0.5,-1 q -0.5,-1 -2.2,-2.5 L 164,519 163.8,518.5 Q 163.5,518 163.2,518 H 163 l -0.2,-1 q -0.3,-1 -3.3,-7.5 -3,-6.5 -6.7,-10.3 l -3.8,-3.7 -1,-0.5 -1,-0.5 -0.2,-0.3 -0.3,-0.2 -0.3,-0.2 -0.2,-0.3 -0.2,-0.3 -0.3,-0.2 -0.3,-1 -0.2,-1 1,0.2 1,0.3 0.2,0.3 0.3,0.2 0.3,0.2 0.2,0.3 0.2,0.3 0.3,0.2 0.3,0.2 0.2,0.3 2.8,-0.3 q 2.7,-0.2 4.4,-3.4 1.8,-3.3 2.6,-3 0.7,0.2 0.4,1.2 -0.2,1 2.3,1 h 2.5 l 0.2,-1 q 0.3,-1 5.8,-12.5 l 5.5,-11.5 0.5,-1 0.5,-1 0.5,-1.5 0.5,-1.5 0.3,-0.2 0.2,-0.3 1,-0.3 1,-0.2 v 11 l 1.5,-0.2 1.5,-0.3 0.2,-0.3 0.3,-0.2 0.3,-0.2 0.2,-0.3 1,-0.3 1,-0.2 0.2,-1 0.3,-1 0.3,-0.2 q 0.2,-0.3 7,-7 6.7,-6.8 9.4,-9.6 2.8,-2.7 4.3,-6 1.5,-3.2 2.7,-3.7 1.3,-0.5 1.8,-5 0.5,-4.5 2.2,-7.5 1.8,-3 0.8,-3 -1,0 -0.8,-1 0.3,-1 4,-4.5 3.8,-3.5 4,-5.5 0.3,-2 2,-4.2 1.8,-2.3 1,-6 -0.7,-3.8 -2,-5 -1.2,-1.3 1,-5 2.3,-3.8 2.8,-7.3 0.5,-3.5 5.8,-8.3 5.2,-4.7 6.7,-6.4 1.5,-1.8 7.5,-6.3 l 6,-4.5 0.2,-0.5 q 0.3,-0.5 5.3,-8 5,-7.5 6.5,-13 1.5,-5.5 3,-8 1.5,-2.5 3.8,-4 2.2,-1.5 5.4,-5.5 3.3,-4 4.6,-7.5 1.2,-3.5 3.7,-3.5 2.5,0 2,-2 l -0.5,-2 v -0.5 l 1,-0.5 1,-0.5 0.2,-0.3 0.3,-0.2 v -1.5 q 0,-1.5 -1.7,-3.7 l -1.8,-2.3 -0.2,-0.3 -0.3,-0.2 -0.3,-0.2 -0.2,-0.3 -0.2,-0.3 -0.3,-0.2 -0.3,-0.2 -0.2,-0.3 -0.2,-0.3 -0.3,-0.2 -0.3,-0.2 -0.2,-0.3 -0.2,-0.3 -0.3,-0.2 -0.3,-0.2 -0.2,-0.3 -0.2,-0.3 -0.3,-0.2 -0.3,-0.2 -0.2,-0.3 -1,-0.5 -1,-0.5 h 3 l 1,0.3 1,0.2 v 2 l 1.5,0.2 1.5,0.3 2.2,1.7 q 2.3,1.8 2.6,2 l 0.2,0.3 h 1 l 1.5,-0.3 1.5,-0.2 0.2,-1.5 q 0.3,-1.5 0.8,-2 0.5,-0.5 1,-4 l 0.5,-3.5 v -2 l 0.3,0.2 0.2,0.3 0.2,0.3 0.3,0.2 0.3,0.2 0.2,0.3 1.5,2 q 1.5,2 2.5,1 1,-1 5,-1 4,0 7.5,-0.7 3.5,-0.8 5.5,-3.6 2,-2.7 1,-3 -1,-0.2 -0.5,-2 0.5,-1.7 4,-2 3.5,-0.2 2.7,-1.7 -0.7,-1.5 -1,-2.5 l -0.2,-1 h 0.5 l 0.3,0.2 0.2,0.3 0.2,0.3 0.3,0.2 0.3,0.2 0.2,0.3 0.2,0.3 0.3,0.2 0.3,0.2 0.2,0.3 4,-1 q 4,-1 5,-1.5 1,-0.5 2,-0.8 l 1,-0.2 v 2 q 0,2 3.5,1.2 3.5,-0.7 3.7,-1 l 0.3,-0.2 0.3,-0.2 0.2,-0.3 0.2,-0.3 0.3,-0.2 0.3,-0.2 0.2,-0.3 z"
         fill="#401507"
         stroke="#401507"
         id="path1394" /><path
         d="m 88,484.5 h 2 l 0.2,0.3 0.3,0.2 0.3,1.5 0.2,1.5 -1.8,12 q -1.7,12 -2,15 l -0.2,3 h -0.5 l -0.7,7.2 q -0.8,7.3 -3.3,7.6 L 80,533 47.5,533.2 Q 15,533.5 8,534 L 1,534.5 0.5,534.8 0,535 v -73 h 0.5 l 1.7,-2.8 q 1.8,-2.7 11.3,-0.2 9.5,2.5 15,4.5 5.5,2 7.5,4.3 2,2.2 3,2.2 1,0 2,2.5 1,2.5 2,2.5 1,0 1,1 0,1 1.5,1.8 1.5,0.7 6,0.7 4.5,0 12,3.5 7.5,3.5 14,3.5 6.5,0 7.5,-0.5 1,-0.5 3,-0.5 z"
         fill="#3c1808"
         stroke="#3c1808"
         id="path1396" /><path
         d="M 268.5,645.5 V 644 l 0.3,0.2 0.2,0.3 0.2,0.3 0.3,0.2 0.3,0.2 0.2,0.3 2.2,1.3 q 2.3,1.2 2.6,1.4 l 0.2,0.3 h 2 l 0.2,-0.3 0.3,-0.2 0.3,-1.5 0.2,-1.5 4.5,6.8 q 4.5,6.7 13.3,13.4 8.7,6.8 20,20 11.2,13.3 21.2,23.3 10,10 18,15 8,5 12,6 4,1 16,2.5 12,1.5 25,6.5 13,5 32.8,16.7 19.7,11.8 35.4,21.6 15.8,9.7 23.6,17.4 7.7,7.8 14.4,20 6.8,12.3 14.8,9.8 8,-2.5 9,-3 l 1,-0.5 1,-0.3 1,-0.2 v 2 l -1,0.2 -1,0.3 0.2,0.3 0.3,0.2 0.3,0.2 0.2,0.3 -1,0.5 -1,0.5 3.5,0.3 3.5,0.2 v 0.5 l -1,0.5 -1,0.5 -2.5,0.5 q -2.5,0.5 -11,4 -8.5,3.5 -18.5,7.5 -10,4 -13.8,8.3 -3.7,4.2 -7.4,3.7 L 486,850 485.8,849.5 Q 485.5,849 485.2,849 H 485 l -0.5,-0.2 q -0.5,-0.3 -9.5,-4.3 -9,-4 -14.5,-8 -5.5,-4 -6,-2.7 -0.5,1.2 -4.5,0.4 -4,-0.7 -10,-3 l -6,-2.2 -0.2,-0.5 Q 433.5,828 433.2,828 H 433 l -0.2,-0.5 Q 432.5,827 432.2,827 H 432 l -0.2,-0.5 -0.3,-0.5 -0.3,-0.2 -0.2,-0.3 -0.2,-0.3 -0.3,-0.2 -0.3,-0.2 -0.2,-0.3 -0.2,-0.3 -0.3,-0.2 -0.3,-1 -0.2,-1 1.5,-0.2 1.5,-0.3 -0.2,-0.3 -0.3,-0.2 -0.3,-0.2 -0.2,-0.3 -0.2,-0.3 -0.3,-0.2 -0.3,-0.2 -0.2,-0.3 -0.2,-0.3 -0.3,-0.2 -0.3,-0.2 -0.2,-0.3 h 19.5 q 15.5,0 20,0.3 l 4.5,0.2 -0.2,-2 -0.3,-2 -0.3,-0.2 -0.2,-0.3 -0.2,-0.3 -0.3,-0.2 -0.3,-0.2 -0.2,-0.3 -0.2,-0.3 -0.3,-0.2 -0.3,-0.2 -0.2,-0.3 -0.2,-0.3 -0.3,-0.2 -0.3,-0.2 -0.2,-0.3 -0.2,-0.3 q -0.3,-0.2 -8.3,-8.2 -8,-8 -11.5,-15 -3.5,-7 -6.5,-11.5 -3,-4.5 -8.3,-7.3 -5.2,-2.7 -7.7,-3.7 -2.5,-1 -8.7,-1.7 -6.3,-0.8 -7,-0.3 -0.8,0.5 -1,2 l -0.3,1.5 -0.3,0.2 -0.2,0.3 -1,0.3 -1,0.2 -0.2,-2 q -0.3,-2 -4.8,-8 l -4.5,-6 -0.3,-0.2 -0.2,-0.3 -0.2,-0.3 -0.3,-0.2 -0.3,-0.2 -0.2,-0.3 -0.2,-0.3 -0.3,-0.2 -0.3,-0.2 -0.2,-0.3 -1,-0.5 -1,-0.5 h -4 l -0.2,0.3 -0.3,0.2 -0.3,0.2 -0.2,0.3 -0.2,0.3 -0.3,0.2 v 1.5 q 0,1.5 0,5 v 3.5 l -0.3,0.2 -0.2,0.3 -0.2,0.3 -0.3,0.2 -0.3,0.2 -0.2,0.3 -1,0.3 -1,0.2 v -2 l -2,-0.2 -2,-0.3 -0.2,-0.3 -0.3,-0.2 -0.5,-1 q -0.5,-1 -7,-8 -6.5,-7 -16.8,-13.5 -10.2,-6.5 -10.4,-7.5 -0.3,-1 -4,-3.2 -3.8,-2.3 -13.3,-11.6 l -9.5,-9.2 -0.2,-0.5 q -0.3,-0.5 -6,-5.5 -5.8,-5 -7.3,-7.2 -1.5,-2.3 -1.7,-4 -0.3,-1.8 -3.3,-6.8 -3,-5 -15,-17 l -12,-12 H 272 l -0.2,-0.5 Q 271.5,651 271.2,651 H 271 l -0.2,-0.5 Q 270.5,650 270.2,650 H 270 l -0.2,-1 q -0.3,-1 -0.6,-1.2 l -0.2,-0.3 -0.2,-0.3 -0.3,-0.2 z"
         fill="#ac6740"
         stroke="#ac6740"
         id="path1398" /><path
         d="m 252,359.2 1,-0.2 -6,4.5 q -6,4.5 -7.5,6.3 -1.5,1.7 -6.7,6.4 -5.3,4.8 -5.8,8.3 -0.5,3.5 -2.8,7.3 -2.2,3.7 -1,5 1.3,1.2 2,5 0.8,3.7 -1,6 -1.7,2.2 -2,4.2 -0.2,2 -4,5.5 -3.7,3.5 -4,4.5 -0.2,1 0.8,1 1,0 -0.8,3 -1.7,3 -2.2,7.5 -0.5,4.5 -1.8,5 -1.2,0.5 -2.7,3.7 -1.5,3.3 -4.3,6 -2.7,2.8 -9.4,9.6 -6.8,6.7 -7,7 l -0.3,0.2 -0.3,1 -0.2,1 -1,0.2 -1,0.3 -0.2,0.3 -0.3,0.2 -0.3,0.2 -0.2,0.3 -1.5,0.3 -1.5,0.2 v -11 l -1,0.2 -1,0.3 -0.2,0.3 -0.3,0.2 -0.5,1.5 -0.5,1.5 -0.5,1 -0.5,1 -5.5,11.5 q -5.5,11.5 -5.8,12.5 l -0.2,1 h -2.5 q -2.5,0 -2.3,-1 0.3,-1 -0.4,-1.2 -0.8,-0.3 -2.6,3 -1.7,3.2 -5,3.7 l -3.2,0.5 -0.2,-0.5 Q 147.5,493 147.2,493 H 147 l -0.2,-0.5 Q 146.5,492 146.2,492 H 146 l -0.2,-0.5 Q 145.5,491 145.2,491 H 145 l -0.5,-0.2 q -0.5,-0.3 -2,-1.6 l -1.5,-1.2 -0.5,-0.2 -0.5,-0.3 -1.5,-0.5 q -1.5,-0.5 -2.5,-0.8 l -1,-0.2 0.2,-1 q 0.3,-1 7.3,-18 7,-17 8,-25 1,-8 5.7,-16 l 4.8,-8 0.5,-0.2 q 0.5,-0.3 0.5,-0.6 V 417 l 0.5,-0.2 q 0.5,-0.3 0.7,-0.6 l 0.3,-0.2 0.3,-0.2 0.2,-0.3 0.2,-0.3 0.3,-0.2 0.5,-1 0.5,-1 0.5,-1 0.5,-1 0.3,-0.2 0.2,-0.3 0.2,-0.3 q 0.3,-0.2 2.3,-4.7 2,-4.5 3.5,-18.5 l 1.5,-14 0.3,-0.2 0.2,-0.3 0.2,-0.3 0.3,-0.2 0.3,-0.2 0.2,-0.3 0.2,-0.3 0.3,-0.2 1.3,1.2 q 1.2,1.3 4.4,0.6 3.3,-0.8 5.3,-0.8 2,0 3.3,1.2 1.2,1.3 4,0 2.7,-1.2 3,-2.2 0.2,-1 3.2,-2.8 3,-1.7 5,-3.2 2,-1.5 4.5,1 2.5,2.5 4,2.8 1.5,0.2 1.5,1.7 0,1.5 4,1.3 4,-0.3 7.2,-3 3.3,-2.8 4,-2 0.8,0.7 3.3,-0.6 2.5,-1.2 3,-3 0.5,-1.7 1.5,-2 1,-0.2 1.5,0.6 0.5,0.7 5.5,-0.8 5,-1.5 6,-1.8 z"
         fill="#70341b"
         stroke="#70341b"
         id="path1400" /><path
         d="m 116,388.2 1,-0.2 -2.2,2.5 q -2.3,2.5 -2.6,2.7 l -0.2,0.3 1,0.3 q 1,0.2 1,2.7 0,2.5 1.8,2.5 1.7,0 1.7,7 0,7 -0.3,5.5 -0.2,-1.5 -1.2,-1.5 -1,0 -0.8,2 0.3,2 -1,5 -1.2,3 -2.7,3 -1.5,0 -2.3,2 -0.7,2 0,4 0.8,2 1.8,2.2 1,0.3 1.5,0.3 h 0.5 l 0.2,-0.3 0.3,-0.2 0.5,-1 0.5,-1 1.7,-1 q 1.8,-1 2.6,1 0.7,2 1,2.2 l 0.2,0.3 0.2,0.3 0.3,0.2 0.5,1 0.5,1 0.3,0.2 0.2,0.3 0.5,0.3 0.5,0.2 v 0.5 l -0.2,0.3 -0.3,0.2 -12.5,17 q -12.5,17 -14.5,20 -2,3 -2.5,7.5 -0.5,4.5 -1,7.5 l -0.5,3 H 91 l -0.2,-1.5 -0.3,-1.5 -0.3,-0.2 -0.2,-0.3 h -2 q -2,0 -3,0.5 -1,0.5 -7.5,0.5 -6.5,0 -14,-3.5 -7.5,-3.5 -12,-3.5 -4.5,0 -6,-0.7 Q 44,477 44,476 q 0,-1 -1,-1 -1,0 -2,-2.5 -1,-2.5 -2,-2.5 -1,0 -3,-2.2 -2,-2.3 -7.5,-4.3 -5.5,-2 -15,-4.5 Q 4,456.5 2.2,459.2 L 0.5,462 H 0 v -72 h 0.5 l 0.3,0.2 0.2,0.3 31.5,8 q 31.5,8 40,7.5 8.5,-0.5 19,-4.5 10.5,-4 17,-8.5 6.5,-4.5 7.5,-4.8 z m 2.2,40.3 0.3,1.5 v 0.5 q 0,0.5 -0.5,1.5 l -0.5,1 -0.3,0.2 -0.2,0.3 -1,0.3 -1,0.2 v -2 l 1,-0.2 q 1,-0.3 0.5,-2.6 -0.5,-2.2 0.5,-2.2 1,0 1.2,1.5 z m -10,0.7 0.3,-0.2 0.3,0.2 0.2,0.3 1.5,0.3 q 1.5,0.2 1.7,1.7 l 0.3,1.5 0.3,0.2 0.2,0.3 h -3 l -0.2,-0.3 -0.3,-0.2 -0.3,-1 -0.2,-1 -1,-0.2 -1,-0.3 0.2,-0.3 0.3,-0.2 0.3,-0.2 0.2,-0.3 z"
         fill="#a87050"
         stroke="#a87050"
         id="path1402" /><path
         d="m 471,166.2 1,-0.2 v 1 q 0,1 -1,1.2 l -1,0.3 1.5,0.5 1.5,0.5 0.2,0.3 0.3,0.2 v 1 l -0.3,0.2 -0.2,0.3 -0.2,0.3 -0.3,0.2 -0.3,0.2 -0.2,0.3 v 0.5 l -0.5,0.2 q -0.5,0.3 -4,1.8 -3.5,1.5 -16,5 -12.5,3.5 -32.5,7.5 l -20,4 -1.5,0.5 -1.5,0.5 -1.5,0.5 -1.5,0.5 -1,0.3 -1,0.2 v 2 l 45,0.2 q 45,0.3 45,0.6 v 0.2 l -3.5,0.2 q -3.5,0.3 -7.3,2 -3.7,1.8 -19,5.6 -15.2,3.7 -22.2,6.2 -7,2.5 -13.5,2.5 -6.5,0 -8,1.7 -1.5,1.8 -2.7,2.3 -1.3,0.5 -11,2.3 -9.8,1.7 -17.8,0.7 -8,-1 -11,0 -3,1 -8.8,5.7 -5.7,4.8 -4.4,10.3 1.2,5.5 -1.3,5.5 -2.5,0 -2.7,1 -0.3,1 -9.3,10 l -9,9 -0.3,0.2 -0.2,0.3 -0.2,0.3 -0.3,0.2 -0.3,1 -0.2,1 h -0.2 q -0.3,0 -0.6,-1.5 -0.2,-1.5 -1.2,-1.3 -1,0.3 -1.8,3 l -0.7,2.8 -0.3,0.2 -0.2,0.3 h -2 l -1,-0.5 -1,-0.5 -0.2,-0.3 -0.3,-0.2 -0.3,-2.5 -0.2,-2.5 h -2 l 0.2,-1.5 q 0.3,-1.5 3.6,-4.5 3.2,-3 3.4,-4.5 0.3,-1.5 -2.2,-3 -2.5,-1.5 -2,-3.5 0.5,-2 -1.2,-1.8 l -1.8,0.3 1,-0.5 q 1,-0.5 0.8,-0.8 -0.3,-0.2 1.2,-2.2 1.5,-2 3,-5 1.5,-3 1.8,-7 0.2,-4 -0.8,-4 h -1 v -0.5 l 4.5,-1 q 4.5,-1 6.5,-1.3 l 2,-0.2 0.2,-1 0.3,-1 v -3 l -0.3,-0.2 q -0.2,-0.3 -2.2,-1.3 -2,-1 -1.5,-2.3 0.5,-1.2 -0.5,-1.2 -1,0 -0.8,-2.5 l 0.3,-2.5 0.3,-0.2 0.2,-0.3 0.2,-0.3 0.3,-0.2 0.3,-0.2 0.2,-0.3 0.2,-0.3 0.3,-0.2 0.3,-0.2 0.2,-0.3 0.2,-0.3 0.3,-0.2 14.7,-3.8 q 14.8,-3.7 17.6,-6 2.7,-2.2 3,-2.4 l 0.2,-0.3 1,-0.5 1,-0.5 0.2,-0.3 0.3,-0.2 0.3,-0.2 0.2,-0.3 1,-0.5 1,-0.5 0.2,-0.3 0.3,-0.2 0.3,-0.5 0.2,-0.5 4.5,-2.8 q 4.5,-2.7 7,-4.2 2.5,-1.5 25,-6.5 22.5,-5 27.5,-4 5,1 15.5,0.5 10.5,-0.5 13,-1.5 2.5,-1 3.5,-1.3 z"
         fill="#a26144"
         stroke="#a26144"
         id="path1404" /><path
         d="m 239.2,796 3.8,-11 1,2.8 q 1,2.7 1.5,7.4 0.5,4.8 2.3,3.3 1.7,-1.5 2.2,2.5 0.5,4 1,3 0.5,-1 2,9 1.5,10 1,17.5 -0.5,7.5 -0.8,7.7 -0.2,0.3 -0.4,0.6 l -0.3,0.2 -0.3,0.2 -0.2,0.3 -0.2,0.3 -0.3,0.2 -0.3,0.2 -0.2,0.3 -0.2,0.3 -0.3,0.2 -0.5,1 -0.5,1 -0.3,0.2 -0.2,0.3 -0.2,0.3 -0.3,0.2 -0.3,0.5 -0.2,0.5 -7.2,10 q -7.3,10 -11.6,17.8 -4.2,7.7 -13,17.4 -8.7,9.8 -17.4,19.6 -8.8,9.7 -8.8,10.7 0,1 -5.2,7.7 -5.3,6.8 -9.6,12.6 -4.2,5.7 -9.4,12 -5.3,6.2 -5.6,7.2 -0.2,1 -6.4,6.5 -6.3,5.5 -12,11.7 -5.8,6.3 -8.3,7 -2.5,0.8 -4.3,3.3 -1.7,2.5 -2.2,3.5 l -0.5,1 -0.3,0.2 -0.2,0.3 -0.2,0.3 -0.3,0.2 -0.3,0.2 -0.2,0.3 0.2,0.3 0.3,0.2 0.3,0.2 0.2,0.3 -2,0.3 -2,0.2 0.2,1 0.3,1 0.3,0.5 0.2,0.5 h -11 l -5.5,-0.2 -5.5,-0.3 -0.2,-0.3 -0.3,-0.2 -0.3,-0.2 -0.2,-0.3 0.2,-0.3 0.3,-0.2 0.5,-1.5 0.5,-1.5 0.3,-0.2 0.2,-0.3 0.2,-0.3 0.3,-0.2 0.3,-0.2 0.2,-0.3 0.2,-0.3 q 0.3,-0.2 5,-7.4 4.8,-7.3 4.8,-8.3 0,-1 7.5,-9 7.5,-8 19.3,-23.3 11.7,-15.2 20.2,-28.2 8.5,-13 12,-16.5 3.5,-3.5 7.2,-6 3.8,-2.5 4,-3.5 0.3,-1 5.8,-4.5 5.5,-3.5 9.8,-9.5 4.2,-6 5.2,-6 1,0 1,-1 0,-1 1,-1 1,0 1,-1 0,-1 1,-1.2 1,-0.3 2,-2 1,-1.8 2,-2 1,-0.3 6.5,-7.3 5.5,-7 10.3,-14.7 4.7,-7.8 5.4,-19.3 l 0.8,-11.5 0.2,-1 q 0.3,-1 4,-12 z"
         fill="#9b6142"
         stroke="#9b6142"
         id="path1406" /><path
         d="m 477.5,197.2 3.5,-0.2 1,0.2 1,0.3 1.5,0.5 1.5,0.5 0.2,0.3 0.3,0.2 v 2.5 q 0,2.5 -0.5,4 -0.5,1.5 -2.8,3.3 -2.2,1.7 -3,3.4 l -0.7,1.8 -0.3,1 -0.2,1 2,0.2 2,0.3 11.5,4 q 11.5,4 12.5,4.5 l 1,0.5 0.2,0.3 0.3,0.2 0.3,0.2 0.2,0.3 0.2,0.3 0.3,0.2 0.3,1.5 0.2,1.5 -1,0.2 -1,0.3 -0.2,0.3 -0.3,0.2 -0.5,1 q -0.5,1 -4.2,5.2 -3.8,4.3 -9.8,7.3 -6,3 -17,3 -11,0 -23,-0.5 -12,-0.5 -23.5,1.5 -11.5,2 -17.5,6.5 -6,4.5 -23,9.5 -17,5 -24.2,9.3 l -7.3,4.2 -0.3,0.2 -0.2,0.3 -1,0.5 -1,0.5 -1,0.3 -1,0.2 h -4 l 0.2,-1 0.3,-1 0.5,-1 q 0.5,-1 1.8,-2.8 l 1.2,-1.7 0.2,-0.3 0.3,-0.2 0.5,-1 0.5,-1 v -2 l -0.3,0.2 -0.2,0.3 -1,0.5 -1,0.5 -0.2,0.3 -0.3,0.2 -0.3,0.2 -0.2,0.3 -0.2,0.3 -0.3,0.2 -0.3,0.2 q -0.2,0.3 -1.2,2 -1,1.8 -2.2,1.3 l -1.3,-0.5 -0.3,-0.2 -0.2,-0.3 -0.2,-0.3 -0.3,-0.2 -0.3,1 -0.2,1 h -1 q -1,0 -0.5,-3 l 0.5,-3 -1,0.2 q -1,0.3 -2,0.8 -1,0.5 -5,1.5 l -4,1 -0.2,-0.3 -0.3,-0.2 -0.3,-0.2 -0.2,-0.3 -0.2,-0.3 -0.3,-0.2 -0.3,-0.2 -0.2,-0.3 -0.2,-0.3 -0.3,-0.2 H 328 v -5 l 0.2,-1 0.3,-1 0.3,-0.2 0.2,-0.3 0.2,-0.3 0.3,-0.2 9,-9 q 9,-9 9.3,-10 0.2,-1 2.7,-1 2.5,0 1.3,-5.5 -1.3,-5.5 4.4,-10.3 5.8,-4.7 9.8,-6.4 4,-1.8 4.5,-0.6 0.5,1.3 2.5,1.3 2,0 6.5,0.5 4.5,0.5 14.3,-1.2 9.7,-1.8 11,-2.3 1.2,-0.5 2.7,-2.3 1.5,-1.7 8,-1.7 6.5,0 13.5,-2.5 7,-2.5 22.2,-6.2 15.3,-3.8 19,-5.6 3.8,-1.7 7.3,-2 z"
         fill="#340c01"
         stroke="#340c01"
         id="path1408" /><path
         d="m 132,489 6,-0.5 h 3 V 488 l 1.5,1.2 q 1.5,1.3 2,1.6 l 0.5,0.2 v 0.2 q 0,0.3 0.5,0.6 l 0.5,0.2 v 0.2 q 0,0.3 0.5,0.6 l 0.5,0.2 v 0.2 q 0,0.3 0.5,0.6 l 0.5,0.2 0.2,0.5 q 0.3,0.5 0.6,0.7 l 0.2,0.3 3.8,3.7 q 3.7,3.8 6.7,10.3 3,6.5 3.3,7.5 l 0.2,1 v 0.2 q 0,0.3 0.5,0.6 l 0.5,0.2 3.8,12.5 q 3.7,12.5 3.2,18.5 -0.5,6 -1.5,9.5 -1,3.5 2,21 3,17.5 4,24.5 1,7 1.3,7.5 l 0.2,0.5 -0.2,1 q -0.3,1 0,2 l 0.2,1 -1.2,0.5 q -1.3,0.5 -1.3,1.5 v 1 l 0.3,0.2 0.2,0.3 h -1.5 q -1.5,0 -3.5,0.5 -2,0.5 -2.8,-0.8 -0.7,-1.2 -3,-1 l -2.2,0.3 v 1.5 q 0,1.5 -1.5,1.8 -1.5,0.2 -1.5,1.7 0,1.5 0.8,2 0.7,0.5 -0.6,1 -1.2,0.5 -1.4,3.5 -0.3,3 -2,5.8 -1.8,2.7 -2.8,3 -1,0.2 -1.2,1.7 l -0.3,1.5 -0.5,1 -0.5,1 -0.3,-0.2 -0.2,-0.3 -0.2,-0.3 -0.3,-0.2 -0.3,0.2 -0.2,0.3 -0.2,0.3 -0.3,0.2 -0.3,0.2 -0.2,0.3 h -2 l -0.2,-0.3 -0.3,-0.2 H 145 l -0.2,-2.5 q -0.3,-2.5 -0.8,-5 -0.5,-2.5 -6.5,-29.5 -6,-27 -7,-38 -1,-11 -2.7,-15.5 l -1.8,-4.5 -0.2,-4 q -0.3,-4 -1.3,-28 -1,-24 0.3,-26.2 1.2,-2.3 7.2,-2.8 z m 20.2,147 q 0.3,-1 1,-0.2 0.8,0.7 -0.2,1 -1,0.2 -0.8,-0.8 z"
         fill="#e49577"
         stroke="#e49577"
         id="path1410" /><path
         d="m 38,142.8 -2,-2.8 5,3.2 q 5,3.3 11,6.3 6,3 12,6 6,3 8.5,5 2.5,2 11,4 8.5,2 14.7,7.7 6.3,5.8 6.6,6.8 0.2,1 4,4.5 3.7,3.5 8.4,8.7 4.8,5.3 8.6,7 3.7,1.8 6.4,4.6 2.8,2.7 10.8,7.7 8,5 10.8,6.7 2.7,1.8 3,2.8 0.2,1 7.2,3.2 7,2.3 7.5,2.6 l 0.5,0.2 1.5,0.2 1.5,0.3 1,0.5 1,0.5 2,0.5 2,0.5 4,1 q 4,1 6,1.3 l 2,0.2 v 0.5 l 1.5,0.5 1.5,0.5 1.5,0.5 1.5,0.5 10.5,3 q 10.5,3 19.5,6 9,3 15,4.5 6,1.5 7,2 1,0.5 7.5,0.8 l 6.5,0.2 -0.2,0.5 -0.3,0.5 -0.3,0.2 -0.2,0.3 -0.2,0.3 -0.3,0.2 -0.3,0.2 -0.2,0.3 -0.2,0.3 -0.3,0.2 -0.3,0.2 -0.2,0.3 -0.2,0.3 -0.3,0.2 -0.3,0.2 -0.2,0.3 -1.5,0.5 -1.5,0.5 -2.5,0.5 q -2.5,0.5 -14.5,2 -12,1.5 -26,2 -14,0.5 -20,1.8 -6,1.2 -6,2.2 0,1 -3.5,0.8 Q 182,265.5 175,261 l -7,-4.5 -1,-0.5 -1,-0.5 -1.5,-0.3 -1.5,-0.2 -0.2,-0.5 Q 162.5,254 162.2,254 H 162 l -0.2,-0.5 Q 161.5,253 161.2,253 H 161 l -0.5,-0.2 q -0.5,-0.3 -9.3,-8 -8.7,-7.8 -16.4,-12.6 -7.8,-4.7 -13,-9 -5.3,-4.2 -7,-4.4 -1.8,-0.3 -10.6,-9.6 Q 95.5,200 82.2,186.8 69,173.5 65.5,169.8 62,166 61,165.8 60,165.5 51,156 l -9,-9.5 -1,-0.5 q -1,-0.5 -3,-3.2 z"
         fill="#be896a"
         stroke="#be896a"
         id="path1412" /><path
         d="m 279.5,305 2.5,0.5 0.2,0.3 0.3,0.2 0.3,0.2 0.2,0.3 -0.2,0.3 -0.3,0.2 -0.3,0.2 -0.2,0.3 h 3 l 0.2,-0.3 0.3,-0.2 0.3,-0.2 0.2,-0.3 -0.2,-0.3 -0.3,-0.2 -0.3,-0.2 -0.2,-0.3 1,-0.3 1,-0.2 0.5,2 q 0.5,2 -2,2 -2.5,0 -3.7,3.5 -1.3,3.5 -4.6,7.5 -3.2,4 -5.4,5.5 -2.3,1.5 -3.8,4 -1.5,2.5 -3,8 -1.5,5.5 -6.5,13 -5,7.5 -5.3,8 l -0.2,0.5 -1,0.2 q -1,0.3 -6,1.8 -5,1.5 -5.5,0.8 -0.5,-0.8 -1.5,-0.6 -1,0.3 -1.5,2 -0.5,1.8 -3,3 -2.5,1.3 -3.3,0.6 -0.7,-0.8 -4,2 -3.2,2.7 -7.2,3 -4,0.2 -4,-1.3 0,-1.5 -1.5,-1.7 -1.5,-0.3 -4,-2.8 -2.5,-2.5 -4.5,-1 -2,1.5 -5,3.2 -3,1.8 -3.2,2.8 -0.3,1 -3,2.2 -2.8,1.3 -4,0 -1.3,-1.2 -3.3,-1.2 -2,0 -5.3,0.8 -3.2,0.7 -4.4,-0.6 l -1.3,-1.2 -0.3,0.2 -0.2,0.3 -0.2,0.3 -0.3,0.2 -0.3,0.2 -0.2,0.3 -0.2,0.3 -0.3,0.2 -1.5,14 q -1.5,14 -3.5,18.5 -2,4.5 -2.3,4.7 l -0.2,0.3 -0.2,0.3 -0.3,0.2 -0.5,1 -0.5,1 -0.5,1 -0.5,1 -0.3,0.2 -0.2,0.3 -0.2,0.3 -0.3,0.2 -0.3,1 -0.2,1 h -2 l 0.2,-1 0.3,-1 0.5,-1.5 0.5,-1.5 0.5,-2.5 q 0.5,-2.5 1.5,-7 1,-4.5 2,-17.5 1,-13 0.3,-17.5 L 166,364 v -2 l 1.5,0.2 1.5,0.3 1,0.3 1,0.2 v -0.5 l 1,-0.3 1,-0.2 -0.2,-1 -0.3,-1 -0.3,-0.2 -0.2,-0.3 -1,-0.5 -1,-0.5 h -2 l -0.5,0.3 -0.5,0.2 h -0.2 q -0.3,0 -0.6,0.5 l -0.2,0.5 -1,0.2 -1,0.3 -0.2,0.3 -0.3,0.2 -0.3,0.2 -0.2,0.3 -1,0.3 -1,0.2 0.2,-1 0.3,-1 0.3,-0.2 0.2,-0.3 0.2,-0.3 0.3,-0.2 0.3,-0.2 0.2,-0.3 0.2,-0.3 0.3,-0.2 0.5,-1 0.5,-1 0.5,-2 q 0.5,-2 6.2,-4 5.8,-2 6.6,-5 0.7,-3 3.4,-7.2 2.8,-4.3 11.8,-7 9,-2.8 9,-3.8 0,-1 4,-1.8 4,-0.7 9,-2 5,-1.2 5,-3.2 0,-2 1,-2 1,0 1,-1 0,-1 7.8,-4.5 7.7,-3.5 10,-4.7 2.2,-1.3 8.7,-6.6 l 6.5,-5.2 3,-1.8 q 3,-1.7 4.2,-1.4 1.3,0.2 2,0.7 0.8,0.5 1,-0.5 0.3,-1 6,5.2 5.8,6.3 8.3,6.8 z m -39.5,3 q 1,0 1,1 0,1 -1,1 -1,0 -1,-1 0,-1 1,-1 z"
         fill="#9f5e40"
         stroke="#9f5e40"
         id="path1414" /><path
         d="m 597,739.2 1,-0.2 v 0.5 l -0.2,0.3 -0.3,0.2 -0.3,0.2 -0.2,0.3 -0.2,0.3 -0.3,0.2 -0.3,0.2 -0.2,0.3 0.2,0.3 0.3,0.2 0.3,0.2 0.2,0.3 h 2 l 11.5,0.5 q 11.5,0.5 10,1.5 -1.5,1 8.7,1.7 10.3,0.8 12.3,5.8 2,5 2.3,5.2 l 0.2,0.3 0.2,0.3 0.3,0.2 0.3,0.5 0.2,0.5 1.2,3 q 1.3,3 1.3,4 v 1 l -0.3,0.2 -0.2,0.3 -3,0.5 q -3,0.5 -10.5,1 -7.5,0.5 -22,4 -14.5,3.5 -15.7,4.8 -1.3,1.2 -2,4.2 -0.8,3 -5.8,3.2 -5,0.3 -14.2,3.6 -9.3,3.2 -20.6,5.4 -11.2,2.3 -15.2,3.8 -4,1.5 -4.5,2.8 -0.5,1.2 -3,1.4 l -2.5,0.3 -4,0.3 -4,0.2 -1.5,-0.2 -1.5,-0.3 -1,-0.5 -1,-0.5 -0.2,-0.3 -0.3,-0.2 -0.3,-0.2 -0.2,-0.3 -0.2,-0.3 -0.3,-0.2 v -3 l 0.5,-1.5 q 0.5,-1.5 3.5,-5 l 3,-3.5 0.3,-1.5 0.2,-1.5 -1.5,-0.2 -1.5,-0.3 -2,-0.5 q -2,-0.5 -12,-4 l -10,-3.5 -1,-0.5 -1,-0.5 -0.2,-0.3 -0.3,-0.2 -0.3,-0.2 -0.2,-0.3 -0.2,-0.3 -0.3,-0.2 v -2 l 0.3,-0.2 0.2,-0.3 0.2,-0.3 0.3,-0.2 0.3,-0.2 0.2,-0.3 0.2,-0.3 0.3,-0.2 4.7,-5.8 q 4.8,-5.7 10.3,-8.2 5.5,-2.5 17,-2.5 11.5,0 26.5,0 15,0 24,-2 9,-2 15,-6.5 6,-4.5 7,-4.8 z"
         fill="#632710"
         stroke="#632710"
         id="path1416" /><path
         d="m 225.8,499 0.2,-4 4,0.2 4,0.3 0.2,0.3 0.3,0.2 0.3,0.2 0.2,0.3 3.2,2.3 q 3.3,2.2 6.3,8.7 3,6.5 2.5,18.5 -0.5,12 -0.5,24 0,12 1.5,21 1.5,9 4,13 2.5,4 5.5,8.5 3,4.5 8,22.5 5,18 7,20.5 2,2.5 2.5,3.5 l 0.5,1 0.3,0.2 0.2,0.3 0.2,0.3 0.3,0.2 0.5,1 0.5,1 0.3,1 0.2,1 -0.2,1.5 -0.3,1.5 -0.3,0.2 -0.2,0.3 h -2 l -0.2,-0.3 q -0.3,-0.2 -2.6,-1.4 l -2.2,-1.3 -0.2,-0.3 -0.3,-0.2 -0.3,-0.2 -0.2,-0.3 -0.2,-0.3 -0.3,-0.2 v 3 l 0.3,0.2 0.2,0.3 0.8,0.7 q 0.7,0.8 1,1 l 0.2,0.3 0.2,0.3 0.3,0.2 0.3,1 0.2,1 -1,-0.2 -1,-0.3 -0.2,-0.3 -0.3,-0.2 -0.3,-1 -0.2,-1 -1,-0.2 q -1,-0.3 -4,-1.8 -3,-1.5 -11,-3.5 -8,-2 -14,-1.3 l -6,0.8 h -3 l -0.2,-3 q -0.3,-3 -2.8,-22.5 -2.5,-19.5 -4,-22.5 -1.5,-3 -5,-26 -3.5,-23 -9.5,-34.5 l -6,-11.5 -0.3,-0.2 -0.2,-0.3 -0.2,-0.3 -0.3,-0.2 -0.3,-0.2 -0.2,-0.3 -0.2,-0.3 -0.3,-0.2 -0.3,-1 -0.2,-1 1,-0.2 1,-0.3 3.5,-0.3 3.5,-0.2 v 0.2 q 0,0.3 0.5,0.6 l 0.5,0.2 v 0.2 q 0,0.3 0.5,0.6 l 0.5,0.2 1,0.2 1,0.3 h 3 l 0.2,-0.3 0.3,-0.2 0.5,-1 q 0.5,-1 0.5,-1.5 0,-0.5 4,-7.5 4,-7 4.3,-11 z"
         fill="#a04f28"
         stroke="#a04f28"
         id="path1418" /><path
         d="m 395,81 v -1 l 15,3.2 q 15,3.3 29.5,3.3 14.5,0 19,-0.3 L 463,86 v 0.5 l 0.2,0.3 0.3,0.2 0.3,0.2 0.2,0.3 -2,0.5 -2,0.5 -1,0.5 -1,0.5 0.2,0.3 0.3,0.2 0.3,0.2 0.2,0.3 3.5,1.5 q 3.5,1.5 3.7,1.8 l 0.3,0.2 v 1 l -0.3,1.5 Q 466,98 465,98 q -1,0 -1,1.5 0,1.5 -1,1.7 -1,0.3 -1.5,2 -0.5,1.8 1,2 1.5,0.3 -1,1.3 l -2.5,1 1,0.5 1,0.5 -0.2,0.3 -0.3,0.2 -0.3,0.2 -0.2,0.3 -1,0.5 -1,0.5 14.5,2.5 q 14.5,2.5 17.5,3.8 3,1.2 3,3.2 0,2 -1.2,2.5 -1.3,0.5 -1.6,0.7 l -0.2,0.3 v 0.5 l -2.5,0.2 q -2.5,0.3 -36,3.8 -33.5,3.5 -61.5,9.5 -28,6 -47.5,6 H 323 l 0.2,-0.3 0.3,-0.2 0.3,-0.2 0.2,-0.3 h 4 l 1.5,-0.5 1.5,-0.5 0.2,-0.3 0.3,-0.2 7.5,-2 q 7.5,-2 8.8,-4 1.2,-2 5.2,-2.2 4,-0.3 5,-0.8 l 1,-0.5 -2,-0.5 -2,-0.5 0.2,-0.3 0.3,-0.2 0.5,-1.5 0.5,-1.5 0.3,-0.2 0.2,-0.3 0.2,-0.3 0.3,-0.2 0.5,-1 0.5,-1 0.3,-0.2 0.2,-0.3 h -2.5 q -2.5,0 -5,0.5 -2.5,0.5 -3,-0.8 -0.5,-1.2 -4,-1.4 l -3.5,-0.3 1,-0.5 q 1,-0.5 2,-1 1,-0.5 -1.5,-1 l -2.5,-0.5 2.5,-0.5 q 2.5,-0.5 0.5,-1 l -2,-0.5 0.2,-0.3 0.3,-0.2 0.3,-0.2 0.2,-0.3 4,-1 q 4,-1 4,-1.3 V 113 l 2,0.2 q 2,0.3 2,0 V 113 l 2.5,-0.2 2.5,-0.3 -1,-0.3 -1,-0.2 v -2 l 1,0.2 1,0.3 0.2,0.3 0.3,0.2 v -2 l -0.3,-0.2 q -0.2,-0.3 -1.7,-0.8 -1.5,-0.5 -2.7,-1.2 l -1.3,-0.8 -0.5,-1 -0.5,-1 -0.3,-0.2 -0.2,-0.3 0.2,-0.3 0.3,-0.2 0.3,-0.2 0.2,-0.3 1,-0.3 q 1,-0.2 1,-1.2 0,-1 1.2,-1.5 1.3,-0.5 1.6,-1.5 0.2,-1 1.2,-1 1,0 1.5,-1.2 0.5,-1.3 1.5,-1.6 1,-0.2 3.5,-3.4 2.5,-3.3 1,-3.8 -1.5,-0.5 8,-1 9.5,-0.5 14.5,-0.5 h 5 l 1.5,-0.5 1.5,-0.5 0.2,-0.3 0.3,-0.2 v -1 l -0.3,-0.2 -0.2,-0.3 -1,-0.3 Q 395,82 395,81 Z"
         fill="#fccbb1"
         stroke="#fccbb1"
         id="path1420" /><path
         d="M 852.5,474.2 853,474 v 0.2 q 0,0.3 0.5,0.6 l 0.5,0.2 2.2,9.5 q 2.3,9.5 2,13.5 -0.2,4 -1.7,4 -1.5,0 -0.5,2.2 1,2.3 3.8,3 2.7,0.8 2.7,5.3 0,4.5 -4,11.5 -4,7 -6.3,7.8 -2.2,0.7 -4.7,1.2 -2.5,0.5 -3.5,1 -1,0.5 -2.2,0.8 -1.3,0.2 -2.8,2.7 -1.5,2.5 -5,14.5 -3.5,12 -6.5,17.5 -3,5.5 -5.5,13.5 -2.5,8 -2.2,23 0.2,15 -1,15.5 -1.3,0.5 -1.6,1.5 l -0.2,1 -0.5,0.2 q -0.5,0.3 -0.5,0.6 v 0.2 l -0.5,0.2 q -0.5,0.3 -0.5,0.6 v 0.2 l -0.5,0.2 q -0.5,0.3 -0.5,0.6 v 0.2 l -0.5,0.2 q -0.5,0.3 -0.5,0.6 v 0.2 l -0.5,0.2 q -0.5,0.3 -0.5,0.6 v 0.2 l -0.5,0.2 q -0.5,0.3 -2,1.3 -1.5,1 -6.3,5.7 l -4.7,4.8 -0.3,0.2 -0.2,0.3 -0.2,0.3 -0.3,0.2 -0.3,0.2 -0.2,0.3 -0.2,0.3 -0.3,0.2 -0.3,-0.2 -0.2,-0.3 -1,-0.5 -1,-0.5 -0.2,-0.3 -0.3,-0.2 -0.3,-0.2 -0.2,-0.3 -0.2,-0.3 -0.3,-0.2 -0.3,-0.2 -0.2,-0.3 -0.2,-0.3 -0.3,-0.2 -0.3,-0.2 -0.2,-0.3 -0.2,-0.3 -0.3,-0.2 -0.5,-1 q -0.5,-1 -1,-2 -0.5,-1 -1,-9 -0.5,-8 1,-12 1.5,-4 9.2,-14.8 7.8,-10.7 13.6,-24 5.7,-13.2 6,-20.7 l 0.2,-7.5 0.2,-6 q 0.3,-6 2,-9.8 1.8,-3.7 4.6,-11 2.7,-7.2 2.7,-23.2 v -16 l 0.3,-0.5 0.2,-0.5 h 0.5 l 0.3,0.2 0.2,0.3 0.2,0.3 0.3,0.2 0.3,0.2 0.2,0.3 0.2,0.3 0.3,0.2 0.3,0.2 0.2,0.3 0.2,0.3 0.3,0.2 0.5,1 0.5,1 0.3,1 0.2,1 1,-0.2 1,-0.3 0.2,-0.3 0.3,-0.2 0.5,-4 0.5,-4 0.3,-0.2 0.2,-0.3 0.2,-0.3 0.3,-0.2 0.3,-0.2 0.2,-0.3 0.2,-0.3 0.3,-0.2 0.5,1 0.5,1 0.3,0.2 0.2,0.3 0.2,0.3 0.3,0.2 1.5,2.5 q 1.5,2.5 2,4 l 0.5,1.5 0.5,-1 0.5,-1 0.5,1 0.5,1 0.3,-1.5 0.2,-1.5 h 2 l 0.2,-1.5 0.3,-1.5 0.5,-2 q 0.5,-2 1.2,-3 l 0.8,-1 v -0.2 q 0,-0.3 0.5,-0.6 z"
         fill="#4d1f0d"
         stroke="#4d1f0d"
         id="path1422" /><path
         d="m 300.2,178 -0.2,3 5.5,-0.8 q 5.5,-0.7 11.7,0.6 6.3,1.2 8.6,2 2.2,0.7 16,1.4 13.7,0.8 14,1.8 0.2,1 3.7,0.2 3.5,-0.7 5,-1.2 1.5,-0.5 2,-0.5 0.5,0 0.7,-0.3 l 0.3,-0.2 0.3,0.2 0.2,0.3 2,0.5 2,0.5 -0.2,0.3 -0.3,0.2 -0.3,0.2 -0.2,0.3 h 2 l 1,-0.3 1,-0.2 -0.2,0.5 -0.3,0.5 -0.3,0.2 -0.2,0.3 -1,0.5 -1,0.5 -0.2,0.3 -0.3,0.2 -0.3,0.2 -0.2,0.3 -1,0.5 -1,0.5 -0.2,0.3 q -0.3,0.2 -3,2.4 -2.8,2.3 -17.6,6 l -14.7,3.8 -0.3,0.2 -0.2,0.3 -0.2,0.3 -0.3,0.2 -0.3,0.2 -0.2,0.3 -0.2,0.3 -0.3,0.2 -0.3,0.2 -0.2,0.3 -0.2,0.3 -0.3,0.2 -0.3,2.5 q -0.2,2.5 0.8,2.5 1,0 0.5,1.2 -0.5,1.3 1.5,2.3 2,1 2.2,1.3 l 0.3,0.2 v 3 l -0.3,1 -0.2,1 -2,0.2 q -2,0.3 -6.5,1.3 l -4.5,1 v 0.5 l -0.5,0.2 q -0.5,0.3 -1.5,0.8 -1,0.5 -0.5,2.5 0.5,2 -3,5.7 -3.5,3.8 -7.5,5 -4,1.3 -4.5,3 -0.5,1.8 -7,4 -6.5,2.3 -11.5,2.8 -5,0.5 -13,1.8 l -8,1.2 -6.5,-0.2 q -6.5,-0.3 -7.5,-0.8 -1,-0.5 -7,-2 -6,-1.5 -15,-4.5 -9,-3 -19.5,-6 l -10.5,-3 -1.5,-0.5 -1.5,-0.5 -1.5,-0.5 -1.5,-0.5 V 232 l 7.8,-1 q 7.7,-1 8,-2 0.2,-1 8.2,-1.5 8,-0.5 8,0.5 0,1 9.5,0.8 9.5,-0.3 18,-5.3 8.5,-5 15.7,-12.7 7.3,-7.8 8.6,-9.6 1.2,-1.7 1.4,-2 l 0.3,-0.2 v -3 l -0.3,-2 -0.2,-2 -1.5,-0.2 q -1.5,-0.3 -7,-2.8 -5.5,-2.5 -7.5,-4.8 -2,-2.2 -3,-2.2 h -1 l -0.2,-2 -0.3,-2 -0.3,-0.2 -0.2,-0.3 0.2,-0.3 0.3,-0.2 2.5,-3 q 2.5,-3 5.8,-6.2 3.2,-3.3 6.7,-4.8 3.5,-1.5 14,-1 10.5,0.5 11.5,2 1,1.5 2.2,3.8 1.3,2.2 0.8,4.7 -0.5,2.5 -0.8,5.5 z"
         fill="#e7b698"
         stroke="#e7b698"
         id="path1424" /><path
         d="m 814.8,547 h 3.2 l -0.2,7.5 q -0.3,7.5 -6,20.7 -5.8,13.3 -13.6,24 -7.7,10.8 -9.2,14.8 -1.5,4 -1,12 0.5,8 1,9 0.5,1 1,2 l 0.5,1 0.3,0.2 0.2,0.3 0.2,0.3 0.3,0.2 0.3,0.2 0.2,0.3 0.2,0.3 0.3,0.2 0.3,0.2 0.2,0.3 0.2,0.3 0.3,0.2 0.3,0.2 0.2,0.3 1,0.5 1,0.5 0.2,0.3 0.3,0.2 0.3,-0.2 0.2,-0.3 0.2,-0.3 0.3,-0.2 0.3,-0.2 0.2,-0.3 0.2,-0.3 0.3,-0.2 4.7,-4.8 q 4.8,-4.7 6.3,-5.7 1.5,-1 2,-1.3 L 812,629 h 0.2 q 0.3,0 0.6,-0.5 L 813,628 h 0.2 q 0.3,0 0.6,-0.5 L 814,627 h 0.2 q 0.3,0 0.6,-0.5 L 815,626 h 0.2 q 0.3,0 0.6,-0.5 L 816,625 h 0.2 q 0.3,0 0.6,-0.5 l 0.2,-0.5 3.8,3.5 q 3.7,3.5 6,5.7 2.2,2.3 3.2,2.8 l 1,0.5 1.5,0.3 1.5,0.2 0.2,-1 q 0.3,-1 2.3,-4 l 2,-3 0.3,-0.2 0.2,-0.3 0.2,-0.3 0.3,-0.2 0.3,-1 0.2,-1 h 3 l -0.2,1.5 -0.3,1.5 -0.3,0.2 -0.2,0.3 -0.2,0.3 -0.3,0.2 -0.5,1.5 -0.5,1.5 -0.5,1.5 q -0.5,1.5 -1,2.5 -0.5,1 -5.5,6.5 -5,5.5 -8.3,8.3 -3.2,2.7 -6,8.4 -2.7,5.8 -13,11 l -10.2,5.3 -0.2,0.3 -0.3,0.2 -0.3,0.2 -0.2,0.3 -0.2,0.3 -0.3,0.2 -0.3,0.2 -0.2,0.3 -2.5,0.3 -2.5,0.2 -0.5,-0.2 -0.5,-0.3 0.2,-0.3 0.3,-0.2 0.3,-0.2 0.2,-0.3 0.2,-0.3 0.3,-0.2 0.3,-0.2 0.2,-0.3 1.5,-1 q 1.5,-1 1.7,-1.3 l 0.3,-0.2 v -2 l -0.3,-0.2 -0.2,-0.3 0.2,-0.3 0.3,-0.2 v -1 l -0.3,-0.2 -0.2,-0.3 h -2 l -1,0.5 -1,0.5 -1,0.5 -1,0.5 -0.2,0.3 -0.3,0.2 -0.3,0.2 -0.2,0.3 -1.5,0.5 q -1.5,0.5 -4.5,2.5 -3,2 -20,16 -17,14 -21,17 -4,3 -6,5.7 -2,2.8 -6,4 -4,1.3 -5,1.8 l -1,0.5 -0.2,0.3 -0.3,0.2 -0.3,0.2 -0.2,0.3 -2,0.3 -2,0.2 v -1 q 0,-1 -1,-1.2 l -1,-0.3 -0.2,-0.3 q -0.3,-0.2 -0.3,-0.7 0,-0.5 0,-4.5 0,-4 -0.5,-5.5 l -0.5,-1.5 -0.3,-0.2 -0.2,-0.3 -0.2,-0.3 q -0.3,-0.2 -0.6,-0.4 l -0.2,-0.3 -0.2,-0.3 -0.3,-0.2 -0.3,-0.2 -0.2,-0.3 -0.2,-0.3 -0.3,-0.2 -0.3,-0.2 -0.2,-0.3 -1.5,-0.5 -1.5,-0.5 h -1 q -1,0 -2.8,3.3 -1.7,3.2 -3,3.4 l -1.2,0.3 -0.2,-0.3 -0.3,-0.2 -0.3,0.2 -0.2,0.3 -2,0.5 -2,0.5 -1,0.3 -1,0.2 0.2,-1 0.3,-1 0.3,-0.2 0.2,-0.3 2,-0.5 2,-0.5 0.2,-0.3 0.3,-0.2 0.3,-0.2 0.2,-0.3 0.2,-0.3 0.3,-0.2 2.3,-3.2 q 2.2,-3.3 3.7,-3.6 1.5,-0.2 1.5,-2.2 0,-2 2.2,-3.5 2.3,-1.5 2.6,-2.5 0.2,-1 2.2,-1.5 2,-0.5 4,-4.3 2,-3.7 6.5,-8.2 4.5,-4.5 7.3,-7.2 2.7,-2.8 5,-8.6 2.2,-5.7 8.2,-13.7 6,-8 13.8,-12.7 7.7,-4.8 11,-7.6 3.2,-2.7 6.2,-4 3,-1.2 3.2,-2.2 l 0.3,-1 0.5,-1 q 0.5,-1 0.5,-2.5 0,-1.5 -1.7,-0.5 -1.8,1 1,-2.5 2.7,-3.5 3,-6 0.2,-2.5 1.2,-2.5 1,0 1.5,-5.5 0.5,-5.5 -0.5,-5.5 -1,0 -0.2,-1.5 0.7,-1.5 1,-3.3 0.2,-1.7 2.7,-3.2 2.5,-1.5 5,-4.2 2.5,-2.8 3.5,-3 1,-0.3 2.8,-3.6 1.7,-3.2 1.7,-6.7 0,-3.5 1.5,-5.5 1.5,-2 6,-9 4.5,-7 7.8,-7 z"
         fill="#c37a57"
         stroke="#c37a57"
         id="path1426" /><path
         d="m 999.5,465.2 0.5,-0.2 v 72 l -0.5,0.2 q -0.5,0.3 -1,-0.4 -0.5,-0.8 -1.5,-0.6 -1,0.3 -13,-2 -12,-2.2 -12,-3.2 0,-1 -8.2,-5.5 -8.3,-4.5 -18.6,-6.5 l -10.2,-2 -0.2,-0.5 Q 934.5,516 934.2,516 H 934 l -0.2,-0.5 Q 933.5,515 933.2,515 H 933 l -0.2,-0.5 q -0.3,-0.5 -0.6,-0.7 l -0.2,-0.3 -1,-0.5 -1,-0.5 -0.2,-0.3 -0.3,-0.2 -0.3,-0.2 -0.2,-0.3 -0.2,-0.3 -0.3,-0.2 -0.3,-0.2 -0.2,-0.3 -0.2,-0.3 q -0.3,-0.2 -3,-1.4 -2.8,-1.3 -9.3,-2.6 Q 909,505 911,486.5 l 2,-18.5 h 0.2 q 0.3,0 0.6,-0.5 L 914,467 h 3 l 41,-0.8 q 41,-0.7 41.5,-1 z"
         fill="#5d3421"
         stroke="#5d3421"
         id="path1428" /><path
         d="m 727.5,347.2 -2.5,-3.2 8.5,5.8 q 8.5,5.7 15,7.2 6.5,1.5 10,1.5 h 3.5 l 1,-0.5 1,-0.5 1,-0.3 1,-0.2 1.5,0.2 1.5,0.3 0.2,0.3 0.3,0.2 3,22 q 3,22 5,26 2,4 5,25 3,21 5.3,26.8 2.2,5.7 5,11 2.7,5.2 3.2,6.2 l 0.5,1 0.3,0.2 0.2,0.3 0.2,0.3 0.3,0.2 0.3,0.2 0.2,0.3 0.2,0.3 0.3,0.2 0.5,1 0.5,1 v 1 l -0.3,0.2 -0.2,0.3 h -8 l -0.2,-0.3 -0.3,-0.2 H 790 l -0.5,-0.2 q -0.5,-0.3 -2,-0.8 l -1.5,-0.5 -1.5,-0.3 -1.5,-0.2 -2,6.8 q -2,6.7 -3,7 -1,0.2 -2.2,3.2 -1.3,3 -1.6,6 l -0.2,3 -4,-0.2 -4,-0.3 -1,-0.5 -1,-0.5 -1,-0.5 q -1,-0.5 -2.5,-2 -1.5,-1.5 -4.7,-7.2 -3.3,-5.8 -3.3,-17.8 0,-12 0.5,-23 0.5,-11 -1.5,-22.5 -2,-11.5 -6.5,-18 -4.5,-6.5 -8.5,-20.5 -4,-14 -7.7,-22.5 L 725,361 v -3 h 2 l 0.2,1 q 0.3,1 0.6,1.2 l 0.2,0.3 0.2,0.3 0.3,0.2 0.3,-0.2 0.2,-0.3 0.2,-0.3 0.3,-0.2 0.3,-1 q 0.2,-1 -1.6,-2.5 l -1.7,-1.5 -0.3,-0.2 -0.2,-0.3 h 2 l 1,0.5 1,0.5 1,0.5 1,0.5 h 3 l 0.2,-0.3 0.3,-0.2 v -1 l -0.3,-0.2 -0.2,-0.3 -0.2,-0.3 -0.3,-0.2 -0.3,-0.2 -0.2,-0.3 -0.2,-0.3 -0.3,-0.2 -0.3,-0.2 -0.2,-0.3 -0.2,-0.3 -0.3,-0.2 -0.3,-0.2 -0.2,-0.3 -1,-0.5 q -1,-0.5 -3.5,-3.8 z"
         fill="#904625"
         stroke="#904625"
         id="path1430" /><path
         d="m 167.5,358.8 0.5,-0.3 h 2 l 1,0.5 1,0.5 0.2,0.3 0.3,0.2 0.3,2 q 0.2,2 -0.8,1.8 -1,-0.3 -1,-0.6 V 363 l -0.2,-0.5 -0.3,-0.5 -0.3,-0.2 -0.2,-0.3 h -1.5 q -1.5,0 -2,0.3 l -0.5,0.2 -0.2,1 q -0.3,1 0,1 h 0.2 l 0.8,4.5 q 0.7,4.5 -0.3,17.5 -1,13 -2,17.5 -1,4.5 -1.5,7 l -0.5,2.5 -0.3,2 -0.2,2 h -0.2 q -0.3,0 -0.6,0.5 l -0.2,0.5 -4.8,8 q -4.7,8 -5.7,16 -1,8 -8,25 -7,17 -7.3,18 l -0.2,1 1,0.2 q 1,0.3 2.5,0.8 l 1.5,0.5 0.5,0.3 0.5,0.2 v 0.5 h -3 l -6,0.5 q -6,0.5 -7.2,2.8 -1.3,2.2 -0.3,26.2 1,24 1.3,28 l 0.2,4 -0.2,5 -0.3,5 -0.3,0.2 -0.2,0.3 -0.2,0.3 -0.3,0.2 -0.5,1.5 -0.5,1.5 -0.3,0.2 -0.2,0.3 -0.2,0.3 -0.3,0.2 -0.3,1 -0.2,1 h -2 l -0.2,-3.5 -0.3,-3.5 -0.5,-1 q -0.5,-1 -0.8,-1.2 -0.2,-0.3 -1.4,-9 -1.3,-8.8 -3.3,-13.8 -2,-5 -2.7,-4.2 -0.8,0.7 -1.6,-4 -0.7,-4.8 -2.2,-8.8 l -1.5,-4 -0.3,0.2 -0.2,0.3 -0.2,0.3 -0.3,0.2 -0.3,0.2 -0.2,0.3 -1,0.3 -1,0.2 -0.2,1 q -0.3,1 -0.6,0.8 l -0.2,-0.3 -0.2,-0.3 -0.3,-0.2 -0.5,-1 -0.5,-1 -0.3,-0.2 -0.2,-0.3 -0.2,-0.3 -0.3,-0.2 -0.3,0.2 -0.2,0.3 -0.2,0.3 -0.3,0.2 -3,4.5 q -3,4.5 -3.5,6 l -0.5,1.5 -0.5,1.5 -0.5,1.5 -0.3,0.2 -0.2,0.3 -0.2,0.3 -0.3,0.2 -0.5,-2 -0.5,-2 -0.3,-4.5 -0.2,-4.5 0.2,-3 q 0.3,-3 2,-15 L 91,488 h 0.5 l 0.5,-3 q 0.5,-3 1,-7.5 0.5,-4.5 5,-10.5 4.5,-6 13.8,-19.5 l 9.2,-13.5 0.5,-0.2 q 0.5,-0.3 0.7,-0.6 l 0.3,-0.2 0.3,-0.2 0.2,-0.3 V 432 l 0.2,-0.5 0.3,-0.5 0.3,-0.2 q 0.2,-0.3 2.4,-3 2.3,-2.8 6.3,-10.8 4,-8 13,-25 9,-17 14.7,-24.5 l 5.8,-7.5 0.5,-0.2 q 0.5,-0.3 0.5,-0.6 V 359 Z"
         fill="#dd8e6e"
         stroke="#dd8e6e"
         id="path1432" /><path
         d="M 833.5,742.2 834,742 v 0.2 q 0,0.3 0.5,0.6 l 0.5,0.2 6.8,4.5 q 6.7,4.5 19.4,12.3 12.8,7.7 21,13 8.3,5.2 8.6,6.2 0.2,1 1.2,1 1,0 4.5,5 3.5,5 9.7,10 6.3,5 6.6,6 0.2,1 10.7,6.2 10.5,5.3 18.5,11.3 8,6 16,12 8,6 9,6.3 1,0.2 1.5,1.4 0.5,1.3 1.5,1.6 1,0.2 10.5,10.4 9.5,10.3 8.7,11 -0.7,0.8 0,1.6 0.8,0.7 1,1 l 0.3,0.2 0.3,0.2 0.2,0.3 0.2,0.3 0.3,0.2 0.3,-0.2 0.2,-0.3 0.2,-0.3 0.3,-0.2 0.3,0.2 0.2,0.3 0.2,0.3 0.3,0.2 0.3,0.2 0.2,0.3 1.5,0.5 1.5,0.5 0.2,0.3 0.3,0.2 0.3,-0.2 0.2,-0.3 0.2,-0.3 0.3,-0.2 0.3,-0.2 0.2,-0.3 0.5,-0.3 0.5,-0.2 v 27 l -0.5,0.2 -0.5,0.3 h -2 l -0.2,-0.3 -0.3,-0.2 -0.3,0.2 -0.2,0.3 h -3 l -0.2,-0.3 q -0.3,-0.2 -7,-3.4 -6.8,-3.3 -13.8,-7.6 -7,-4.2 -7.2,-5.2 -0.3,-1 -9,-7.2 -8.8,-6.3 -11.3,-9 -2.5,-2.8 -5.7,-4.8 -3.3,-2 -21,-14.2 -17.8,-12.3 -23,-18.6 -5.3,-6.2 -9.8,-12.7 -4.5,-6.5 -9.2,-9.3 -4.8,-2.7 -5.6,-4 -0.7,-1.2 -9,-8.4 -8.2,-7.3 -14.2,-12.3 -6,-5 -13.5,-6.3 l -7.5,-1.2 -0.5,-0.2 q -0.5,-0.3 -11,-3.6 L 804,761 803.8,760.5 Q 803.5,760 803.2,760 H 803 l -0.2,-0.5 q -0.3,-0.5 -0.6,-0.7 l -0.2,-0.3 -0.2,-0.3 -0.3,-0.2 -0.3,-0.2 -0.2,-0.3 -0.2,-0.3 -0.3,-0.2 -0.3,-0.2 -0.2,-0.3 -0.2,-0.3 -0.3,-0.2 -0.3,-0.2 -0.2,-0.3 -0.2,-0.3 -0.3,-0.2 -0.3,-1.5 -0.2,-1.5 1,-0.2 1,-0.3 -0.2,-0.3 -0.3,-0.2 -0.3,-0.2 -0.2,-0.3 4.5,-1.5 q 4.5,-1.5 8.5,-1.8 4,-0.2 4,-1.2 0,-1 3.8,-1.5 3.7,-0.5 7,-1.3 3.2,-0.7 4.7,-0.7 1.5,0 2,-0.3 z"
         fill="#ac7351"
         stroke="#ac7351"
         id="path1434" /><path
         d="m 890,427 0.5,-2 0.5,8 q 0.5,8 0.5,11 v 3 l 0.3,-1 q 0.2,-1 2,0 1.7,1 2.7,3 1,2 1.7,0 0.8,-2 2.3,-2.2 1.5,-0.3 1.7,-0.6 l 0.3,-0.2 0.3,-0.2 0.2,-0.3 1,-0.3 1,-0.2 0.2,1 0.3,1 0.5,6.5 q 0.5,6.5 0.5,9.5 v 3 l 0.7,-0.8 q 0.8,-0.7 1,-1 l 0.3,-0.2 0.3,-0.2 0.2,-0.3 0.2,-0.3 0.3,-0.2 0.5,1.5 0.5,1.5 0.7,0.8 q 0.8,0.7 1.8,0.4 l 1,-0.2 -2.5,19 q -2.5,19 4,20.2 6.5,1.3 9.3,2.6 2.7,1.2 3,1.4 l 0.2,0.3 0.2,0.3 0.3,0.2 0.3,0.2 0.2,0.3 0.2,0.3 0.3,0.2 0.3,0.2 0.2,0.3 1,0.5 1,0.5 1,0.5 1,0.5 0.2,0.3 0.3,0.2 0.3,1 0.2,1 -1,-0.2 -1,-0.3 -0.2,-0.3 -0.3,-0.2 -0.3,-0.2 -0.2,-0.3 -1.5,-0.5 -1.5,-0.5 h -7.5 q -7.5,0 -10.5,0.7 -3,0.8 -4.8,6.8 -1.7,6 -6.2,12 -4.5,6 -16,22 -11.5,16 -16.5,25.5 -5,9.5 -14.7,27 L 843,626 h -0.2 q -0.3,0 -0.6,1 -0.2,1 -1.7,1.2 l -1.5,0.3 -0.2,0.3 -0.3,0.2 -2,3 q -2,3 -2.3,4 l -0.2,1 -1.5,-0.2 -1.5,-0.3 -1,-0.5 q -1,-0.5 -6,-6 -5,-5.5 -6.8,-4.2 l -1.7,1.2 -0.3,0.2 -0.2,0.3 -0.2,0.3 -0.3,0.2 -0.3,0.2 -0.2,0.3 -1,0.3 -1,0.2 0.2,-1 0.3,-1 0.3,-0.2 0.2,-0.3 0.2,-0.3 0.3,-0.2 0.3,-0.2 0.2,-0.3 0.2,-0.3 0.3,-0.2 0.3,-0.2 0.2,-0.3 0.2,-0.3 q 0.3,-0.2 2.6,-1.7 2.2,-1.5 2,-16.5 -0.3,-15 2.2,-23 2.5,-8 5.5,-13.5 3,-5.5 6.5,-17.5 3.5,-12 5,-14.5 1.5,-2.5 2.8,-2.7 1.2,-0.3 2.2,-0.8 1,-0.5 3.5,-1 2.5,-0.5 4.7,-1.2 2.3,-0.8 6.3,-7.8 4,-7 4,-11.5 0,-4.5 -2.7,-5.3 -2.8,-0.7 -3.8,-3 -1,-2.2 0.5,-2.2 1.5,0 1.7,-4 0.3,-4 -2,-13.5 L 854,475 853.8,474.5 Q 853.5,474 853.2,474 H 853 l -0.2,-0.5 q -0.3,-0.5 -0.6,-0.7 l -0.2,-0.3 -0.2,-0.3 q -0.3,-0.2 -0.3,-4.2 v -4 l 0.3,-0.2 0.2,-0.3 1,-0.5 1,-0.5 h 8 l 0.2,0.3 0.3,0.2 0.3,0.2 0.2,0.3 1.8,1.3 q 1.7,1.2 2.2,4.2 l 0.5,3 0.3,0.2 0.2,0.3 0.2,0.3 0.3,0.2 0.3,0.2 0.2,0.3 0.2,0.3 0.3,0.2 0.5,1.5 0.5,1.5 0.3,0.2 0.2,0.3 0.2,0.3 0.3,0.2 v -8.5 q 0,-8.5 -1.3,-20.5 L 869,437 h 0.5 l 0.3,-4.5 0.2,-4.5 5.2,-0.5 q 5.3,-0.5 8.6,0.5 3.2,1 3.7,1.8 0.5,0.7 1.3,0 0.7,-0.8 1.2,-2.8 z"
         fill="#8d4d33"
         stroke="#8d4d33"
         id="path1436" /><path
         d="m 320.2,708.5 -2.2,-3.5 9.5,9.2 q 9.5,9.3 13.3,11.6 3.7,2.2 4,3.2 0.2,1 10.4,7.5 10.3,6.5 16.8,13.5 6.5,7 7,8 l 0.5,1 0.3,0.2 0.2,0.3 2,0.3 2,0.2 v 2 l 1,-0.2 1,-0.3 0.2,-0.3 0.3,-0.2 0.3,-0.2 0.2,-0.3 0.2,-0.3 0.3,-0.2 v -3.5 q 0,-3.5 0,-5 V 750 l 0.3,-0.2 0.2,-0.3 0.2,-0.3 0.3,-0.2 0.3,-0.2 0.2,-0.3 h 4 l 1,0.5 1,0.5 0.2,0.3 0.3,0.2 0.3,0.2 0.2,0.3 0.2,0.3 0.3,0.2 0.3,0.2 0.2,0.3 0.2,0.3 0.3,0.2 4.5,6 q 4.5,6 4.8,8 l 0.2,2 1,-0.2 1,-0.3 0.2,-0.3 0.3,-0.2 0.3,-1.5 q 0.2,-1.5 1,-2 0.7,-0.5 7,0.3 6.2,0.7 8.7,1.7 2.5,1 7.7,3.7 5.3,2.8 8.3,7.3 3,4.5 6.5,11.5 3.5,7 11.5,15 8,8 8.3,8.2 l 0.2,0.3 0.2,0.3 0.3,0.2 0.3,0.2 0.2,0.3 0.2,0.3 0.3,0.2 0.3,0.2 0.2,0.3 0.2,0.3 0.3,0.2 0.3,0.2 0.2,0.3 0.2,0.3 0.3,0.2 0.3,2 0.2,2 -4.5,-0.2 q -4.5,-0.3 -20,-0.3 H 429 l 0.2,0.3 0.3,0.2 0.3,0.2 0.2,0.3 0.2,0.3 0.3,0.2 0.3,0.2 0.2,0.3 0.2,0.3 0.3,0.2 0.3,0.2 0.2,0.3 -1.5,0.3 -1.5,0.2 0.2,1 0.3,1 0.3,0.2 0.2,0.3 0.2,0.3 0.3,0.2 0.3,0.2 0.2,0.3 1,0.5 1,0.5 0.2,0.3 0.3,0.2 0.3,1 0.2,1 -1,-0.2 -1,-0.3 -0.2,-0.3 -0.3,-0.2 -0.3,-0.2 -0.2,-0.3 -0.2,-0.3 -0.3,-0.2 -0.3,-0.2 -0.2,-0.3 -1,-0.5 q -1,-0.5 -6.5,-1.8 -5.5,-1.2 -5.3,-0.2 0.3,1 -0.4,1.8 -0.8,0.7 -7.3,-1.3 -6.5,-2 -20,-0.5 l -13.5,1.5 h -1 l -1.5,-0.5 -1.5,-0.5 -1,-0.3 -1,-0.2 0.2,-0.5 0.3,-0.5 0.3,-0.2 0.2,-0.3 0.2,-0.3 0.3,-0.2 0.3,-0.2 0.2,-0.3 0.2,-0.3 0.3,-0.2 0.3,-0.2 0.2,-0.3 0.2,-0.3 q 0.3,-0.2 0.8,-0.7 0.5,-0.5 0.8,-4.5 0.2,-4 2,-5.5 1.7,-1.5 0.7,-5 -1,-3.5 -8.3,-6.7 l -7.2,-3.3 -1,-0.3 -1,-0.2 0.2,-1.5 0.3,-1.5 0.3,-0.2 0.2,-0.3 0.2,-0.3 0.3,-0.2 0.3,-0.2 q 0.2,-0.3 1.4,-2 1.3,-1.8 3.6,-3.6 2.2,-1.7 2,-3 -0.3,-1.2 -3.3,-7.7 -3,-6.5 -4.3,-7.3 -1.2,-0.7 -2.2,-3 -1,-2.2 -2.2,-2.7 -1.3,-0.5 -0.6,-1.3 0.8,-0.7 -1.2,-2.2 -2,-1.5 -2.2,-3.2 -0.3,-1.8 -3.6,-6.6 -3.2,-4.7 -5.4,-7.4 -2.3,-2.8 -4.6,-4 -2.2,-1.3 -5.2,-4.3 l -3,-3 -0.2,-0.3 -0.3,-0.2 -0.5,-1 -0.5,-1 v -2 l 0.3,0.2 0.2,0.3 1.2,1.3 q 1.3,1.2 1.6,1.4 l 0.2,0.3 0.2,0.3 0.3,0.2 v -2 l -0.3,-0.2 -0.2,-0.3 -0.2,-0.3 -0.3,-0.2 -0.3,-0.2 -0.2,-0.3 -0.2,-0.3 -0.3,-0.2 -0.5,-1 q -0.5,-1 -4.2,-5.8 l -3.8,-4.7 -0.2,-0.3 q -0.3,-0.2 -2.6,-3.7 z"
         fill="#cc8f67"
         stroke="#cc8f67"
         id="path1438" /><path
         d="M 465.8,10 465,0 h 68 v 0.2 q 0,0.3 -1,0.6 -1,0.2 -2.8,8.7 -1.7,8.5 -6.2,19.5 -4.5,11 -5.8,11.5 -1.2,0.5 -2,2.5 -0.7,2 -1.7,10 -1,8 -2.5,13 -1.5,5 -2.2,13 -0.8,8 -1.8,8 -1,0 -1,1 0,1 -20,-1 l -20,-2 0.2,-3 q 0.3,-3 0.3,-32.5 0,-29.5 -0.7,-39.5 z"
         fill="#ba7652"
         stroke="#ba7652"
         id="path1440" /><path
         d="m 494.5,928.5 2.5,-18 2,-0.3 2,-0.2 15.8,2 q 15.7,2 16,4.5 l 0.2,2.5 0.2,34 q 0.3,34 0.6,40.5 l 0.2,6.5 h -61 v -0.5 l 1.5,-0.5 1.5,-0.5 -0.2,-0.3 -0.3,-0.2 -0.3,-0.2 -0.2,-0.3 0.2,-0.3 0.3,-0.2 0.3,-0.2 0.2,-0.3 0.2,-0.3 q 0.3,-0.2 0.8,-2.7 0.5,-2.5 7.8,-24.7 7.2,-22.3 9.7,-40.3 z"
         fill="#875c3c"
         stroke="#875c3c"
         id="path1442" /><path
         d="m 125.8,555 0.2,-5 1.8,4.5 q 1.7,4.5 2.7,15.5 1,11 7,38 6,27 6.5,29.5 0.5,2.5 0.8,5 l 0.2,2.5 -0.2,14 q -0.3,14 -0.8,20.5 l -0.5,6.5 -0.3,-0.2 -0.2,-0.3 -0.2,-0.3 -0.3,-0.2 -0.3,-1 -0.2,-1 h -2 l -0.2,-2.5 q -0.3,-2.5 -1.3,-4.5 l -1,-2 -0.3,0.2 -0.2,0.3 -0.2,0.3 -0.3,0.2 -0.5,-1.5 -0.5,-1.5 -0.5,2 -0.5,2 -0.3,-0.2 -0.2,-0.3 -0.2,-0.3 -0.3,-0.2 -0.5,-1 -0.5,-1 -0.3,3.2 q -0.2,3.3 -1.4,2.6 -1.3,-0.8 -1.3,1.7 V 685 H 129 l -0.2,-0.5 -0.3,-0.5 -0.3,-0.2 -0.2,-0.3 -0.2,-0.3 -0.3,-0.2 -0.3,-1.5 -0.2,-1.5 h -1 q -1,0 -2,-2.2 -1,-2.3 -1.8,-3.6 -0.7,-1.2 -0.4,-2.7 0.2,-1.5 -0.8,-1.7 -1,-0.3 -0.5,-1.6 0.5,-1.2 -0.5,-1.2 -1,0 -1.2,-2 -0.3,-2 -1.3,-3 -1,-1 -2.5,-7 -1.5,-6 -0.8,-12 0.8,-6 2.3,-6.2 1.5,-0.3 2,-1.6 0.5,-1.2 -1,-1.4 -1.5,-0.3 -0.5,-0.6 1,-0.2 0.5,-7.2 -0.5,-7 -3.5,-9.8 -3,-2.7 -2.5,-6.7 0.5,-4 1.5,-6.7 1,-2.8 2,-2.8 1,0 1.8,-14.5 0.7,-14.5 2,-16.5 l 1.2,-2 h 2 l 0.2,-1 0.3,-1 0.3,-0.2 0.2,-0.3 0.2,-0.3 0.3,-0.2 0.5,-1.5 0.5,-1.5 0.3,-0.2 0.2,-0.3 0.2,-0.3 0.3,-0.2 z"
         fill="#c97551"
         stroke="#c97551"
         id="path1444" /><path
         d="m 616,176.5 h 7 l 0.2,0.3 0.3,0.2 v 2 l -1,4 q -1,4 -2.5,6.5 -1.5,2.5 -1.2,5.7 0.2,3.3 6.2,6.8 6,3.5 7,3.8 l 1,0.2 0.2,1.5 0.3,1.5 v 1 l -0.3,0.2 -0.2,0.3 -2.5,2.5 q -2.5,2.5 -4,2.8 -1.5,0.2 -0.3,3.7 1.3,3.5 4.8,9.5 3.5,6 5.2,7.5 1.8,1.5 1.8,3.3 0,1.7 4,7.7 4,6 9.8,11.7 5.7,5.8 6,6 l 0.2,0.3 0.2,0.3 0.3,0.2 0.3,0.2 0.2,0.3 0.2,0.3 0.3,0.2 0.3,0.2 0.2,0.3 0.2,0.3 0.3,0.2 0.3,0.2 0.2,0.3 0.2,0.3 0.3,0.2 0.3,0.2 0.2,0.3 1,0.3 1,0.2 v 2 l -1,-0.2 -1,-0.3 -0.2,-0.3 -0.3,-0.2 -0.3,-0.2 -0.2,-0.3 -1,-0.5 -1,-0.5 -1,-0.5 -1,-0.5 -1,-0.5 q -1,-0.5 -7.5,-4 -6.5,-3.5 -9.7,-6.2 -3.3,-2.8 -7,-5.8 -3.8,-3 -3.8,-4 0,-1 -1,-1.2 -1,-0.3 -5.2,-6 -4.3,-5.8 -10,-6.8 -5.8,-1 -5.8,0 0,1 -1,1 -1,0 -1,2.5 v 2.5 l -1,0.2 -1,0.3 -0.2,0.3 -0.3,0.2 -0.3,-0.2 -0.2,-0.3 -0.2,-0.3 -0.3,-0.2 -0.3,-0.2 -0.2,-0.3 -0.2,-0.3 -0.3,-0.2 -0.3,-1 q -0.2,-1 -1.2,-1 -1,0 -3.2,-4 -2.3,-4 -7.6,-7.8 -5.2,-3.7 -6.7,-4.2 -1.5,-0.5 -2.5,0 -1,0.5 -8,-1 -7,-1.5 -11.5,-4.2 -4.5,-2.8 -6.5,-6.8 -2,-4 -12,-13.2 l -10,-9.3 -0.2,-0.3 -0.3,-0.2 -0.3,-0.2 -0.2,-0.3 -0.2,-0.3 -0.3,-0.2 -0.3,-0.2 -0.2,-0.3 -0.2,-0.3 -0.3,-0.2 -0.3,-0.2 -0.2,-0.3 -0.2,-0.3 -0.3,-0.2 -0.3,-0.2 -0.2,-0.3 -0.2,-0.3 -0.3,-0.2 v -2 l 0.3,-0.2 0.2,-0.3 h 10.5 q 10.5,0 11,-0.5 0.5,-0.5 8,-0.5 H 568 l -0.2,-0.3 -0.3,-0.2 -0.3,-0.2 -0.2,-0.3 -1.5,-0.5 -1.5,-0.5 -1,-0.5 -1,-0.5 -1,-0.5 q -1,-0.5 -1.8,-1.8 -0.7,-1.2 -4.7,-4.2 -4,-3 -3.3,-3.8 0.8,-0.7 -6,-2.4 -6.7,-1.8 -18,-7 L 516,150.5 515,150 q -1,-0.5 -1.5,-0.8 L 513,149 v -0.5 l 0.2,-0.3 0.3,-0.2 v -2 L 513,144.5 Q 512.5,143 512.2,143 H 512 l 6,0.2 q 6,0.3 13.2,4.6 7.3,4.2 11.6,6.4 4.2,2.3 11.2,3.3 7,1 9.5,4 2.5,3 4.3,3.7 1.7,0.8 2,2.3 0.2,1.5 8.7,3.7 8.5,2.3 9.5,3.3 1,1 11,1.5 10,0.5 17,0.5 z"
         fill="#c78766"
         stroke="#c78766"
         id="path1446" /><path
         d="m 769.8,353.5 0.2,-0.5 9.5,6.8 q 9.5,6.7 13.3,10.4 3.7,3.8 8.7,13.8 5,10 5.3,11 l 0.2,1 h -1 q -1,0 -1.2,-1 l -0.3,-1 -0.5,3 -0.5,3 v 40 q 0,40 -0.5,41.5 l -0.5,1.5 -0.5,1 -0.5,1 -0.3,0.2 -0.2,0.3 -1,0.5 -1,0.5 h -2 l -2,-0.5 -2,-0.5 -0.2,-0.3 -0.3,-0.2 -0.3,-0.2 -0.2,-0.3 -0.2,-0.3 -0.3,-0.2 -0.3,-0.2 -0.2,-0.3 -0.2,-0.3 -0.3,-0.2 -0.3,-1 -0.2,-1 h 0.5 l 0.3,0.2 0.2,0.3 h 8 l 0.2,-0.3 0.3,-0.2 v -1 l -0.5,-1 -0.5,-1 -0.3,-0.2 -0.2,-0.3 -0.2,-0.3 -0.3,-0.2 -0.3,-0.2 -0.2,-0.3 -0.2,-0.3 -0.3,-0.2 -0.5,-1 q -0.5,-1 -3.2,-6.2 -2.8,-5.3 -5,-11 -2.3,-5.8 -5.3,-26.8 -3,-21 -5,-25 -2,-4 -5,-26 l -3,-22 -0.3,-0.2 -0.2,-0.3 -1.5,-0.3 -1.5,-0.2 v -0.5 l 1,-0.5 1,-0.5 0.2,-0.3 0.3,-0.2 0.3,-0.2 0.2,-0.3 0.2,-0.3 0.3,-0.2 z"
         fill="#f3ae8f"
         stroke="#f3ae8f"
         id="path1448" /><path
         d="m 200.2,513.2 0.3,-0.2 0.3,0.2 0.2,0.3 3.2,1.3 q 3.3,1.2 4.8,2.2 1.5,1 1.8,2 l 0.2,1 -1,-0.2 q -1,-0.3 -4.5,-0.8 l -3.5,-0.5 -1,0.3 -1,0.2 0.2,1 0.3,1 0.3,0.2 0.2,0.3 0.2,0.3 0.3,0.2 0.3,0.2 0.2,0.3 0.2,0.3 0.3,0.2 6,11.5 q 6,11.5 9.5,34.5 3.5,23 5,26 1.5,3 4,22.5 2.5,19.5 2.8,22.5 l 0.2,3 h 3 v 0.5 l -0.2,0.3 -0.3,0.2 -0.3,0.2 -0.2,0.3 -0.2,0.3 -0.3,0.2 -0.3,1.5 -0.2,1.5 h -2 l -0.2,-1.5 -0.3,-1.5 -0.3,-0.2 -0.2,-0.3 -1,-0.5 q -1,-0.5 -8.5,-6 -7.5,-5.5 -11.5,-9.5 -4,-4 -9,-14.7 L 193,603 h 0.5 l 0.5,1 0.5,1 0.3,0.2 0.2,0.3 0.2,0.3 0.3,0.2 0.5,-5.5 q 0.5,-5.5 0.5,-44 V 518 l 0.5,-1 0.5,-1 0.3,-0.2 0.2,-0.3 0.2,-0.3 0.3,-0.2 0.3,-0.2 0.2,-0.3 0.2,-0.3 0.3,-0.2 0.3,-0.2 0.2,-0.3 z"
         fill="#f2b68e"
         stroke="#f2b68e"
         id="path1450" /></g></g></svg>
