<?xml version="1.0" encoding="UTF-8" standalone="no"?>
<!-- Created with Inkscape (http://www.inkscape.org/) -->

<svg
   version="1.1"
   id="svg2"
   xml:space="preserve"
   width="2666.6667"
   height="2666.6667"
   viewBox="0 0 2666.6667 2666.6667"
   sodipodi:docname="eco-5465492.svg"
   inkscape:version="1.1 (c68e22c387, 2021-05-23)"
   xmlns:inkscape="http://www.inkscape.org/namespaces/inkscape"
   xmlns:sodipodi="http://sodipodi.sourceforge.net/DTD/sodipodi-0.dtd"
   xmlns="http://www.w3.org/2000/svg"
   xmlns:svg="http://www.w3.org/2000/svg"><defs
     id="defs6"><linearGradient
       x1="0"
       y1="0"
       x2="1"
       y2="0"
       gradientUnits="userSpaceOnUse"
       gradientTransform="matrix(1e-7,-1611.2168,-1611.2168,-1e-7,1040.8257,1563.1259)"
       spreadMethod="pad"
       id="linearGradient30"><stop
         style="stop-opacity:1;stop-color:#50a6e1"
         offset="0"
         id="stop24" /><stop
         style="stop-opacity:1;stop-color:#3a74be"
         offset="0.539326"
         id="stop26" /><stop
         style="stop-opacity:1;stop-color:#2d3f93"
         offset="1"
         id="stop28" /></linearGradient><radialGradient
       fx="0"
       fy="0"
       cx="0"
       cy="0"
       r="1"
       gradientUnits="userSpaceOnUse"
       gradientTransform="matrix(-723.07233,-1359.1359,-1359.1359,723.07233,1247.9091,1420.1224)"
       spreadMethod="pad"
       id="radialGradient1054"><stop
         style="stop-opacity:1;stop-color:#50a9e2"
         offset="0"
         id="stop1050" /><stop
         style="stop-opacity:1;stop-color:#2c3a91"
         offset="1"
         id="stop1052" /></radialGradient><radialGradient
       fx="0"
       fy="0"
       cx="0"
       cy="0"
       r="1"
       gradientUnits="userSpaceOnUse"
       gradientTransform="matrix(-102.60715,-1298.511,-1298.511,102.60715,909.62708,1494.0146)"
       spreadMethod="pad"
       id="radialGradient1074"><stop
         style="stop-opacity:1;stop-color:#80cb2a"
         offset="0"
         id="stop1070" /><stop
         style="stop-opacity:1;stop-color:#498435"
         offset="1"
         id="stop1072" /></radialGradient><radialGradient
       fx="0"
       fy="0"
       cx="0"
       cy="0"
       r="1"
       gradientUnits="userSpaceOnUse"
       gradientTransform="matrix(-779.83734,-1465.8352,-1465.8352,779.83734,1267.3712,1453.1042)"
       spreadMethod="pad"
       id="radialGradient1094"><stop
         style="stop-opacity:1;stop-color:#50a9e2"
         offset="0"
         id="stop1090" /><stop
         style="stop-opacity:1;stop-color:#2c3a91"
         offset="1"
         id="stop1092" /></radialGradient></defs><sodipodi:namedview
     id="namedview4"
     pagecolor="#505050"
     bordercolor="#ffffff"
     borderopacity="1"
     inkscape:pageshadow="0"
     inkscape:pageopacity="0"
     inkscape:pagecheckerboard="1"
     showgrid="false"
     showguides="true"
     inkscape:guide-bbox="true"
     inkscape:zoom="0.125"
     inkscape:cx="812"
     inkscape:cy="572"
     inkscape:window-width="1920"
     inkscape:window-height="1009"
     inkscape:window-x="1912"
     inkscape:window-y="-8"
     inkscape:window-maximized="1"
     inkscape:current-layer="g8"><sodipodi:guide
       position="49.999999,2666.6667"
       orientation="0,1"
       id="guide929"
       inkscape:label=""
       inkscape:locked="false"
       inkscape:color="rgb(0,0,255)" /><sodipodi:guide
       position="0,2666.6667"
       orientation="1,0"
       id="guide931" /></sodipodi:namedview><g
     id="g8"
     inkscape:groupmode="layer"
     inkscape:label="eco-5465492"
     transform="matrix(1.3333333,0,0,-1.3333333,0,2666.6667)"><g
       id="g12"
       transform="matrix(4.2388534,0,0,4.2388534,-3381.4581,-3368.7778)"><g
         id="g1034"
         inkscape:label="eco-5465482"
         transform="matrix(0.50302069,0,0,0.50302069,530.15815,528.09364)"><g
           id="g1038"><g
             id="g1040"><g
               id="g1046"><g
                 id="g1048"><path
                   d="m 1126.093,1317.983 c -45.06,-23.67 -96.017,-32.906 -145.43,-45.109 v 0 C 931.249,1260.67 880.87,1244.24 843.468,1209.72 v 0 c -30.03,-27.717 -49.816,-66.29 -54.809,-106.848 v 0 c -2.688,-21.851 -1.035,-44.174 4.534,-65.471 v 0 c 85.54,111.579 228.278,129.318 295.878,109.242 v 0 c -78.809,5.441 -223.727,-46.018 -295.252,-176.839 v 0 C 774.126,933.783 752.583,889.126 749.031,848.219 v 0 c 26.091,73.286 66.315,104.821 121.912,132.491 v 0 c 55.597,27.673 131.166,34.455 188.231,58.957 v 0 c 57.064,24.501 112.859,56.586 151.202,105.439 v 0 c 31.918,40.664 50.138,91.887 51.071,143.572 v 0 c 0.933,51.684 -15.429,103.533 -45.856,145.322 v 0 c -5.122,-50.64 -44.436,-92.349 -89.498,-116.017"
                   style="fill:url(#radialGradient1054);stroke:none"
                   id="path1056" /></g></g></g></g><g
           id="g1058"><g
             id="g1060"><g
               id="g1066"><g
                 id="g1068"><path
                   d="m 531.929,1000 c 0,-156.2 76.523,-294.515 194.114,-379.541 v 0 c 8.097,-31.766 22.141,-62.026 41.441,-88.53 v 0 c 5.523,54.614 47.925,99.598 96.524,125.124 v 0 c 48.597,25.529 103.555,35.49 156.847,48.65 v 0 c 53.293,13.163 107.627,30.882 147.966,68.113 v 0 c 32.387,29.892 53.726,71.493 59.111,115.237 v 0 c 2.9,23.566 1.117,47.642 -4.889,70.61 v 0 C 1130.787,839.324 976.844,820.193 903.937,841.844 v 0 c 84.996,-5.867 241.29,49.631 318.429,190.723 v 0 c 21.24,38.848 44.475,87.011 48.305,131.13 v 0 c -28.14,-79.039 -71.52,-113.05 -131.483,-142.893 v 0 C 1079.227,990.959 997.724,983.644 936.18,957.217 v 0 C 874.636,930.794 814.461,896.19 773.108,843.503 v 0 C 745.935,808.884 727.979,767.168 721.119,723.714 v 0 C 650.837,794.651 607.424,892.254 607.424,1000 v 0 c 0,216.813 175.762,392.576 392.576,392.576 v 0 c 38.602,0 75.901,-5.576 111.14,-15.959 v 0 c 0.194,0.101 0.391,0.198 0.587,0.301 v 0 c 25.782,13.541 49.82,32.562 67.533,55.59 v 0 c -55.214,22.91 -115.758,35.563 -179.26,35.563 v 0 c -258.508,0 -468.071,-209.562 -468.071,-468.071"
                   style="fill:url(#radialGradient1074);stroke:none"
                   id="path1076" /></g></g></g></g><g
           id="g1078"><g
             id="g1080"><g
               id="g1086"><g
                 id="g1088"><path
                   d="m 1257.707,1345.312 c -0.273,-15.108 -1.926,-30.178 -4.862,-44.997 v 0 c 85.445,-72.013 139.731,-179.824 139.731,-300.315 v 0 c 0,-216.814 -175.763,-392.576 -392.576,-392.576 v 0 c -37.869,0 -74.482,5.368 -109.128,15.374 v 0 c -0.867,-0.444 -1.736,-0.881 -2.598,-1.334 v 0 c -25.325,-13.301 -48.952,-31.895 -66.57,-54.372 v 0 C 876.658,544.433 936.868,531.929 1000,531.929 v 0 c 258.509,0 468.071,209.563 468.071,468.071 v 0 c 0,164.867 -85.242,309.819 -214.052,393.204 v 0 c 2.715,-15.803 3.978,-31.854 3.688,-47.892"
                   style="fill:url(#radialGradient1094);stroke:none"
                   id="path1096" /></g></g></g></g></g></g></g></svg>
